<?xml version="1.0" encoding="utf-8"?>
<!-- Generator: Adobe Illustrator 22.1.0, SVG Export Plug-In . SVG Version: 6.00 Build 0)  -->
<svg version="1.1" id="Layer_3" xmlns="http://www.w3.org/2000/svg" xmlns:xlink="http://www.w3.org/1999/xlink" x="0px" y="0px"
	 viewBox="0 0 47 47" style="enable-background:new 0 0 47 47;" xml:space="preserve">
<style type="text/css">
	.st0{fill:#FFFFFF;}
</style>
<path class="st0" d="M43.7,47L27.4,35.3h-23C2,35.3,0,33.4,0,31V4.4C0,2,2,0,4.4,0h38.2C45,0,47,2,47,4.4V31c0,2.2-1.7,4.1-3.9,4.4
	L43.7,47z M4.4,1C2.5,1,1,2.5,1,4.4V31c0,1.9,1.5,3.4,3.4,3.4h23.3L42.6,45l-0.5-10.7h0.5c1.9,0,3.4-1.5,3.4-3.4V4.4
	C46,2.5,44.5,1,42.6,1H4.4z"/>
<rect x="8.5" y="11.5" class="st0" width="28.4" height="1"/>
<rect x="8.5" y="22.2" class="st0" width="28.4" height="1"/>
</svg>
