<?xml version="1.0" encoding="utf-8"?>
<!-- Generator: Adobe Illustrator 22.1.0, SVG Export Plug-In . SVG Version: 6.00 Build 0)  -->
<svg version="1.1" id="Layer_1" xmlns="http://www.w3.org/2000/svg" xmlns:xlink="http://www.w3.org/1999/xlink" x="0px" y="0px"
	 viewBox="0 0 47 47" style="enable-background:new 0 0 47 47;" xml:space="preserve">
<style type="text/css">
	.st0{fill:#FFFFFF;}
</style>
<g id="Layer_2_1_">
	<circle class="st0" cx="23.5" cy="23.5" r="23.3"/>
</g>
<g id="Layer_1_1_">
	<path d="M23.5,47C10.5,47,0,36.5,0,23.5S10.5,0,23.5,0S47,10.5,47,23.5S36.5,47,23.5,47z M23.5,0.4C10.7,0.4,0.4,10.7,0.4,23.5
		s10.3,23.2,23.1,23.2s23.2-10.3,23.2-23.2S36.3,0.4,23.5,0.4z"/>
</g>
<g id="Layer_3">
	<path d="M38.7,27.3L38.7,27.3L38.7,27.3l-3-5.9h-5.7l-1.4,1.8l-1.4-0.6c1.3-1.8,2.7-3.7,3.4-4.7c0.8-1.3,1.3-2.8,1.3-4.4
		c0-4.5-3.7-8.2-8.2-8.2s-8.2,3.7-8.2,8.2c0,1.6,0.5,3.1,1.3,4.4c0.8,1.2,2.8,3.9,4.4,6l-6.4,2.9l-3-1.5l1-2h6.1l-1.7-2.1h-5.6
		L4.9,33.7h37L38.7,27.3z M38.6,31.6H28.1l8.6-3.5L38.6,31.6z M34.3,23.4l1.3,2.6l-6.5-2.6H34.3z M19.1,13.6c0-2.4,2-4.4,4.4-4.4
		s4.4,2,4.4,4.4s-2,4.4-4.4,4.4C21,18,19.1,16,19.1,13.6z M21.6,24.8c1.1,1.4,1.9,2.4,1.9,2.4s1.3-1.7,2.9-3.8l9.5,3.8l-10.5,4.3H24
		l-8.3-4.1L21.6,24.8z M13.4,27.5l-3.7,1.7l1.4-2.8L13.4,27.5z M8.8,30.7l5.6-2.6l7.2,3.5H8.3L8.8,30.7z"/>
</g>
</svg>
