<?xml version="1.0" encoding="utf-8"?>
<!-- Generator: Adobe Illustrator 22.1.0, SVG Export Plug-In . SVG Version: 6.00 Build 0)  -->
<svg version="1.1" id="Layer_1" xmlns="http://www.w3.org/2000/svg" xmlns:xlink="http://www.w3.org/1999/xlink" x="0px" y="0px"
	 viewBox="0 0 47 47" style="enable-background:new 0 0 47 47;" xml:space="preserve">
<style type="text/css">
	.st0{fill:#FFFFFF;}
</style>
<g id="Layer_2_1_">
	<circle class="st0" cx="23.5" cy="23.5" r="23.3"/>
</g>
<g id="Layer_1_1_">
	<path d="M23.5,47C10.5,47,0,36.5,0,23.5S10.5,0,23.5,0S47,10.5,47,23.5S36.5,47,23.5,47z M23.5,0.3C10.7,0.3,0.3,10.7,0.3,23.5
		s10.4,23.2,23.2,23.2s23.2-10.4,23.2-23.2S36.3,0.3,23.5,0.3z"/>
</g>
<g id="Layer_3">
	<g>
		<path d="M37.6,36.7V18.3h-1.9v-0.6l-0.1-0.2c-1-1.3-2.9-2.1-5-2.1c-2.4-0.1-4.6,0.7-5.7,2.1l-0.1,0.2v19.1h-4.2v-6.5h-4.8
			l-2.1-2.5h-0.9v2.4l-2-2.4H9.7v2.5v0.2v6.4H8.1v1.4h30.7v-1.4H37.6z M11.2,35.2v-1.5h2.4v1.5H11.2z M14.3,31.4h2.3v1.5h-2.3V31.4z
			 M14.3,33.6h2.3v1.5h-2.3V33.6z M11.2,31.4L11.2,31.4h2.4l0,0v1.5l0,0h-2.3l0,0L11.2,31.4L11.2,31.4z M35.7,32.7H37v1.4h-1.4
			C35.7,34.1,35.7,32.7,35.7,32.7z M37.1,22.4h-1.4v-1.4h1.4V22.4z M37.1,22.9v1.4h-1.4v-1.4H37.1z M35.7,24.8H37v1.4h-1.4
			C35.7,26.3,35.7,24.8,35.7,24.8z M37.1,26.8v1.4h-1.4v-1.4H37.1z M35.7,28.7H37v1.4h-1.4C35.7,30.1,35.7,28.7,35.7,28.7z
			 M37.1,30.7v1.4h-1.4v-1.4L37.1,30.7L37.1,30.7z M35.7,34.6H37v2.2h-1.4C35.7,36.7,35.7,34.6,35.7,34.6z M37.1,18.8v1.5h-1.4v-1.5
			H37.1z M25.6,18.1c1-1,2.9-1.6,4.8-1.6c1.8,0.1,3.3,0.6,4.2,1.5v18.7h-9V18.1z"/>
		<path d="M19.9,10.4H16l-0.6,19.1h5.1L19.9,10.4z M16.6,28.4l0.5-17h1.8l0.6,17H16.6z"/>
		<path d="M23.7,34L23.6,22h0.7v-1.5h-0.7c-0.9,0-1.5,0.7-1.5,1.6l-0.1,12.1h-1.1v1.5h1.1C22.9,35.7,23.7,34.9,23.7,34z"/>
		<path d="M16.6,9.9h1c-1.4-0.9-0.1-1.8-0.1-3.2C18,7.3,17.9,7.9,17.9,9c0.5-1.2,0.5-2.3,0.3-3.7c0.5,1.7,1.1,3-0.1,4.5h1
			c1.9-1.4,0.2-5.7-1.8-6.7C17.7,5.9,14.6,8.2,16.6,9.9z"/>
	</g>
</g>
</svg>
