<?xml version="1.0" encoding="utf-8"?>
<!-- Generator: Adobe Illustrator 22.1.0, SVG Export Plug-In . SVG Version: 6.00 Build 0)  -->
<svg version="1.1" id="Layer_1" xmlns="http://www.w3.org/2000/svg" xmlns:xlink="http://www.w3.org/1999/xlink" x="0px" y="0px"
	 viewBox="0 0 47 47" style="enable-background:new 0 0 47 47;" xml:space="preserve">
<style type="text/css">
	.st0{display:none;}
	.st1{fill:#FFFFFF;}
</style>
<g id="Layer_1_1_" class="st0">
</g>
<g>
	<path class="st1" d="M4.7,29.5c-1.3,0-2.2,0.9-2.2,2.2v13.1c0,1.3,0.9,2.2,2.2,2.2c1.1,0,2.2-1.1,2.2-2.2V31.7
		C6.9,30.4,6,29.5,4.7,29.5z"/>
	<path class="st1" d="M17.1,18.2c-1.3,0-2.2,0.9-2.2,2.2v24.4c0,1.3,0.9,2.2,2.2,2.2c1.3,0,2.2-1.1,2.2-2.4V20.4
		C19.3,19.1,18.4,18.2,17.1,18.2z"/>
	<path class="st1" d="M29.7,29.5c-1.3,0-2.2,0.9-2.2,2.2v13.1c0,1.3,0.9,2.2,2.2,2.2c1.3,0,2.2-1.1,2.2-2.2V31.7
		C31.9,30.4,31,29.5,29.7,29.5z"/>
	<path class="st1" d="M42.3,22.8c-1.3,0-2.2,0.9-2.2,2.2v19.7c0,1.3,0.9,2.2,2.2,2.2c1.1,0,2.2-1.1,2.2-2.2V25.1
		C44.6,23.7,43.7,22.8,42.3,22.8z"/>
	<path class="st1" d="M42.3,0c-2.6,0-4.7,2.1-4.7,4.7c0,0.7,0.2,1.4,0.5,2l-7.3,6c-0.5,0.3-1.4,0.4-1.9-0.1l-9.3-9.1
		c-1.3-1.3-3.4-1.3-4.7,0l-7.8,7.5c-0.7-0.5-1.6-0.7-2.5-0.7c-2.6,0-4.7,2.1-4.7,4.7s2.1,4.7,4.7,4.7c2.6,0,4.7-2.1,4.7-4.7
		c0-0.8-0.2-1.6-0.6-2.3L16.5,5c0.4-0.4,1.1-0.5,1.5,0l9.3,9.1c1.2,1.2,3.4,1.4,4.8,0.3l7.4-6c0.8,0.6,1.7,0.9,2.8,0.9
		c2.6,0,4.7-2.1,4.7-4.7S44.9,0,42.3,0z"/>
</g>
</svg>
