<?xml version="1.0" encoding="utf-8"?>
<!-- Generator: Adobe Illustrator 22.1.0, SVG Export Plug-In . SVG Version: 6.00 Build 0)  -->
<svg version="1.1" id="Layer_1" xmlns="http://www.w3.org/2000/svg" xmlns:xlink="http://www.w3.org/1999/xlink" x="0px" y="0px"
	 viewBox="0 0 47 47" style="enable-background:new 0 0 47 47;" xml:space="preserve">
<style type="text/css">
	.st0{fill:#FFFFFF;}
</style>
<g id="Layer_2_1_">
	<circle class="st0" cx="23.5" cy="23.5" r="23.3"/>
</g>
<g id="Layer_1_1_">
	<path d="M23.5,47C10.5,47,0,36.5,0,23.5S10.5,0,23.5,0S47,10.5,47,23.5S36.5,47,23.5,47z M23.5,0.3C10.7,0.3,0.4,10.6,0.4,23.4
		s10.3,23.2,23.1,23.2s23.2-10.3,23.2-23.2S36.3,0.3,23.5,0.3z"/>
</g>
<g id="Layer_3">
	<path d="M40.6,33.7l-17-9.5L6.5,33.7V13.1l17,9.5l17.1-9.5V33.7z M24.9,23.4l14.3,7.9v-16L24.9,23.4z M7.8,15.4v16l14.3-7.9
		L7.8,15.4z"/>
</g>
</svg>
