<?xml version="1.0" encoding="utf-8"?>
<!-- Generator: Adobe Illustrator 22.1.0, SVG Export Plug-In . SVG Version: 6.00 Build 0)  -->
<svg version="1.1" id="Layer_2_1_" xmlns="http://www.w3.org/2000/svg" xmlns:xlink="http://www.w3.org/1999/xlink" x="0px" y="0px"
	 viewBox="0 0 47 47" style="enable-background:new 0 0 47 47;" xml:space="preserve">
<style type="text/css">
	.st0{fill:#368ED4;}
</style>
<g>
	<path class="st0" d="M43.1,0.1H4C1.8,0.1,0.1,1.8,0.1,4v39.1C0.1,45.3,1.8,47,4,47h39.1c2.2,0,3.9-1.7,3.9-3.9V4
		C46.9,1.8,45.1,0.1,43.1,0.1z M4,1.8h39.1c1.2,0,2.2,1,2.2,2.2v4.9H1.8V4C1.8,2.8,2.8,1.8,4,1.8z M43.1,45.3H4
		c-1.2,0-2.2-1-2.2-2.2V10.5h43.5v32.6C45.3,44.2,44.2,45.3,43.1,45.3z"/>
	<path class="st0" d="M10.4,30.8h12.8V18H10.4V30.8z M12.1,19.6h9.4v9.5h-9.4V19.6z"/>
</g>
</svg>
