<?xml version="1.0" encoding="utf-8"?>
<!-- Generator: Adobe Illustrator 22.1.0, SVG Export Plug-In . SVG Version: 6.00 Build 0)  -->
<svg version="1.1" id="Layer_1" xmlns="http://www.w3.org/2000/svg" xmlns:xlink="http://www.w3.org/1999/xlink" x="0px" y="0px"
	 viewBox="0 0 47 47" style="enable-background:new 0 0 47 47;" xml:space="preserve">
<style type="text/css">
	.st0{fill:#FFFFFF;}
</style>
<circle class="st0" cx="23.5" cy="23.5" r="23.5"/>
<path d="M23.5,47C10.5,47,0,36.5,0,23.5S10.5,0,23.5,0S47,10.5,47,23.5S36.5,47,23.5,47z M23.5,0.3C10.7,0.3,0.3,10.7,0.3,23.5
	s10.4,23.2,23.2,23.2s23.2-10.4,23.2-23.2S36.4,0.3,23.5,0.3z"/>
<path d="M37,17.6h-1.7c-0.5-0.7-1.2-1.2-2.1-1.2h-9.6l0-0.2c0.2-0.8-0.3-1.4-1.2-1.4h-2.6c-0.1-0.8-0.7-1.4-1.5-1.4h-7
	c-0.8,0-1.5,0.7-1.5,1.5v17c0,1.3,1.1,2.4,2.4,2.4h21.1c0.7,0,1.2-0.3,1.7-0.7c0.6-0.4,1-1,1.1-1.6l2.8-12.2
	C39.2,18.6,38.4,17.6,37,17.6z M22.8,16.2l0,0.2h-3v-0.9h2.4C22.6,15.5,22.9,15.8,22.8,16.2z M10.5,14.9c0-0.4,0.3-0.7,0.7-0.7h7
	c0.4,0,0.7,0.3,0.7,0.7v2.3h14.1c0.9,0,1.6,0.7,1.7,1.6v13.1c0,0.9-0.7,1.6-1.6,1.6H12.2c-0.9,0-1.6-0.7-1.6-1.6V14.9z M38.1,19.8
	l-2.4,10.5l0-11.6c0-0.2,0-0.3-0.1-0.5h1.2C37.7,18.3,38.3,19,38.1,19.8z"/>
<path d="M27.1,22.3c-2.4,0-4.3,1.9-4.3,4.3s1.9,4.3,4.3,4.3s4.3-1.9,4.3-4.3S29.5,22.3,27.1,22.3z M29.8,27.1h-2v2.3h-1.3v-2.3h-2.1
	v-1.2h2.1v-2.2h1.3v2.2h2V27.1z"/>
</svg>
