<?xml version="1.0" encoding="utf-8"?>
<!-- Generator: Adobe Illustrator 22.1.0, SVG Export Plug-In . SVG Version: 6.00 Build 0)  -->
<svg version="1.1" id="Layer_1" xmlns="http://www.w3.org/2000/svg" xmlns:xlink="http://www.w3.org/1999/xlink" x="0px" y="0px"
	 viewBox="0 0 47 47" style="enable-background:new 0 0 47 47;" xml:space="preserve">
<style type="text/css">
	.st0{fill:#FFFFFF;}
</style>
<g id="Layer_2_1_">
	<ellipse class="st0" cx="23.5" cy="23.5" rx="23.3" ry="23.3"/>
</g>
<g id="Layer_1_1_">
	<path d="M23.5,47C10.6,47,0,36.4,0,23.5S10.6,0,23.5,0S47,10.6,47,23.5S36.5,47,23.5,47z M23.5,0.4C10.8,0.4,0.4,10.8,0.4,23.5
		c0,12.8,10.4,23.1,23.2,23.1s23.2-10.4,23.2-23.1C46.7,10.8,36.3,0.4,23.5,0.4z"/>
</g>
<polygon points="36,11.4 36,34.5 32.3,28.3 28.5,22 25.7,25.5 7.9,11.2 7.9,34.4 9.2,34.4 9.2,13.8 25,26.5 22.2,29.9 29.1,32.3 
	36,34.7 36,34.7 37.4,34.7 37.4,11.4 "/>
</svg>
