<?xml version="1.0" encoding="utf-8"?>
<!-- Generator: Adobe Illustrator 22.1.0, SVG Export Plug-In . SVG Version: 6.00 Build 0)  -->
<svg version="1.1" id="Layer_1" xmlns="http://www.w3.org/2000/svg" xmlns:xlink="http://www.w3.org/1999/xlink" x="0px" y="0px"
	 viewBox="0 0 47 47" style="enable-background:new 0 0 47 47;" xml:space="preserve">
<style type="text/css">
	.st0{fill:#EAD724;}
</style>
<path class="st0" d="M0,47l5.3-2.8l6.7-1.4l-2.6-2.6l5-5l1.1-1.1c1.5,1.1,3.3,1.9,5.4,2.2v8.6h3.5v-8.6c1.9-0.3,3.9-1.1,5.4-2.2
	l6.1,6.1l2.5-2.5l-6.1-6.1c1.1-1.5,1.9-3.3,2.2-5.4H43v-3.5h-8.6c-0.3-1.9-1.1-3.9-2.2-5.4l1.1-1.1l5-5L47,2.6L44.6,0l-8.7,8.7l-5,5
	l-1.1,1.1c-1.5-1.1-3.3-1.9-5.4-2.2V4h-3.5v8.6c-1.9,0.3-3.9,1.1-5.4,2.2L9.4,8.7l-2.5,2.5l6.1,6.1c-1.1,1.5-1.9,3.3-2.2,5.4H2.2
	v3.5h8.6c0.3,1.9,1.1,3.9,2.2,5.4l-1.1,1.1l-5,5L4.3,35l-1.5,6.6L0,47z M27.5,17.1l-12.1,12c-2.2-3.3-1.8-7.9,1.1-10.9
	S24.1,14.9,27.5,17.1z M17.9,31.7l12.1-12c2.2,3.3,1.8,7.9-1.1,10.9S21.2,33.9,17.9,31.7z"/>
</svg>
