<?xml version="1.0" encoding="utf-8"?>
<!-- Generator: Adobe Illustrator 22.1.0, SVG Export Plug-In . SVG Version: 6.00 Build 0)  -->
<svg version="1.1" id="Layer_1" xmlns="http://www.w3.org/2000/svg" xmlns:xlink="http://www.w3.org/1999/xlink" x="0px" y="0px"
	 viewBox="0 0 47 47" style="enable-background:new 0 0 47 47;" xml:space="preserve">
<style type="text/css">
	.st0{fill:#FFFFFF;}
</style>
<g id="Layer_1_1_">
	<circle class="st0" cx="23.5" cy="23.5" r="23.3"/>
</g>
<g id="Layer_2_1_">
	<path d="M23.5,47C10.6,47,0,36.6,0,23.5C0,10.6,10.6,0,23.5,0C36.6,0,47,10.6,47,23.5C47,36.6,36.6,47,23.5,47z M23.5,0.4
		C10.6,0.4,0.4,10.6,0.4,23.5s10.4,23.1,23.1,23.1c12.9,0,23.1-10.4,23.1-23.1S36.4,0.4,23.5,0.4z"/>
</g>
<g id="Layer_3">
	<g>
		<path d="M34.9,35.6v-27H12.3v26.9H10V37h2h22.7h2v-1.4H34.9z M13.7,35.6V10h19.7v25.5L13.7,35.6L13.7,35.6z"/>
		<rect x="22.1" y="26.9" width="3" height="7.8"/>
		<rect x="15.9" y="26.9" width="3" height="3.6"/>
		<rect x="28.5" y="26.9" width="3" height="3.6"/>
		<rect x="15.9" y="19.9" width="3" height="3.6"/>
		<rect x="28.5" y="19.9" width="3" height="3.6"/>
		<rect x="22.1" y="19.9" width="3" height="3.6"/>
		<rect x="15.9" y="12.7" width="3" height="3.6"/>
		<rect x="28.5" y="12.7" width="3" height="3.6"/>
		<rect x="22.1" y="12.7" width="3" height="3.6"/>
	</g>
</g>
</svg>
