<?xml version="1.0" encoding="utf-8"?>
<!-- Generator: Adobe Illustrator 22.1.0, SVG Export Plug-In . SVG Version: 6.00 Build 0)  -->
<svg version="1.1" id="Layer_1" xmlns="http://www.w3.org/2000/svg" xmlns:xlink="http://www.w3.org/1999/xlink" x="0px" y="0px"
	 viewBox="0 0 47 47" style="enable-background:new 0 0 47 47;" xml:space="preserve">
<style type="text/css">
	.st0{fill:#FFFFFF;}
</style>
<g id="Layer_2_1_">
	<ellipse class="st0" cx="23.5" cy="23.5" rx="23.3" ry="23.3"/>
</g>
<g id="Layer_1_1_">
	<path d="M23.5,47C10.5,47,0,36.5,0,23.5C0,10.5,10.5,0,23.5,0S47,10.5,47,23.5C47.1,36.5,36.5,47,23.5,47z M23.5,0.4
		C10.7,0.4,0.4,10.7,0.4,23.5s10.4,23.2,23.1,23.2c12.8,0,23.2-10.4,23.2-23.2S36.3,0.4,23.5,0.4z"/>
</g>
<g id="Layer_3">
	<path d="M39.9,28.8V18.6H32l-3.5-4.2h-1.5v4l-3.3-4h-1.5v4.2V19v9.9h-2.9l0,0h-1.8v-0.6l0.4-0.5l-0.2-0.2l-0.2,0.3v-1.7l1.5-0.5
		v-1.5l-7.3-2.5v2.7h-1.4v-2.6H4.6v7v0.5v1.3h14.9h0.3h2.6h17.5h1.6v-1.8H39.9z M29.9,20.5h3.8V23h-3.8V20.5z M29.9,24.3h3.8v2.5
		h-3.8V24.3z M24.7,20.5h3.8V23h-3.8V20.5z M24.7,24.3h3.8v2.5h-3.8V24.3z M17.3,27.8l-0.2-0.3l-0.2,0.2l0.4,0.5v0.6h-3.5v-0.8
		l0.2,0.3l0.2-0.2l-0.4-0.5v-0.5l3.5-1.1V27.8z M12.3,22.3l6.4,2.2v0.9l-6.4,2V22.3z M11.9,25.3v2.6l1.5-0.5v0.3l-0.4,0.5l0.2,0.2
		l0.2-0.3v0.7h-2.7v-3.5L11.9,25.3L11.9,25.3z M5,22.2h5.1v6.6H5V22.2z M19.3,30.1H5v-0.9h5.5h8.8V30.1z"/>
</g>
</svg>
