<?xml version="1.0" encoding="utf-8"?>
<!-- Generator: Adobe Illustrator 22.1.0, SVG Export Plug-In . SVG Version: 6.00 Build 0)  -->
<svg version="1.1" id="Layer_1" xmlns="http://www.w3.org/2000/svg" xmlns:xlink="http://www.w3.org/1999/xlink" x="0px" y="0px"
	 viewBox="0 0 47 47" style="enable-background:new 0 0 47 47;" xml:space="preserve">
<style type="text/css">
	.st0{fill:#FFFFFF;}
</style>
<circle class="st0" cx="23.5" cy="23.5" r="23.5"/>
<path d="M23.5,47C10.5,47,0,36.5,0,23.5S10.5,0,23.5,0S47,10.5,47,23.5S36.5,47,23.5,47z M23.5,0.3C10.7,0.3,0.3,10.7,0.3,23.5
	s10.4,23.2,23.2,23.2s23.2-10.4,23.2-23.2S36.4,0.3,23.5,0.3z"/>
<path d="M41.2,30.3V12.1l-16.5,3.1v2.3h-1.9v2.2h-1.3v-1.1h-1v1.1h-1.3v-7.5H5.8v18.6v1v3.1h35.4v-4.2h-2.8v-0.9L41.2,30.3z
	 M25.7,16.1l14.5-2.7v15.8l-14.4-2.6v-1.1v-7.9v-1.4H25.7z M19.2,30.7v-7.6h1.3v1.1h1v-1.1h1.3v2.3h1.9v2l2.4,0.4v2.9
	C27.1,30.7,19.2,30.7,19.2,30.7z M23.8,18.5h0.9v5.8h-0.9V18.5z M22.8,20.2v2.3h-1.3v-2.3H22.8z M20.5,20.2v2.3h-1.3v-2.3H20.5z
	 M6.9,13.3h11.1v17.5H6.9V13.3z M40.2,33.8H6.9v-2.1h12.3h21V33.8z M37.9,30.7H27.6v-2.8l10.2,1.9V30.7z"/>
</svg>
