<?xml version="1.0" encoding="utf-8"?>
<!-- Generator: Adobe Illustrator 22.1.0, SVG Export Plug-In . SVG Version: 6.00 Build 0)  -->
<svg version="1.1" id="Layer_1" xmlns="http://www.w3.org/2000/svg" xmlns:xlink="http://www.w3.org/1999/xlink" x="0px" y="0px"
	 viewBox="0 0 47 47" style="enable-background:new 0 0 47 47;" xml:space="preserve">
<style type="text/css">
	.st0{fill:#FFFFFF;}
</style>
<g id="Layer_2_1_">
	<ellipse class="st0" cx="23.5" cy="23.5" rx="23.3" ry="23.3"/>
</g>
<g id="Layer_1_1_">
	<path d="M23.5,47C10.5,47,0,36.5,0,23.5C0,10.5,10.5,0,23.5,0S47,10.5,47,23.5C47.1,36.5,36.5,47,23.5,47z M23.5,0.4
		C10.7,0.4,0.4,10.7,0.4,23.5s10.4,23.2,23.1,23.2c12.8,0,23.2-10.4,23.2-23.2S36.3,0.4,23.5,0.4z"/>
</g>
<g id="Layer_3">
	<path d="M24.2,25.8v-8.9h10.1v-0.7c0-6-4.8-10.8-10.8-10.8s-10.8,4.8-10.8,10.8v0.7h10.1v8.9L8,17.5v18.9l15.5-8.7L39,36.3V17.5
		L24.2,25.8z M23.5,6.8c5,0,9.2,3.9,9.5,8.9H14C14.3,10.7,18.5,6.8,23.5,6.8z M9.2,34.2V19.6l13,7.3L9.2,34.2z M37.8,34.2l-13-7.3
		l13-7.3V34.2z"/>
</g>
</svg>
