<?xml version="1.0" encoding="utf-8"?>
<!-- Generator: Adobe Illustrator 22.1.0, SVG Export Plug-In . SVG Version: 6.00 Build 0)  -->
<svg version="1.1" id="Layer_2" xmlns="http://www.w3.org/2000/svg" xmlns:xlink="http://www.w3.org/1999/xlink" x="0px" y="0px"
	 viewBox="0 0 47 47" style="enable-background:new 0 0 47 47;" xml:space="preserve">
<style type="text/css">
	.st0{fill:#FFFFFF;}
</style>
<g>
	<g id="Layer_2_12_">
		<ellipse class="st0" cx="23.5" cy="23.5" rx="23.3" ry="23.3"/>
	</g>
	<g id="Layer_1_13_">
		<path d="M23.5,47C10.6,47,0,36.4,0,23.5S10.6,0,23.5,0S47,10.6,47,23.5S36.5,47,23.5,47z M23.5,0.4C10.8,0.4,0.4,10.8,0.4,23.5
			c0,12.8,10.4,23.1,23.2,23.1s23.2-10.4,23.2-23.1C46.7,10.8,36.3,0.4,23.5,0.4z"/>
	</g>
	<g id="Layer_3_14_">
		<path d="M41.8,30.8H31.4v-7.2h-7.2v-3.2c4.5-0.3,8-4,8-8.6c0-4.7-3.9-8.6-8.6-8.6c-4.8,0-8.6,3.9-8.6,8.6c0,4.5,3.4,8.2,7.8,8.6
			v3.2h-7.2v7.2H5.2c-0.4,0-0.7,0.3-0.7,0.7c0,0.4,0.3,0.7,0.7,0.7h10.6v7.1h15.7v-7h10.4c0.4,0,0.7-0.3,0.7-0.7
			C42.5,31.1,42.2,30.8,41.8,30.8z M16.4,11.8c0-3.9,3.2-7.2,7.2-7.2c4,0,7.2,3.2,7.2,7.2c0,3.9-3.2,7.2-7.2,7.2
			S16.4,15.8,16.4,11.8z M30,25v3.5h-1.5c-0.9,0-1.5,0.7-1.5,1.5v3.3c0,0.3-0.2,0.5-0.5,0.5h-5.6c-0.3,0-0.5-0.2-0.5-0.5v-3.3
			c0-0.9-0.7-1.5-1.5-1.5h-1.6V25H30z M17.1,37.8v-8.3h1.6c0.3,0,0.5,0.2,0.5,0.5v3.3c0,0.9,0.7,1.5,1.5,1.5h5.6
			c0.9,0,1.5-0.7,1.5-1.5v-3.3c0-0.3,0.2-0.5,0.5-0.5H30v8.3H17.1z"/>
	</g>
</g>
</svg>
