<?xml version="1.0" encoding="utf-8"?>
<!-- Generator: Adobe Illustrator 22.1.0, SVG Export Plug-In . SVG Version: 6.00 Build 0)  -->
<svg version="1.1" id="Layer_1" xmlns="http://www.w3.org/2000/svg" xmlns:xlink="http://www.w3.org/1999/xlink" x="0px" y="0px"
	 viewBox="0 0 47 47" style="enable-background:new 0 0 47 47;" xml:space="preserve">
<style type="text/css">
	.st0{fill:#FFFFFF;}
</style>
<g id="Layer_2_1_">
	<ellipse class="st0" cx="23.5" cy="23.5" rx="23.3" ry="23.3"/>
</g>
<g id="Layer_1_1_">
	<path d="M23.5,47C10.6,47,0,36.4,0,23.5S10.6,0,23.5,0S47,10.6,47,23.5S36.5,47,23.5,47z M23.5,0.4C10.8,0.4,0.4,10.8,0.4,23.5
		c0,12.8,10.4,23.1,23.2,23.1s23.2-10.4,23.2-23.1C46.7,10.8,36.3,0.4,23.5,0.4z"/>
</g>
<g id="Layer_3">
	<path d="M41.6,30.7H31.3v-7.1h-7v-3.1c4.4-0.3,7.9-3.9,7.9-8.4c0-4.7-3.8-8.5-8.5-8.5s-8.5,3.8-8.5,8.5c0,4.4,3.4,8,7.7,8.4v3.1h-7
		v7.1H5.5c-0.4,0-0.7,0.3-0.7,0.7c0,0.4,0.3,0.7,0.7,0.7h10.4v7h15.4v-6.9h10.3c0.4,0,0.7-0.3,0.7-0.7C42.2,31,42,30.7,41.6,30.7z
		 M16.5,12c0-3.9,3.2-7.1,7.1-7.1s7.1,3.2,7.1,7.1c0,3.9-3.2,7.1-7.1,7.1S16.5,16,16.5,12z M29.9,37.6H17.2V25h12.7L29.9,37.6
		L29.9,37.6z"/>
	<path d="M23.5,36.6c-2.9,0-5.2-2.3-5.2-5.2s2.3-5.2,5.2-5.2s5.2,2.3,5.2,5.2S26.4,36.6,23.5,36.6z M23.5,26.8c-2.5,0-4.6,2-4.6,4.5
		s2,4.5,4.6,4.5s4.6-2,4.6-4.5S26,26.8,23.5,26.8z"/>
</g>
</svg>
