<?xml version="1.0" encoding="utf-8"?>
<!-- Generator: Adobe Illustrator 22.1.0, SVG Export Plug-In . SVG Version: 6.00 Build 0)  -->
<svg version="1.1" id="Layer_1" xmlns="http://www.w3.org/2000/svg" xmlns:xlink="http://www.w3.org/1999/xlink" x="0px" y="0px"
	 viewBox="0 0 47 47" style="enable-background:new 0 0 47 47;" xml:space="preserve">
<style type="text/css">
	.st0{fill:#FFFFFF;}
	.st1{display:none;}
	.st2{display:inline;}
	.st3{fill:none;stroke:#000000;stroke-width:0.223;stroke-miterlimit:10;stroke-dasharray:1.5034;}
	.st4{fill:none;stroke:#000000;stroke-width:0.223;stroke-miterlimit:10;}
	.st5{fill:none;stroke:#000000;stroke-width:0.223;stroke-miterlimit:10;stroke-dasharray:5.246,2.2483;}
	.st6{fill:none;stroke:#000000;stroke-width:0.223;stroke-miterlimit:10;stroke-dasharray:2.2483,2.2483,5.246,2.2483;}
	.st7{fill:none;stroke:#000000;stroke-width:0.223;stroke-miterlimit:10;stroke-dasharray:1.4956;}
</style>
<g id="Layer_2_1_">
	<circle class="st0" cx="23.5" cy="23.5" r="23.3"/>
</g>
<g id="Layer_1_1_">
	<path d="M23.5,47C10.5,47,0,36.5,0,23.5S10.5,0,23.5,0S47,10.5,47,23.5S36.5,47,23.5,47z M23.5,0.3C10.7,0.3,0.3,10.7,0.3,23.5
		s10.4,23.2,23.2,23.2c12.8,0,23.2-10.4,23.2-23.2S36.3,0.3,23.5,0.3z"/>
</g>
<g id="Layer_3">
	<g id="Field_3_">
		<g>
			<path d="M23.5,6.3c-4.5,0-8.2,3.7-8.2,8.2c0,1.6,0.5,3.2,1.3,4.5c1.5,2.3,6.9,9.2,6.9,9.2s5.5-7,7-9.2c0.8-1.3,1.3-2.8,1.3-4.5
				C31.7,10,28.1,6.3,23.5,6.3z M23.5,19c-2.4,0-4.4-2-4.4-4.4s2-4.4,4.4-4.4s4.4,2,4.4,4.4S25.9,19,23.5,19z"/>
			<polygon points="41.8,34.6 5.2,34.6 11.3,22.3 16.9,22.3 18.6,24.4 12.6,24.4 8.5,32.6 38.5,32.6 34.3,24.4 28.2,24.4 29.9,22.3 
				35.6,22.3 			"/>
		</g>
		<g class="st1">
			<g class="st2">
				<g>
					<path class="st3" d="M8.2,31.3c0.4-0.3,0.9-0.5,1.3-0.8"/>
				</g>
				<g>
					<g>
						<path class="st4" d="M11.2,29.8c0.4-0.1,0.8-0.3,1.3-0.4"/>
						<path class="st5" d="M14.8,29.1C17,29,19,29.5,21,29.9"/>
						<path class="st6" d="M22.2,30.1c3.4,0.7,6.7,1.2,10.3-1.6"/>
						<path class="st4" d="M33.4,27.8c0.3-0.3,0.6-0.6,1-0.9"/>
					</g>
				</g>
				<g>
					<path class="st7" d="M35,26.2c0.3-0.4,0.6-0.8,0.9-1.2"/>
				</g>
			</g>
		</g>
	</g>
</g>
</svg>
