<?xml version="1.0" encoding="utf-8"?>
<!-- Generator: Adobe Illustrator 22.1.0, SVG Export Plug-In . SVG Version: 6.00 Build 0)  -->
<svg version="1.1" id="Layer_3" xmlns="http://www.w3.org/2000/svg" xmlns:xlink="http://www.w3.org/1999/xlink" x="0px" y="0px"
	 viewBox="0 0 55 47" style="enable-background:new 0 0 55 47;" xml:space="preserve">
<style type="text/css">
	.st0{fill:#FFFFFF;}
</style>
<path class="st0" d="M37.4,40.2l-0.3,1.6c-0.5,1.8-2.1,2.9-3.9,2.9H6.5c-2.3,0-4.2-1.8-4.2-4.2V6.2c0-2.3,1.8-4.2,4.2-4.2h26.7
	c2.3,0,4.2,1.8,4.2,4.2v4.9c0.3-0.5,0.8-1.3,1-1.8l1-1.8V6.2c0-3.4-2.9-6.2-6.2-6.2H6.5C3.1,0,0.2,2.9,0.2,6.2v34.5
	c0,3.4,2.9,6.2,6.2,6.2h26.7c3.4,0,6.2-2.9,6.2-6.2v-1L37.4,40.2z"/>
<g>
	<path class="st0" d="M50.9,14c-5.2,6.2-9.6,13.5-13.8,21.6c-1.8-2.3-4.4-4.2-7.8-4.9c5.5-6.8,10.1-14,13.8-21.6
		C46.2,9.9,48.8,11.4,50.9,14z"/>
	<path class="st0" d="M54.8,8l-2.6,4.2c-1.8-2.3-4.4-3.9-7.8-4.9L47,3.1C49.8,3.9,52.7,5.5,54.8,8z"/>
	<g>
		<path class="st0" d="M32.4,34.5c2.3,1.6,3.6,3.1,2.9,3.6c-0.8,0.5-2.9,1.6-4.4,2.3c-1.6,0.8-2.9,0-2.9-1.8c0-1.8,0.3-4.2,0.3-5.2
			C28,32.5,30.1,33,32.4,34.5z"/>
	</g>
</g>
<g>
	<path class="st0" d="M25.9,27c-0.8,1-2.1,1.8-3.4,2.3c-1.3,0.5-3.1,0.8-4.9,0.8c-1.8,0-3.6-0.5-4.9-1.3c-1.3-0.8-2.6-2.1-3.4-3.6
		c-0.8-1.6-1.6-3.4-1.6-5.5v-1.6c0-2.3,0.3-4.2,1-5.7s1.8-2.9,3.1-3.6s3.1-1.3,4.9-1.3c2.6,0,4.7,0.5,6.2,1.8s2.3,3.1,2.6,5.5h-4.2
		c-0.3-1.3-0.8-2.3-1.3-2.9c-0.5-0.5-1.8-0.8-2.9-0.8c-1.6,0-2.9,0.5-3.6,1.6s-1.3,2.9-1.3,5.2v1.3c0,2.3,0.5,4.2,1.3,5.2
		s2.1,1.8,3.9,1.8s2.9-0.3,3.6-1v-3.6h-4.2v-3.4h8.8V27z"/>
</g>
</svg>
