<?xml version="1.0" encoding="utf-8"?>
<!-- Generator: Adobe Illustrator 22.1.0, SVG Export Plug-In . SVG Version: 6.00 Build 0)  -->
<svg version="1.1" id="Layer_2_1_" xmlns="http://www.w3.org/2000/svg" xmlns:xlink="http://www.w3.org/1999/xlink" x="0px" y="0px"
	 viewBox="0 0 55 47" style="enable-background:new 0 0 55 47;" xml:space="preserve">
<style type="text/css">
	.st0{fill:#FFFFFF;}
</style>
<g>
	<path class="st0" d="M37.5,42.1c-0.5,1.8-2.1,2.9-3.9,2.9h-27c-2.3,0-4.2-1.8-4.2-4.2V6.2c0-2.3,1.8-4.2,4.2-4.2h26.7
		c2.3,0,4.2,1.8,4.2,4.2v4.9c0.3-0.5,0.8-1.3,1-1.8l1-1.8V6.2c0-3.4-2.9-6.2-6.2-6.2H6.6C3.2,0,0.4,2.9,0.4,6.2v34.5
		c0,3.4,2.9,6.2,6.2,6.2h26.7c3.4,0,6.2-2.9,6.2-6.2v-1l-2.1,0.5V42.1z"/>
	<path class="st0" d="M43.2,9.1c-3.6,7.5-8.3,14.8-13.8,21.6c3.4,1,6,2.6,7.8,4.9c4.2-8,8.6-15.3,13.8-21.6
		C48.9,11.4,46.3,9.9,43.2,9.1z"/>
	<path class="st0" d="M46.8,2.9L44.2,7c3.4,1,6,2.9,7.8,4.9l2.6-4.2C52.8,5.5,50,3.9,46.8,2.9z"/>
	<polygon class="st0" points="28.1,35.1 27.9,42.1 33.9,38.7 37,37.1 28.4,31.7 	"/>
	<rect x="8.2" y="10.6" class="st0" width="23.6" height="2.6"/>
	<rect x="8.2" y="21" class="st0" width="20.8" height="2.6"/>
	<rect x="8.2" y="31.4" class="st0" width="14.8" height="2.6"/>
</g>
</svg>
