<?xml version="1.0" encoding="utf-8"?>
<!-- Generator: Adobe Illustrator 22.1.0, SVG Export Plug-In . SVG Version: 6.00 Build 0)  -->
<svg version="1.1" id="Layer_1" xmlns="http://www.w3.org/2000/svg" xmlns:xlink="http://www.w3.org/1999/xlink" x="0px" y="0px"
	 viewBox="0 0 47 47" style="enable-background:new 0 0 47 47;" xml:space="preserve">
<style type="text/css">
	.st0{fill:#FFFFFF;}
</style>
<g id="Layer_2_1_">
	<circle class="st0" cx="23.5" cy="23.5" r="23.3"/>
</g>
<g id="Layer_1_1_">
	<path d="M23.5,47C10.5,47,0,36.5,0,23.5S10.5,0,23.5,0S47,10.5,47,23.5S36.5,47,23.5,47z M23.5,0.3C10.7,0.3,0.3,10.7,0.3,23.5
		s10.4,23.2,23.2,23.2s23.2-10.4,23.2-23.2S36.3,0.3,23.5,0.3z"/>
</g>
<g id="Layer_3">
	<g>
		<path d="M23.5,27.6c0,0,5.5-7,7-9.3c0.9-1.3,1.3-2.8,1.3-4.5c0-4.6-3.7-8.3-8.3-8.3s-8.3,3.7-8.3,8.3c0,1.7,0.5,3.2,1.3,4.5
			C18,20.5,23.5,27.6,23.5,27.6z M23.5,9.3c2.5,0,4.5,2,4.5,4.5s-2,4.5-4.5,4.5s-4.5-2-4.5-4.5S21,9.3,23.5,9.3z"/>
		<path d="M35.8,21.6h-5.8l-1.7,2.1h6.2l0.5,1c-0.1,0.1-0.2,0.3-0.3,0.4l0.9,0.8c0,0,0,0,0-0.1l3,6.1H8.3l0.6-1.1
			c0.2-0.1,0.5-0.2,0.7-0.4L9.3,30l3.2-6.2h6.1l-1.8-2.1h-5.7L4.9,34.1h37.1L35.8,21.6z"/>
		<path d="M11.3,29.7c0.9-0.3,1.8-0.5,2.8-0.6l-0.1-1.2c-1,0.1-2,0.3-3,0.7L11.3,29.7z"/>
		<path d="M15.8,29.1c1.3,0.1,2.6,0.3,3.6,0.5l0.2-1.1c-1-0.2-2.4-0.5-3.8-0.5L15.8,29.1z"/>
		<path d="M30.3,28.6c-1.1,0.5-2.2,0.8-3.4,0.9l0.1,1.2c1.4-0.1,2.6-0.4,3.8-1L30.3,28.6z"/>
		<path d="M21.3,29.9c1.3,0.3,2.5,0.6,3.8,0.7l0.1-1.2c-1.2-0.1-2.3-0.3-3.6-0.6L21.3,29.9z"/>
		<path d="M34,25.8c-0.7,0.7-1.4,1.4-2.1,1.9l0.7,1c0.8-0.6,1.5-1.2,2.3-2L34,25.8z"/>
	</g>
</g>
</svg>
