<?xml version="1.0" encoding="utf-8"?>
<!-- Generator: Adobe Illustrator 22.1.0, SVG Export Plug-In . SVG Version: 6.00 Build 0)  -->
<svg version="1.1" id="Layer_1" xmlns="http://www.w3.org/2000/svg" xmlns:xlink="http://www.w3.org/1999/xlink" x="0px" y="0px"
	 viewBox="0 0 47 47" style="enable-background:new 0 0 47 47;" xml:space="preserve">
<style type="text/css">
	.st0{fill:#FFFFFF;}
</style>
<g id="Layer_2_1_">
	<ellipse class="st0" cx="23.5" cy="23.5" rx="23.3" ry="23.3"/>
</g>
<g id="Layer_1_1_">
	<path d="M23.5,47C10.5,47,0,36.5,0,23.5C0,10.5,10.5,0,23.5,0S47,10.5,47,23.5C47.1,36.5,36.5,47,23.5,47z M23.5,0.4
		C10.7,0.4,0.4,10.7,0.4,23.5s10.4,23.2,23.1,23.2c12.8,0,23.2-10.4,23.2-23.2S36.3,0.4,23.5,0.4z"/>
</g>
<g id="Layer_3">
	<path d="M8.6,37V10.1l1.1,0.7c11.9,7.5,21.6,9.4,30.9,6l0.9-0.4v14.3l-0.9-0.4c-9.1-3.4-18.9-1.5-30.9,6L8.6,37z M9.9,12.5v22
		c11.5-6.9,21.1-8.8,30.1-5.8V18.3C31,21.3,21.3,19.5,9.9,12.5z"/>
</g>
</svg>
