<?xml version="1.0" encoding="utf-8"?>
<!-- Generator: Adobe Illustrator 22.1.0, SVG Export Plug-In . SVG Version: 6.00 Build 0)  -->
<svg version="1.1" id="Layer_2_1_" xmlns="http://www.w3.org/2000/svg" xmlns:xlink="http://www.w3.org/1999/xlink" x="0px" y="0px"
	 viewBox="0 0 59 47" style="enable-background:new 0 0 59 47;" xml:space="preserve">
<style type="text/css">
	.st0{fill:#FFFFFF;}
</style>
<path class="st0" d="M52.5,47H6.5c-3.3,0-6-2.7-6-6V3.9C0.4,1.8,2.2,0,4.3,0h15.4c0.6,0,2.1,0,6.3,6.6h26.5c3,0,5.7,2.4,6,5.7V41
	C58.6,44.3,55.9,47,52.5,47z M4.3,3C3.7,3,3.4,3.3,3.4,3.9V41c0,1.5,1.2,3,3,3h46.1c1.5,0,3-1.2,3-3V12.7c0-1.5-1.5-3-3-3H24.2
	L23.9,9c-1.5-2.7-3.6-5.4-4.5-6H4.3z"/>
<rect x="14.6" y="21.4" class="st0" width="29.5" height="2.4"/>
<rect x="14.6" y="30.4" class="st0" width="29.5" height="2.4"/>
</svg>
