<?xml version="1.0" encoding="utf-8"?>
<!-- Generator: Adobe Illustrator 22.1.0, SVG Export Plug-In . SVG Version: 6.00 Build 0)  -->
<svg version="1.1" id="Layer_2" xmlns="http://www.w3.org/2000/svg" xmlns:xlink="http://www.w3.org/1999/xlink" x="0px" y="0px"
	 viewBox="0 0 47 47" style="enable-background:new 0 0 47 47;" xml:space="preserve">
<style type="text/css">
	.st0{fill:#FFFFFF;}
</style>
<g>
	<circle class="st0" cx="23.5" cy="23.5" r="23.3"/>
	<path d="M23.5,47C10.5,47,0,36.5,0,23.5C0,10.5,10.5,0,23.5,0C36.5,0,47,10.5,47,23.5C47,36.5,36.5,47,23.5,47z M23.5,0.5
		c-12.7,0-23,10.3-23,23s10.3,23,23,23s23-10.3,23-23S36.2,0.5,23.5,0.5z"/>
	<g>
		<path d="M41.7,19.2c-1.7,0.8-3.8,1.3-6,1.8c-6.6,1.5-14,3.3-13.3,14.8c-1.9,0.5-3.6,0.4-4.7-0.5l0,1.8c1.6,0.2,3.2,0.1,4.7-0.5
			l0,0l0.3,0.1c2.1,0.6,4,0.8,5.8,0.8c2.7,0,5-0.6,6.9-1.9c5-3.4,6.4-10.7,6.9-15.9l0.1-0.8L41.7,19.2z M34.9,34.9
			c-2.9,1.9-6.8,2.3-11.6,1.1c-0.7-11,6-12.5,12.6-14.1c2-0.5,3.8-0.9,5.5-1.5C40.7,25.3,39.4,31.8,34.9,34.9z"/>
		<path d="M25.1,33.1c0-0.9,0.5-2.3,0.8-3.7c-0.6,1.5-1.1,3-1.2,4.6C25.2,34.1,25.1,33.6,25.1,33.1z"/>
		<path d="M27.1,31c0-0.9,0.5-2.3,0.8-3.7c-0.6,1.5-1.1,3-1.2,4.6C27.1,32,27,31.5,27.1,31z"/>
		<path d="M29.1,29.3c0-0.9,0.5-2.3,0.8-3.7c-0.6,1.5-1.1,3-1.2,4.6C29.1,30.4,29,29.9,29.1,29.3z"/>
		<path d="M31.5,27.7c0-0.8,0.4-2,0.7-3.2c-0.5,1.3-0.9,2.6-1,4C31.5,28.6,31.4,28.2,31.5,27.7z"/>
		<path d="M33.7,26.2c0-0.6,0.3-1.5,0.5-2.3c-0.4,0.9-0.7,1.9-0.8,3C33.7,26.9,33.6,26.6,33.7,26.2z"/>
		<path d="M24.6,34.9c5.1-2.8,10.2-7.6,15.2-13.1c-5.6,5.4-11,10.2-15.7,12.9L24.6,34.9z"/>
		<path d="M27.5,34.4c-0.5-0.1-1-0.3-1.1,0.1c1.6,0.3,3.2,0.2,4.8,0C29.9,34.5,28.4,34.6,27.5,34.4z"/>
		<path d="M30,33.1c-0.5-0.1-1-0.3-1.1,0.1c1.6,0.3,3.2,0.2,4.8,0C32.3,33.2,30.8,33.3,30,33.1z"/>
		<path d="M32.1,31.5c-0.5-0.1-1-0.3-1.1,0.1c1.6,0.3,3.2,0.2,4.8,0C34.4,31.7,32.9,31.7,32.1,31.5z"/>
		<path d="M34.3,29.6c-0.4-0.1-0.9-0.2-0.9,0.1c1.4,0.2,2.8,0.2,4.2,0C36.3,29.7,35,29.8,34.3,29.6z"/>
		<path d="M11.1,9.5L9.8,8.4l0.6,1.5c1,2.9-0.3,5.9-1.7,9.1c-2.3,5.3-4.9,11.2,5.2,16.7l0.2,0.1l0.2-0.2c4.4-3.4,6.7-7.1,6.8-10.8
			C21.3,19,16.2,13.8,11.1,9.5z M14.1,34.9c-9.1-5-6.9-10.1-4.5-15.4c1.2-2.7,2.5-5.6,2-8.4c4.6,4,8.9,8.7,8.8,13.8
			C20.2,28.3,18.1,31.7,14.1,34.9z"/>
		<path d="M15.2,23.9c0.5,2.9,0.2,4.9-0.5,5c-2.2,0.6-4-5.4-3-8.3C9,25.7,9,31.3,14,34.8C17.8,30.9,17.3,28.1,15.2,23.9z"/>
		<path d="M35.9,27.9c-0.3,0-0.6-0.1-0.6,0.1c0.9,0.1,1.8,0,2.6-0.2C37.2,27.8,36.4,27.9,35.9,27.9z"/>
	</g>
</g>
</svg>
