<?xml version="1.0" encoding="utf-8"?>
<!-- Generator: Adobe Illustrator 22.1.0, SVG Export Plug-In . SVG Version: 6.00 Build 0)  -->
<svg version="1.1" id="Layer_1" xmlns="http://www.w3.org/2000/svg" xmlns:xlink="http://www.w3.org/1999/xlink" x="0px" y="0px"
	 viewBox="0 0 47 47" style="enable-background:new 0 0 47 47;" xml:space="preserve">
<style type="text/css">
	.st0{fill:#FF0000;}
</style>
<path class="st0" d="M47,25.5v-4.1H37c-0.3-2.2-1.1-4.3-2.5-6.2l7.1-7l-2.9-2.9l-7.1,7c-1.8-1.4-4-2.2-6.2-2.5V0h-4v9.9
	c-2.2,0.3-4.3,1.1-6.2,2.5l-6.9-7L5.4,8.3l7,7c-1.4,1.8-2.2,4-2.5,6.2H0v4h10c0.3,2.2,1.1,4.3,2.5,6.2l-7,7l2.9,2.9l7.1-7
	c1.8,1.4,4,2.2,6.2,2.5V47h4v-9.9c2.2-0.3,4.3-1.1,6.2-2.5l7.1,7l2.9-2.9l-7-7c1.4-1.8,2.2-4,2.5-6.2C37.2,25.5,47,25.5,47,25.5z"/>
</svg>
