<?xml version="1.0" encoding="utf-8"?>
<!-- Generator: Adobe Illustrator 22.1.0, SVG Export Plug-In . SVG Version: 6.00 Build 0)  -->
<svg version="1.1" id="Layer_1" xmlns="http://www.w3.org/2000/svg" xmlns:xlink="http://www.w3.org/1999/xlink" x="0px" y="0px"
	 viewBox="0 0 47 47" style="enable-background:new 0 0 47 47;" xml:space="preserve">
<style type="text/css">
	.st0{fill:#FF0000;}
</style>
<path class="st0" d="M44.4,41.9l-1.5-6.7l-2.6,2.6l-6.1-6.1c1.1-1.5,1.9-3.3,2.2-5.4h8.6v-3.5h-8.6c-0.3-1.9-1.1-3.9-2.2-5.4
	l6.1-6.1l-2.5-2.5L31.6,15c-1.5-1.1-3.3-1.9-5.4-2.2V4.2h-3.5v8.6c-1.9,0.3-3.9,1.1-5.4,2.2l-6.1-6.2L2.5,0L0,2.5l8.7,8.7l6.1,6.1
	c-1.1,1.5-1.9,3.3-2.2,5.4H4v3.5h8.6c0.3,1.9,1.1,3.9,2.2,5.4l-6.1,6.1l2.5,2.5l6.1-6.1c1.5,1.1,3.3,1.9,5.4,2.2v8.6h3.5v-8.6
	c1.9-0.3,3.9-1.1,5.4-2.2l6.1,6.1l-2.6,2.6l6.7,1.4L47,47L44.4,41.9z M18.3,30.6c-3.5-3.5-3.5-8.9,0-12.3s8.9-3.5,12.3,0
	s3.5,8.9,0,12.3S21.8,34.1,18.3,30.6z"/>
</svg>
