<?xml version="1.0" encoding="utf-8"?>
<!-- Generator: Adobe Illustrator 22.0.1, SVG Export Plug-In . SVG Version: 6.00 Build 0)  -->
<svg version="1.1" id="Layer_3" xmlns="http://www.w3.org/2000/svg" xmlns:xlink="http://www.w3.org/1999/xlink" x="0px" y="0px"
	 viewBox="0 0 11.7 11.7" style="enable-background:new 0 0 11.7 11.7;" xml:space="preserve">
<style type="text/css">
	.st0{fill:#FF0000;}
</style>
<g>
	<title>GasOilIcon</title>
	<path id="GAS_OIL_1_" class="st0" d="M0,5.4v1h2.3C2.4,7,2.6,7.5,3,8L1.4,9.6L2,10.3l1.6-1.6c0.5,0.4,1.1,0.6,1.7,0.7v2.3h1V9.4
		C6.9,9.4,7.5,9.1,8,8.7l1.6,1.6l0.7-0.7L8.7,8.1C9.1,7.6,9.3,7,9.4,6.3h2.3v-1H9.4C9.4,4.8,9.1,4.2,8.7,3.7l1.6-1.6L9.7,1.4L8.1,3
		C7.6,2.6,7,2.3,6.3,2.3V0h-1v2.3C4.8,2.3,4.2,2.6,3.7,3L2.1,1.4L1.4,2.1L3,3.7C2.6,4.2,2.3,4.8,2.3,5.4L0,5.4z"/>
</g>
</svg>
