<?xml version="1.0" encoding="utf-8"?>
<!-- Generator: Adobe Illustrator 22.1.0, SVG Export Plug-In . SVG Version: 6.00 Build 0)  -->
<svg version="1.1" id="Layer_3" xmlns="http://www.w3.org/2000/svg" xmlns:xlink="http://www.w3.org/1999/xlink" x="0px" y="0px"
	 viewBox="0 0 47 47" style="enable-background:new 0 0 47 47;" xml:space="preserve">
<style type="text/css">
	.st0{fill:#FFFFFF;}
	.st1{fill:#383838;}
</style>
<g id="Tree_Blue">
	<path class="st0" d="M43.6,47H3.4C1.5,47,0,45.3,0,43.2V3.8C0,1.7,1.5,0,3.4,0h40.1C45.5,0,47,1.7,47,3.8V43
		C47,45.3,45.5,47,43.6,47z"/>
	<path class="st1" d="M27,19.7c-0.9,0-1.7,0.7-1.7,1.7v5c0,0.9,0.7,1.7,1.7,1.7h10.4c0.9,0,1.7-0.7,1.7-1.7v-5
		c0-0.9-0.7-1.7-1.7-1.7h-4.4V9.7h-11V8c0-0.9-0.7-1.7-1.7-1.7H9.9C9.1,6.3,8.2,7,8.2,8v5c0,0.9,0.7,1.7,1.7,1.7h4.2l0.2,22.8h11
		v1.7c0,0.9,0.7,1.7,1.7,1.7h10.4c0.9,0,1.7-0.7,1.7-1.7v-5c0-0.9-0.7-1.7-1.7-1.7H27c-0.9,0-1.7,0.7-1.7,1.7V36h-9.1L16,14.8h4.4
		c0.9,0,1.7-0.7,1.7-1.7v-1.7h9.2v8.2H27V19.7z"/>
</g>
</svg>
