<?xml version="1.0" encoding="utf-8"?>
<!-- Generator: Adobe Illustrator 22.1.0, SVG Export Plug-In . SVG Version: 6.00 Build 0)  -->
<svg version="1.1" id="Layer_2_1_" xmlns="http://www.w3.org/2000/svg" xmlns:xlink="http://www.w3.org/1999/xlink" x="0px" y="0px"
	 viewBox="0 0 47 47" style="enable-background:new 0 0 47 47;" xml:space="preserve">
<style type="text/css">
	.st0{fill:#FFFFFF;}
	.st1{fill:#383838;}
</style>
<g>
	<g>
		<path class="st0" d="M43.6,47H3.4C1.5,47,0,45.3,0,43.2V3.8C0,1.7,1.5,0,3.4,0h40.1C45.5,0,47,1.7,47,3.8V43
			C47,45.3,45.5,47,43.6,47z"/>
		<circle class="st1" cx="24" cy="23.7" r="18.6"/>
		<g>
			<path class="st0" d="M18.5,24.9c-0.3-1.2,0.2-1.9,0.9-2.6c1.4-0.3,2.4,0,3.3,1.6c-0.2-1,0.2-2.1,1.4-3c0.3-1,1.2-2.1,2.4-3.1
				v-1.4l1.2-0.7c-0.7-0.9-1.4-1.6-2.6-2.1c-0.3-0.5-0.9-0.7-1.4-0.3c0.7,0.9,0.3,1.9-0.3,3c-1-0.3-1.9-1-2.4-2.3
				c-0.2-0.9,0.7-1.7,2.1-2.6l-2.8-0.2l-2.4-1.7l-1.9-1.7C15,8.4,13.6,9.4,12.7,11c0.5,0.2,0.9,0.3,1.7,0.3
				c-0.5,1.2-0.9,2.3-0.5,3.5l0.7,0.9c-1,1-1.6,2.4-1.4,3.8c0.9,2.3,1.7,4.2,2.8,5.4c1.2,1.7,4.2,2.8,7,4l-1.6-2.4L18.5,24.9z"/>
			<path class="st0" d="M26.1,9.4c0.2,1.7,1.2,3,3,3.8l0.9-3.5c-1.6-1.6-3.1-2.8-4.9-3c-0.9,0.5-1,1.2-1,2.1
				C24.7,9.4,25.4,9.6,26.1,9.4z"/>
			<path class="st0" d="M31.7,29.8L30.1,28c-1.2-1-2.8-1.6-4.7-1c-1.6,1.4-2.3,3-2.4,4.5c0.9,1.7,1.9,3,3.3,3.7
				c-0.9,2.4-1.2,4.5-1,6.4c2.6-0.9,4.9-2.1,6.1-4c1.7-0.7,3-1.7,2.8-3.3c1.6-1.4,2.1-2.6,1.6-4C34.3,29.4,32.7,28.9,31.7,29.8z"/>
			<path class="st0" d="M34.5,10.8c-0.2,2.4,0.2,4.7,1.9,6.4c-0.5,1.9-0.5,4,0,5.9c0.3,1.6,0.9,2.6,1.7,2.4c0.9,0,1.7-0.3,2.3-1.4
				C40.4,16.9,38.1,12.7,34.5,10.8z"/>
			<path class="st0" d="M21.8,9.9L23,9.6c0.3-1,0-1.6-0.9-2.1c-0.9,0.2-1.7,0-2.8-0.7C19,7.3,19,7.8,19,8.5
				C19.8,9.6,20.7,9.9,21.8,9.9z"/>
		</g>
	</g>
</g>
</svg>
