<?xml version="1.0" encoding="utf-8"?>
<!-- Generator: Adobe Illustrator 22.1.0, SVG Export Plug-In . SVG Version: 6.00 Build 0)  -->
<svg version="1.1" id="Layer_1" xmlns="http://www.w3.org/2000/svg" xmlns:xlink="http://www.w3.org/1999/xlink" x="0px" y="0px"
	 viewBox="0 0 47 47" style="enable-background:new 0 0 47 47;" xml:space="preserve">
<style type="text/css">
	.st0{fill:#FFFFFF;}
</style>
<g id="Layer_2_1_">
	<circle class="st0" cx="23.5" cy="23.5" r="23.3"/>
</g>
<g id="Layer_1_1_">
	<path d="M23.5,47C10.5,47,0,36.4,0,23.5C0,10.5,10.5,0,23.5,0S47,10.6,47,23.5S36.4,47,23.5,47z M23.5,0.3
		C10.7,0.3,0.3,10.7,0.3,23.5s10.4,23.2,23.2,23.2s23.2-10.4,23.2-23.2S36.3,0.3,23.5,0.3z"/>
</g>
<g id="Layer_3">
	<g>
		<path d="M22.2,15.3c2.3,0,4.3-1.9,4.3-4.3s-1.9-4.3-4.3-4.3S18,8.7,18,11.1C18,13.5,19.9,15.3,22.2,15.3z M20.5,13.7l1.8-1.9
			l1.9,1.8c-0.6,0.4-1.2,0.6-1.9,0.6C21.6,14.3,20.9,14.1,20.5,13.7z M25.3,11.1c0,0.6-0.2,1.2-0.5,1.8l-1.9-1.8l1.8-1.8
			C25.1,9.7,25.3,10.4,25.3,11.1z M24,8.5l-1.8,1.8l-1.8-1.8c0.6-0.4,1.2-0.6,1.8-0.6C22.9,7.9,23.4,8.2,24,8.5z M19.6,9.4l1.8,1.8
			l-1.8,1.9c-0.4-0.6-0.6-1.2-0.6-1.8C19.1,10.5,19.2,9.9,19.6,9.4z"/>
		<path d="M32.6,8.3h-6.5l0.2,0.4c1.1,1.8,0.8,3.8-0.1,4.8l-0.3,0.4h6.7V8.3z M32,13.5h-5.1c0.7-1.2,1-2.9,0.1-4.6H32
			C32,8.9,32,13.5,32,13.5z"/>
		<path d="M11.5,18.5h3c0.7,0,1.4-0.6,1.4-1.4s-0.6-1.4-1.4-1.4h-3c-0.7,0-1.4,0.6-1.4,1.4S10.7,18.5,11.5,18.5z M11.5,16.4h3
			c0.5,0,0.8,0.3,0.8,0.8c0,0.5-0.3,0.8-0.8,0.8h-3c-0.5,0-0.8-0.3-0.8-0.8C10.7,16.8,11,16.4,11.5,16.4z"/>
		<path d="M14.8,18.8h-3.8v1.4h3.8V18.8z M14.4,19.7h-2.7v-0.4h2.7V19.7z"/>
		<path d="M12,15.6h2.7c0.4,0,0.9,0.2,1.1,0.6l0.3,0.6l0.2-0.6c0.2-0.6,1.1-1.6,2-1.8l0.4-0.1l-0.3-0.3c-0.6-0.7-0.9-1.6-1-2.5l0,0
			c0-0.4,0-0.8,0.2-1.2l0.1-0.5l-0.5,0.2c-2.6,0.7-4.6,2.6-5.8,5.5l-0.2,0.4h0.6C12,15.6,12,15.6,12,15.6z M17.1,10.4
			C17,10.7,17,11.1,17,11.3c0,0.9,0.3,1.8,0.8,2.5c-0.7,0.3-1.4,1-1.8,1.7c-0.3-0.3-0.9-0.5-1.2-0.5h-2.6
			C13.3,12.8,15,11.1,17.1,10.4z"/>
		<path d="M22.2,25.4c2.3,0,4.3-1.9,4.3-4.3s-1.9-4.3-4.3-4.3S18,18.8,18,21.2C18,23.5,19.9,25.4,22.2,25.4z M20.5,23.8l1.8-1.9
			l1.9,1.8c-0.6,0.4-1.2,0.6-1.9,0.6C21.6,24.4,20.9,24.1,20.5,23.8z M25.3,21.2c0,0.6-0.2,1.2-0.5,1.8l-1.9-1.8l1.8-1.8
			C25.1,19.8,25.3,20.5,25.3,21.2z M24,18.5l-1.8,1.8l-1.8-1.8c0.6-0.4,1.2-0.6,1.8-0.6C22.9,18,23.4,18.2,24,18.5z M19.6,19.4
			l1.8,1.8l-1.8,1.9c-0.4-0.6-0.6-1.2-0.6-1.8C19.1,20.5,19.2,19.9,19.6,19.4z"/>
		<path d="M32.6,18.4h-6.5l0.2,0.4c1.1,1.8,0.8,3.8-0.1,4.8l-0.4,0.5h6.7L32.6,18.4L32.6,18.4z M32,23.5h-5.1c0.7-1.2,1-2.9,0.1-4.6
			H32C32,18.9,32,23.5,32,23.5z"/>
		<path d="M11.5,28.6h3c0.7,0,1.4-0.6,1.4-1.4c0-0.7-0.6-1.4-1.4-1.4h-3c-0.7,0-1.4,0.6-1.4,1.4C10.1,28,10.7,28.6,11.5,28.6z
			 M11.5,26.5h3c0.5,0,0.8,0.3,0.8,0.8c0,0.5-0.3,0.8-0.8,0.8h-3c-0.5,0-0.8-0.3-0.8-0.8C10.7,26.8,11,26.5,11.5,26.5z"/>
		<path d="M11.1,30.3h3.8v-1.4h-3.8V30.3z M11.6,29.4h2.7v0.4h-2.7V29.4z"/>
		<path d="M12,25.6h2.7c0.4,0,0.9,0.2,1.1,0.6l0.3,0.6l0.2-0.6c0.2-0.6,1.1-1.6,2-1.8l0.4-0.1l-0.3-0.3c-0.6-0.7-0.9-1.6-1-2.5l0,0
			c0-0.4,0-0.8,0.2-1.2l0.1-0.5l-0.5,0.2c-2.6,0.7-4.6,2.6-5.8,5.5l-0.2,0.4h0.6C12,25.6,12,25.6,12,25.6z M17.1,20.5
			C17,20.8,17,21.1,17,21.3c0,0.9,0.3,1.8,0.8,2.5c-0.7,0.3-1.4,1-1.8,1.7c-0.3-0.3-0.9-0.5-1.2-0.5h-2.6
			C13.3,22.8,15,21.2,17.1,20.5z"/>
		<path d="M22.2,35.5c2.3,0,4.3-1.9,4.3-4.3c0-2.3-1.9-4.3-4.3-4.3S18,28.9,18,31.2C18,33.6,19.9,35.5,22.2,35.5z M20.5,33.8
			l1.8-1.9l1.9,1.8c-0.6,0.4-1.2,0.6-1.9,0.6C21.6,34.4,20.9,34.2,20.5,33.8z M25.3,31.3c0,0.6-0.2,1.2-0.5,1.8l-1.9-1.8l1.8-1.8
			C25.1,29.8,25.3,30.6,25.3,31.3z M24,28.6l-1.8,1.8l-1.8-1.8c0.6-0.4,1.2-0.6,1.8-0.6S23.4,28.2,24,28.6z M19.6,29.5l1.8,1.8
			l-1.8,1.9C19.2,32.6,19,32,19,31.4C19.1,30.6,19.2,30,19.6,29.5z"/>
		<path d="M32.6,28.4h-6.5l0.2,0.4c1.1,1.8,0.8,3.8-0.1,4.8L25.9,34h6.7V28.4z M32,33.5h-5.1c0.7-1.2,1-2.9,0.1-4.6H32
			C32,29,32,33.5,32,33.5z"/>
		<path d="M14.5,36h-3c-0.7,0-1.4,0.6-1.4,1.4s0.6,1.4,1.4,1.4h3c0.7,0,1.4-0.6,1.4-1.4S15.2,36,14.5,36z M14.5,38.1h-3
			c-0.5,0-0.8-0.3-0.8-0.8s0.3-0.8,0.8-0.8h3c0.5,0,0.8,0.3,0.8,0.8S14.9,38.1,14.5,38.1z"/>
		<path d="M11.1,40.3h3.8v-1.4h-3.8V40.3z M11.6,39.5h2.7v0.4h-2.7V39.5z"/>
		<path d="M18.4,33.8c-0.6-0.7-0.9-1.5-1-2.5c0-0.4,0-0.8,0.2-1.2l0.1-0.5l-0.5,0.2c-2.6,0.7-4.6,2.6-5.8,5.5l-0.2,0.4h0.6H12h2.7
			c0.4,0,0.9,0.2,1.1,0.6l0.3,0.6l0.2-0.6c0.2-0.6,1-1.6,2-1.8l0.4-0.1L18.4,33.8z M16,35.6c-0.3-0.3-0.9-0.5-1.2-0.5h-2.6
			c1.1-2.2,2.7-3.8,4.9-4.6c-0.1,0.3-0.1,0.6-0.1,0.9c0,0.9,0.3,1.8,0.8,2.5C17.1,34.2,16.4,35,16,35.6z"/>
		<path d="M33.5,5.5c-1,0-1.9,0.9-1.9,1.9v0.5H33v6.4h-1.4V18H33v6.4h-1.4V28h1.3v6.4h-1.2v2.1l-10.9,1.8l-2.2,1.3v0.7h16.9v-0.2
			v-1.8V7.5C35.5,6.4,34.6,5.5,33.5,5.5z"/>
	</g>
</g>
</svg>
