<?xml version="1.0" encoding="utf-8"?>
<!-- Generator: Adobe Illustrator 22.1.0, SVG Export Plug-In . SVG Version: 6.00 Build 0)  -->
<svg version="1.1" id="Layer_1" xmlns="http://www.w3.org/2000/svg" xmlns:xlink="http://www.w3.org/1999/xlink" x="0px" y="0px"
	 viewBox="0 0 47 47" style="enable-background:new 0 0 47 47;" xml:space="preserve">
<style type="text/css">
	.st0{fill:#FFFFFF;}
</style>
<g>
	<path class="st0" d="M23.5,47C10.6,47,0,36.4,0,23.5S10.6,0,23.5,0S47,10.6,47,23.5S36.4,47,23.5,47z M23.5,1.5
		c-12.1,0-22,9.9-22,22s9.9,22,22,22s22-9.9,22-22S35.6,1.5,23.5,1.5z"/>
	<g>
		<path class="st0" d="M20.3,30.3c0-1.8,0.2-3.2,0.6-4.2s1.4-2.3,2.6-3.5c1.4-1.2,2.1-2.1,2.4-2.7c0.6-0.8,0.8-1.7,0.8-2.7
			c0-1.2-0.3-2.3-0.9-2.9s-1.5-1.1-2.7-1.1s-2.1,0.3-2.7,0.9c-0.6,0.6-1.1,1.5-1.1,2.7h-4.9c0-2.4,0.9-4.2,2.4-5.6
			c1.5-1.5,3.6-2.1,6.4-2.1s4.9,0.8,6.4,2.1s2.3,3.3,2.3,5.8c0,2.3-1.1,4.4-3,6.5l-2.6,2.3c-0.9,1.1-1.4,2.4-1.4,4.4h-4.5V30.3z
			 M19.9,36.5c0-0.8,0.3-1.4,0.8-2c0.5-0.5,1.2-0.8,2-0.8c0.9,0,1.5,0.3,2,0.8s0.8,1.2,0.8,2s-0.3,1.4-0.8,1.8
			c-0.5,0.5-1.2,0.8-2.1,0.8c-0.9,0-1.5-0.3-2.1-0.8C20.2,37.9,19.9,37.3,19.9,36.5z"/>
	</g>
</g>
</svg>
