<?xml version="1.0" encoding="utf-8"?>
<!-- Generator: Adobe Illustrator 22.1.0, SVG Export Plug-In . SVG Version: 6.00 Build 0)  -->
<svg version="1.1" id="Layer_1" xmlns="http://www.w3.org/2000/svg" xmlns:xlink="http://www.w3.org/1999/xlink" x="0px" y="0px"
	 viewBox="0 0 47 47" style="enable-background:new 0 0 47 47;" xml:space="preserve">
<style type="text/css">
	.st0{display:none;fill:#FFFFFF;}
	.st1{fill:#FFFFFF;}
</style>
<g>
	<polygon class="st0" points="12.4,30.1 5.9,23.5 19,23.5 	"/>
	<g>
		<polygon class="st1" points="23.7,14.1 23.7,26.2 33.9,32.3 35.5,29.7 26.7,24.5 26.7,14.1 		"/>
		<path class="st1" d="M26,2.8c-11.6,0-21,9.4-21,21H0l6.3,7.7l6.3-7.7H8c0-9.9,8.1-18,18-18c9.9,0,18,8.1,18,18s-8.1,18-18,18
			c-4.7,0-9.2-1.8-12.6-5.1l-2.1,2.2c4,3.9,9.2,6,14.7,6c11.6,0,21-9.4,21-21C47,12.2,37.6,2.8,26,2.8z"/>
	</g>
</g>
</svg>
