<?xml version="1.0" encoding="utf-8"?>
<!-- Generator: Adobe Illustrator 22.1.0, SVG Export Plug-In . SVG Version: 6.00 Build 0)  -->
<svg version="1.1" id="Layer_3" xmlns="http://www.w3.org/2000/svg" xmlns:xlink="http://www.w3.org/1999/xlink" x="0px" y="0px"
	 viewBox="0 0 47 47" style="enable-background:new 0 0 47 47;" xml:space="preserve">
<style type="text/css">
	.st0{fill:#FFFFFF;}
</style>
<g>
	<path class="st0" d="M29.7,0h-25v47h36.4V9.6L29.7,0z M39.5,45.4H6.3V1.8h22.9l10.3,8.7C39.5,10.5,39.5,45.4,39.5,45.4z"/>
	<rect x="15.2" y="20.2" class="st0" width="14" height="1.6"/>
	<rect x="15.2" y="26.2" class="st0" width="14" height="1.6"/>
	<path class="st0" d="M10.4,24.5c0,6.4,5.1,11.5,11.5,11.5c2.1,0,4.1-0.5,5.7-1.6l6.4,8l2.5-2l-6.4-8c2-2.1,3.2-4.8,3.2-8
		c0-6.4-5.1-11.5-11.5-11.5C15.5,13.1,10.4,18.3,10.4,24.5z M31.9,24.5c0,5.5-4.4,9.9-9.9,9.9S12,30,12,24.5s4.4-9.9,9.9-9.9
		S31.9,19.2,31.9,24.5z"/>
</g>
</svg>
