<?xml version="1.0" encoding="utf-8"?>
<!-- Generator: Adobe Illustrator 22.1.0, SVG Export Plug-In . SVG Version: 6.00 Build 0)  -->
<svg version="1.1" id="Layer_1" xmlns="http://www.w3.org/2000/svg" xmlns:xlink="http://www.w3.org/1999/xlink" x="0px" y="0px"
	 viewBox="0 0 47 47" style="enable-background:new 0 0 47 47;" xml:space="preserve">
<style type="text/css">
	.st0{fill:#FFFFFF;}
</style>
<g id="Layer_2_1_">
	<ellipse class="st0" cx="23.5" cy="23.5" rx="23.3" ry="23.3"/>
</g>
<g id="Layer_1_1_">
	<path d="M23.5,47C10.5,47,0,36.5,0,23.5C0,10.5,10.5,0,23.5,0S47,10.5,47,23.5C47.1,36.5,36.5,47,23.5,47z M23.5,0.4
		C10.7,0.4,0.4,10.7,0.4,23.5s10.4,23.2,23.1,23.2c12.8,0,23.2-10.4,23.2-23.2S36.3,0.4,23.5,0.4z"/>
</g>
<g id="Layer_3">
	<g id="Level_Gauge">
		<path d="M23.8,34.6c-6.1,0-11-5-11-11s5-11,11-11s11,5,11,11S29.9,34.6,23.8,34.6z M23.8,13.4c-5.6,0-10.1,4.5-10.1,10.1
			s4.5,10.1,10.1,10.1s10.1-4.5,10.1-10.1C33.9,18,29.4,13.4,23.8,13.4z"/>
		<path d="M23.8,9.2c-1.8,0-3.2-1.5-3.2-3.2s1.5-3.2,3.2-3.2C25.6,2.8,27,4.3,27,6S25.6,9.2,23.8,9.2z M23.8,3.7
			c-1.3,0-2.3,1-2.3,2.3s1,2.3,2.3,2.3s2.3-1,2.3-2.3S25.1,3.7,23.8,3.7z"/>
		<path d="M23.8,44.2c-1.8,0-3.2-1.5-3.2-3.2s1.5-3.2,3.2-3.2c1.8,0,3.2,1.5,3.2,3.2C27,42.8,25.6,44.2,23.8,44.2z M23.8,38.8
			c-1.3,0-2.3,1-2.3,2.3s1,2.3,2.3,2.3s2.3-1,2.3-2.3S25.1,38.8,23.8,38.8z"/>
		<rect x="23.3" y="5.9" width="1" height="7"/>
		<rect x="23.3" y="34.1" width="1" height="7"/>
		<g>
			<g>
				<path d="M22.9,27.3h-5.5v-7.5h2v6.1h3.5V27.3z"/>
				<path d="M30,21.2h-2.4v6.1h-2v-6.1h-2.4v-1.5H30C30,19.8,30,21.2,30,21.2z"/>
			</g>
		</g>
	</g>
</g>
</svg>
