<?xml version="1.0" encoding="utf-8"?>
<!-- Generator: Adobe Illustrator 22.1.0, SVG Export Plug-In . SVG Version: 6.00 Build 0)  -->
<svg version="1.1" id="Layer_1" xmlns="http://www.w3.org/2000/svg" xmlns:xlink="http://www.w3.org/1999/xlink" x="0px" y="0px"
	 viewBox="0 0 47 47" style="enable-background:new 0 0 47 47;" xml:space="preserve">
<style type="text/css">
	.st0{fill:#FFFFFF;}
</style>
<g id="Layer_2_1_">
	<ellipse class="st0" cx="23.5" cy="23.5" rx="23.3" ry="23.3"/>
</g>
<g id="Layer_1_1_">
	<path d="M23.5,47C10.5,47,0,36.5,0,23.5C0,10.5,10.5,0,23.5,0S47,10.5,47,23.5C47.1,36.5,36.5,47,23.5,47z M23.5,0.4
		C10.7,0.4,0.4,10.7,0.4,23.5s10.4,23.2,23.1,23.2c12.8,0,23.2-10.4,23.2-23.2S36.3,0.4,23.5,0.4z"/>
</g>
<g id="Layer_3">
	<g>
		<path d="M34.8,23.5c0-5.9-4.7-10.8-10.6-11V9.2C25.8,8.9,27,7.6,27,6c0-1.8-1.5-3.2-3.2-3.2c-1.8,0-3.2,1.4-3.2,3.2
			c0,1.6,1.2,3,2.8,3.2v3.3c-5.9,0.3-10.6,5.1-10.6,11s4.7,10.8,10.6,11v3.3c-1.6,0.3-2.8,1.6-2.8,3.2c0,1.8,1.5,3.2,3.2,3.2
			c1.8,0,3.2-1.5,3.2-3.2c0-1.6-1.2-3-2.8-3.2v-3.3C30.2,34.3,34.8,29.4,34.8,23.5z M21.5,6c0-1.3,1-2.3,2.3-2.3s2.3,1,2.3,2.3
			c0,1.1-0.8,2-1.8,2.2V5.9h-1v2.3C22.3,8,21.5,7.1,21.5,6z M13.7,23.5c0-5.6,4.5-10.1,10.1-10.1S33.9,18,33.9,23.5
			s-4.5,10.1-10.1,10.1S13.7,29.1,13.7,23.5z M26.1,41c0,1.3-1,2.3-2.3,2.3c-1.3,0-2.3-1-2.3-2.3c0-1.1,0.8-2,1.8-2.2v2.3h1v-2.3
			C25.3,39,26.1,39.9,26.1,41z"/>
		<polygon points="19.4,19.7 17.5,19.7 17.5,27.3 22.9,27.3 22.9,25.8 19.4,25.8 		"/>
		<path d="M27.8,27.4c0.6,0,1.1-0.1,1.7-0.2c0.6-0.2,1-0.3,1.4-0.4v-3.7h-3.5v1.4h1.5V26c-0.1,0-0.2,0-0.3,0s-0.2,0-0.3,0
			c-0.9,0-1.5-0.2-2-0.7c-0.5-0.5-0.7-1.1-0.7-1.9c0-0.4,0.1-0.8,0.2-1.1c0.1-0.3,0.3-0.6,0.5-0.8c0.2-0.2,0.5-0.4,0.8-0.5
			c0.3-0.1,0.6-0.2,1-0.2c0.3,0,0.6,0.1,0.9,0.1c0.3,0.1,0.5,0.2,0.7,0.3c0.2,0.1,0.4,0.2,0.5,0.4c0.2,0.2,0.3,0.3,0.4,0.3h0.2v-1.8
			c-0.6-0.3-1.1-0.5-1.5-0.6c-0.5-0.1-0.9-0.2-1.4-0.2c-1.3,0-2.3,0.4-3.1,1.1c-0.8,0.7-1.1,1.7-1.1,2.8c0,1.2,0.4,2.2,1.1,2.9
			C25.5,27.1,26.5,27.4,27.8,27.4z"/>
	</g>
</g>
</svg>
