<?xml version="1.0" encoding="utf-8"?>
<!-- Generator: Adobe Illustrator 22.1.0, SVG Export Plug-In . SVG Version: 6.00 Build 0)  -->
<svg version="1.1" id="Layer_1" xmlns="http://www.w3.org/2000/svg" xmlns:xlink="http://www.w3.org/1999/xlink" x="0px" y="0px"
	 viewBox="0 0 47 47" style="enable-background:new 0 0 47 47;" xml:space="preserve">
<style type="text/css">
	.st0{fill:#FFFFFF;}
</style>
<circle class="st0" cx="23.5" cy="23.5" r="23.5"/>
<path d="M23.5,47C10.5,47,0,36.5,0,23.5S10.5,0,23.5,0S47,10.5,47,23.5S36.5,47,23.5,47z M23.5,0.3C10.7,0.3,0.3,10.7,0.3,23.5
	s10.4,23.2,23.2,23.2s23.2-10.4,23.2-23.2S36.4,0.3,23.5,0.3z"/>
<g>
	<g>
		<polygon points="21,27.1 15.6,27.1 15.6,26 20.4,26 		"/>
		<rect x="15.6" y="13.5" width="15.1" height="1.1"/>
		<polygon points="15.6,19.8 24.4,19.8 22.3,20.9 15.6,20.9 		"/>
		<polygon points="30.6,19.8 30.6,20.5 30.3,20.9 25.4,20.9 24.8,19.8 		"/>
	</g>
	<path d="M33.9,27.6v9c0,0.8-0.7,1.4-1.5,1.4h-19c-0.8,0-1.5-0.6-1.5-1.4V10.8c0-0.8,0.7-1.4,1.5-1.4h19c0.8,0,1.5,0.6,1.5,1.4v5.2
		l1.2-1.5v-3.7c0-1.4-1.2-2.6-2.7-2.6h-19c-1.5,0-2.7,1.1-2.7,2.6v25.8c0,1.4,1.2,2.6,2.7,2.6h19c1.5,0,2.7-1.1,2.7-2.6V26
		L33.9,27.6z"/>
	<polygon points="27.2,31.7 22.6,24 23.6,23.4 27.3,29.6 38.8,14.6 39.8,15.2 	"/>
</g>
<g>
	<polygon points="24.3,32.2 15.6,32.2 15.6,33.3 25,33.3 	"/>
	<polygon points="29.7,33.3 30.6,33.3 30.6,32.2 30.5,32.2 	"/>
</g>
</svg>
