<?xml version="1.0" encoding="utf-8"?>
<!-- Generator: Adobe Illustrator 22.1.0, SVG Export Plug-In . SVG Version: 6.00 Build 0)  -->
<svg version="1.1" id="Layer_1" xmlns="http://www.w3.org/2000/svg" xmlns:xlink="http://www.w3.org/1999/xlink" x="0px" y="0px"
	 viewBox="0 0 47 47" style="enable-background:new 0 0 47 47;" xml:space="preserve">
<style type="text/css">
	.st0{fill:#FFFFFF;}
</style>
<g id="Layer_1_1_">
	<circle class="st0" cx="23.5" cy="23.5" r="23.3"/>
</g>
<g id="Layer_2_1_">
	<path d="M23.5,47C10.6,47,0,36.6,0,23.5C0,10.6,10.6,0,23.5,0C36.6,0,47,10.6,47,23.5C47,36.6,36.6,47,23.5,47z M23.5,0.4
		C10.6,0.4,0.4,10.6,0.4,23.5s10.4,23.1,23.1,23.1c12.9,0,23.1-10.4,23.1-23.1S36.4,0.4,23.5,0.4z"/>
</g>
<g id="Layer_3">
	<path d="M36.4,37.2l-6.2-8c2-2,3.2-4.8,3.2-7.8c0-6.2-5-11.2-11.2-11.2s-11.2,5-11.2,11.2s5,11.2,11.2,11.2c2,0,4-0.6,5.6-1.6
		l6.2,7.8L36.4,37.2z M12.3,21.3c0-5.2,4.4-9.6,9.8-9.6s9.6,4.4,9.6,9.6s-4.4,9.6-9.6,9.6S12.3,26.7,12.3,21.3z"/>
</g>
</svg>
