<?xml version="1.0" encoding="utf-8"?>
<!-- Generator: Adobe Illustrator 22.1.0, SVG Export Plug-In . SVG Version: 6.00 Build 0)  -->
<svg version="1.1" id="Layer_1" xmlns="http://www.w3.org/2000/svg" xmlns:xlink="http://www.w3.org/1999/xlink" x="0px" y="0px"
	 viewBox="0 0 47 47" style="enable-background:new 0 0 47 47;" xml:space="preserve">
<style type="text/css">
	.st0{fill:#FFFFFF;}
</style>
<g id="Layer_1_1_">
</g>
<g id="Layer_2_1_">
	<g>
		<polygon class="st0" points="5.5,5.5 25.7,5.5 24.1,3.6 3.6,3.6 3.6,24.1 5.5,25.7 		"/>
		<polygon class="st0" points="41.5,21.3 41.5,41.5 21.3,41.5 22.9,43.4 43.4,43.4 43.4,22.9 		"/>
		<polygon class="st0" points="38.3,2.4 29.8,4.7 35.5,10.3 29.2,16.6 16.6,16.6 16.6,29.2 10.3,35.5 4.7,29.8 2.4,38.3 0,47 
			8.7,44.6 17.2,42.3 11.5,36.7 17.8,30.4 30.4,30.4 30.4,17.8 36.7,11.5 42.3,17.2 44.6,8.7 47,0 		"/>
	</g>
</g>
</svg>
