<?xml version="1.0" encoding="utf-8"?>
<!-- Generator: Adobe Illustrator 22.1.0, SVG Export Plug-In . SVG Version: 6.00 Build 0)  -->
<svg version="1.1" id="Layer_1" xmlns="http://www.w3.org/2000/svg" xmlns:xlink="http://www.w3.org/1999/xlink" x="0px" y="0px"
	 viewBox="0 0 47 47" style="enable-background:new 0 0 47 47;" xml:space="preserve">
<style type="text/css">
	.st0{fill:#FFFFFF;}
</style>
<g>
	<g>
		<circle class="st0" cx="23.5" cy="23.5" r="23.5"/>
		<path d="M23.5,47C10.5,47,0,36.5,0,23.5S10.5,0,23.5,0S47,10.5,47,23.5S36.5,47,23.5,47z M23.5,0.3C10.7,0.3,0.3,10.7,0.3,23.5
			s10.4,23.2,23.2,23.2s23.2-10.4,23.2-23.2S36.4,0.3,23.5,0.3z"/>
	</g>
	<g>
		<g>
			<path d="M13.8,37.8H9.3V23.4h4.4V37.8z M9.9,37.3h3.3V24H9.9V37.3z"/>
			<rect x="9.6" y="26.2" width="1" height="0.4"/>
			<rect x="9.6" y="34.6" width="1" height="0.4"/>
			<rect x="9.6" y="30.4" width="1" height="0.4"/>
		</g>
		<g>
			<path d="M37.7,37.8h-4.4V23.4h4.4V37.8z M33.8,37.3h3.3V24h-3.3V37.3z"/>
			<rect x="36.4" y="26.2" width="1" height="0.4"/>
			<rect x="36.4" y="34.6" width="1" height="0.4"/>
			<rect x="36.4" y="30.4" width="1" height="0.4"/>
		</g>
		<path d="M23.4,22.9c-4.8,0-8.6-3.9-8.6-8.6c0-4.8,3.9-8.6,8.6-8.6s8.6,3.9,8.6,8.6C32.1,19,28.2,22.9,23.4,22.9z M23.4,6.1
			c-4.5,0-8.2,3.7-8.2,8.2s3.7,8.2,8.2,8.2s8.2-3.7,8.2-8.2S27.9,6.1,23.4,6.1z"/>
		<path d="M26.4,26.1v-4.2h-0.3c-0.9,0.3-1.8,0.5-2.7,0.5H26v3.7h0v0.6h7.3v7.8H13.8v-7.8h7.1v-0.6v-0.9v-2.9h2.5
			c-1,0-1.9-0.2-2.7-0.5h-0.3v4.2h-7.2v8.9h20.5v-8.9H26.4z"/>
		<path d="M21.7,18.4c0-1,0.1-7.1,0.1-7.1s3.5,6.1,3.5,7.1c0,1-0.8,1.8-1.8,1.8C22.5,20.1,21.7,19.3,21.7,18.4z"/>
		<path d="M23.4,7.8c-3.9,0-7,3.1-7,7l0,0.3l0.5,0v-0.6h0c0.2-3.4,3-6.2,6.5-6.2c3.5,0,6.3,2.8,6.5,6.2h0V15h0.5v-0.2
			C30.4,10.9,27.3,7.8,23.4,7.8z"/>
	</g>
	<rect x="13.5" y="29.4" width="18.1" height="0.2"/>
</g>
</svg>
