<?xml version="1.0" encoding="utf-8"?>
<!-- Generator: Adobe Illustrator 22.1.0, SVG Export Plug-In . SVG Version: 6.00 Build 0)  -->
<svg version="1.1" id="Layer_1" xmlns="http://www.w3.org/2000/svg" xmlns:xlink="http://www.w3.org/1999/xlink" x="0px" y="0px"
	 viewBox="0 0 47 47" style="enable-background:new 0 0 47 47;" xml:space="preserve">
<style type="text/css">
	.st0{fill:#FFFFFF;}
</style>
<g id="Layer_1_1_">
</g>
<g id="Layer_2_1_">
	<g>
		<polygon class="st0" points="5.9,5.9 25.7,5.9 24.1,4.1 4.1,4.1 4.1,24.1 5.9,25.7 		"/>
		<polygon class="st0" points="41.1,21.3 41.1,41.1 21.3,41.1 22.9,42.9 42.9,42.9 42.9,22.9 		"/>
		<polygon class="st0" points="47,1.2 45.8,0 39.7,6.1 34.2,0.6 31.8,9.1 29.8,16.8 16.8,16.8 16.8,29.8 9.1,31.8 0.6,34.2 
			6.1,39.7 0,45.8 1.2,47 7.3,40.9 12.8,46.4 15.2,37.9 17.2,30.2 30.2,30.2 30.2,17.2 37.9,15.2 46.4,12.8 40.9,7.3 		"/>
	</g>
</g>
</svg>
