<?xml version="1.0" encoding="utf-8"?>
<!-- Generator: Adobe Illustrator 22.1.0, SVG Export Plug-In . SVG Version: 6.00 Build 0)  -->
<svg version="1.1" id="Layer_1" xmlns="http://www.w3.org/2000/svg" xmlns:xlink="http://www.w3.org/1999/xlink" x="0px" y="0px"
	 viewBox="0 0 47 47" style="enable-background:new 0 0 47 47;" xml:space="preserve">
<style type="text/css">
	.st0{fill:#FFFFFF;}
</style>
<circle class="st0" cx="23.5" cy="23.5" r="23.5"/>
<path d="M23.5,47C10.5,47,0,36.5,0,23.5S10.5,0,23.5,0S47,10.5,47,23.5S36.5,47,23.5,47z M23.5,0.3C10.7,0.3,0.3,10.7,0.3,23.5
	s10.4,23.2,23.2,23.2s23.2-10.4,23.2-23.2S36.4,0.3,23.5,0.3z"/>
<path d="M30.4,8.9c-0.9,0.7-1.1,1.5-0.9,2.5c0.2,0.7,1.3,1.8,2.7,3L17.5,25l0.3,0.4l-4.7,3.3c-0.4-0.3-0.9-0.5-1.4-0.5
	c-1.3,0-2.3,1-2.3,2.3H8.2v6H15v-6h-1c0-0.4-0.1-0.7-0.3-1.1l4.6-3.3l0.3,0.4l6.7-4.7l-3.9,14.8h1.7l2.1-7.9h3.6l2.1,7.9h1.7
	l-4.4-16.8l5.5-3.9c1.8,1.6,3.6,2.9,3.6,2.9h0.4v17.8h1V18.8h0.4C39.4,12.6,35.1,6,30.4,8.9z M25.5,27.4l1.5-5.6l1.5,5.6H25.5z"/>
</svg>
