<?xml version="1.0" encoding="utf-8"?>
<!-- Generator: Adobe Illustrator 22.1.0, SVG Export Plug-In . SVG Version: 6.00 Build 0)  -->
<svg version="1.1" id="Layer_1" xmlns="http://www.w3.org/2000/svg" xmlns:xlink="http://www.w3.org/1999/xlink" x="0px" y="0px"
	 viewBox="0 0 47 47" style="enable-background:new 0 0 47 47;" xml:space="preserve">
<style type="text/css">
	.st0{fill:#FFFFFF;}
</style>
<g id="Layer_1_1_">
	<circle class="st0" cx="23.5" cy="23.5" r="23.3"/>
</g>
<g id="Layer_2_1_">
	<path d="M23.5,47C10.6,47,0,36.6,0,23.5C0,10.6,10.6,0,23.5,0C36.6,0,47,10.6,47,23.5C47,36.6,36.6,47,23.5,47z M23.5,0.4
		C10.6,0.4,0.4,10.6,0.4,23.5s10.4,23.1,23.1,23.1c12.9,0,23.1-10.4,23.1-23.1S36.4,0.4,23.5,0.4z"/>
</g>
<g id="Layer_3">
	<g>
		<path d="M20.5,30.9c-0.4,0-0.8,0.4-0.8,0.8v2.6H7.6c-0.4,0-0.8,0.4-0.8,0.8c0,0.4,0.4,0.8,0.8,0.8h12.1v2.4c0,0.4,0.4,0.8,0.8,0.8
			c0.4,0,0.8-0.4,0.8-0.8v-6.6C21.3,31.3,20.9,30.9,20.5,30.9z"/>
		<path d="M39.4,34.3H27.5v-2.6c0-0.4-0.4-0.8-0.8-0.8s-0.8,0.4-0.8,0.8v6.6c0,0.4,0.4,0.8,0.8,0.8s0.8-0.4,0.8-0.8V36h11.9
			c0.4,0,0.8-0.4,0.8-0.8C40.2,34.7,39.8,34.3,39.4,34.3z"/>
		<path d="M33.9,15.5c0-5.6-4.6-10.2-10.2-10.2S13.5,9.8,13.5,15.5c0,5.4,4.2,9.6,9.4,10.2v12.5c0,0.4,0.4,0.8,0.8,0.8
			s0.8-0.4,0.8-0.8V25.7C29.7,25.3,33.9,20.9,33.9,15.5z M15.5,15.5c0-4.6,3.6-8.2,8.2-8.2s8.2,3.6,8.2,8.2s-3.6,8.2-8.2,8.2
			C19.1,23.7,15.5,20.1,15.5,15.5z"/>
	</g>
</g>
</svg>
