<?xml version="1.0" encoding="utf-8"?>
<!-- Generator: Adobe Illustrator 22.1.0, SVG Export Plug-In . SVG Version: 6.00 Build 0)  -->
<svg version="1.1" id="Layer_1" xmlns="http://www.w3.org/2000/svg" xmlns:xlink="http://www.w3.org/1999/xlink" x="0px" y="0px"
	 viewBox="0 0 47 47" style="enable-background:new 0 0 47 47;" xml:space="preserve">
<style type="text/css">
	.st0{fill:#FFFFFF;}
</style>
<g id="Layer_2_1_">
	<circle class="st0" cx="23.5" cy="23.5" r="23.3"/>
</g>
<g id="Layer_1_1_">
	<path d="M23.5,47C10.5,47,0,36.4,0,23.5C0,10.5,10.5,0,23.5,0S47,10.6,47,23.5S36.4,47,23.5,47z M23.5,0.3
		C10.7,0.3,0.3,10.7,0.3,23.5s10.4,23.2,23.2,23.2s23.2-10.4,23.2-23.2S36.3,0.3,23.5,0.3z"/>
</g>
<g id="Layer_3">
	<g>
		<path d="M37,19.2c-0.5,0.3-0.6,0.8-0.5,1.4c0.1,0.3,0.6,1,1.4,1.5l-7.7,5.5l0.2,0.3l-2.5,1.8c-0.2-0.2-0.5-0.2-0.7-0.2
			c-0.6,0-1.2,0.6-1.2,1.2h-0.6v3.1h3.4v-3.2h-0.6c0-0.2-0.1-0.4-0.2-0.6l2.4-1.8l0.2,0.3l3.4-2.4l-2,7.5h0.9l1.1-4.2h1.9l1.1,4.2
			h0.9l-2.3-8.7l3-2.1c1,0.8,1.8,1.4,1.8,1.4h0.2v9.3h0.5v-9.3h0.2C41.7,21.1,39.5,17.6,37,19.2z M34.4,28.9l0.8-3l0.8,3H34.4z"/>
		<path d="M27,20.6h-0.4c0-0.1,0-0.2-0.1-0.3l1.6-1.1l0.2,0.3l2.1-1.4l-1.3,4.7h0.6l0.7-2.8h1.3l0.7,2.8H33l-1.4-5.6l2.1-1.4
			c0.6,0.5,1,0.9,1,0.9h0.1v6.3h0.5v-6.3h0.1c0.1-2.2-1.4-4.4-3-3.4C32,13.4,31.9,13.6,32,14c0.1,0.2,0.4,0.6,0.7,0.9l-5,3.5
			l0.2,0.3L26.3,20c-0.2-0.1-0.2-0.2-0.4-0.2c-0.5,0-0.8,0.3-0.8,0.8h-0.4v2.1H27V20.6z M30.7,19.5l0.6-2l0.6,2H30.7z"/>
		<path d="M23.4,18.4c-5.7-2.8-11.7-3-18.2,0v0.3h18.2V18.4z"/>
		<polygon points="23.4,19.2 5.3,19.2 5.3,33.7 15.5,33.7 15.5,33.7 23.4,33.7 23.4,20 23.4,20 		"/>
		<path d="M25.8,16h0.5l-1.1-4.3l1.8-1.2c0.4,0.3,0.7,0.6,0.7,0.6v5h0.5v-5l0,0c0.1-1.8-1.1-3.5-2.4-2.7c-0.2,0.2-0.3,0.4-0.2,0.7
			c0.1,0.2,0.2,0.4,0.5,0.6l-4.1,2.9l0.2,0.3l-1.4,1c-0.2-0.2-0.2-0.2-0.3-0.2c-0.3,0-0.6,0.3-0.6,0.6h-0.3V16h1.9v-1.7h-0.3
			c0-0.1,0-0.2,0-0.2l1.4-1l0.2,0.3l1.5-1.1l-1,3.6h0.5l0.6-2.2h1L25.8,16z M24.3,13.4l0.4-1.4h0.1l0.4,1.5L24.3,13.4L24.3,13.4z"/>
	</g>
</g>
</svg>
