<?xml version="1.0" encoding="utf-8"?>
<!-- Generator: Adobe Illustrator 22.1.0, SVG Export Plug-In . SVG Version: 6.00 Build 0)  -->
<svg version="1.1" id="Layer_1" xmlns="http://www.w3.org/2000/svg" xmlns:xlink="http://www.w3.org/1999/xlink" x="0px" y="0px"
	 viewBox="0 0 47 47" style="enable-background:new 0 0 47 47;" xml:space="preserve">
<style type="text/css">
	.st0{fill:#FFFFFF;}
</style>
<g id="Layer_1_1_">
	<circle class="st0" cx="23.5" cy="23.5" r="23.3"/>
</g>
<g id="Layer_2_1_">
	<path d="M23.5,47C10.6,47,0,36.6,0,23.5C0,10.6,10.6,0,23.5,0C36.6,0,47,10.6,47,23.5C47,36.6,36.6,47,23.5,47z M23.5,0.4
		C10.6,0.4,0.4,10.6,0.4,23.5s10.4,23.1,23.1,23.1c12.9,0,23.1-10.4,23.1-23.1S36.4,0.4,23.5,0.4z"/>
</g>
<g id="Layer_3">
	<g>
		<path d="M41.8,32.7H31.1v-3.8h-6.8v-6.6c4.4-0.4,8-4,8-8.6c0-4.8-3.8-8.6-8.6-8.6s-8.6,3.8-8.6,8.6c0,4.4,3.4,8,7.8,8.6v6.6h-6.8
			v3.8H5.4c-0.4,0-0.6,0.4-0.6,0.6s0.2,0.8,0.6,0.8h10.6v3.6h15.3v-3.6H42c0.4,0,0.6-0.4,0.6-0.6S42.2,32.7,41.8,32.7z M16.7,13.9
			c0-4,3.2-7,7-7s7,3.2,7,7s-3.2,7-7,7S16.7,17.7,16.7,13.9z M30.3,36.8H17.1v-6.8h13.3V36.8z"/>
		<path d="M20.5,36.4c1.6,0,2.8-1.2,2.8-2.8c0-1.6-1.2-2.8-2.8-2.8s-2.8,1.2-2.8,2.8C17.7,35.1,18.9,36.4,20.5,36.4z M20.5,31.5
			c1,0,1.8,0.8,1.8,1.8c0,1-0.8,1.8-1.8,1.8c-1,0-1.8-0.8-1.8-1.8C18.7,32.3,19.5,31.5,20.5,31.5z"/>
		<path d="M26.9,36.4c1.6,0,2.8-1.2,2.8-2.8c0-1.6-1.2-2.8-2.8-2.8s-2.8,1.2-2.8,2.8C24.1,35.1,25.3,36.4,26.9,36.4z M26.9,31.5
			c1,0,1.8,0.8,1.8,1.8c0,1-0.8,1.8-1.8,1.8c-1,0-1.8-0.8-1.8-1.8C25.1,32.3,25.7,31.5,26.9,31.5z"/>
	</g>
</g>
</svg>
