<?xml version="1.0" encoding="utf-8"?>
<!-- Generator: Adobe Illustrator 22.1.0, SVG Export Plug-In . SVG Version: 6.00 Build 0)  -->
<svg version="1.1" id="Layer_1" xmlns="http://www.w3.org/2000/svg" xmlns:xlink="http://www.w3.org/1999/xlink" x="0px" y="0px"
	 viewBox="0 0 47 47" style="enable-background:new 0 0 47 47;" xml:space="preserve">
<style type="text/css">
	.st0{fill:#FFFFFF;}
</style>
<g id="Layer_1_1_">
	<circle class="st0" cx="23.5" cy="23.5" r="23.3"/>
</g>
<g id="Layer_2_1_">
	<path d="M23.5,47C10.6,47,0,36.6,0,23.5C0,10.6,10.6,0,23.5,0C36.6,0,47,10.6,47,23.5C47,36.6,36.6,47,23.5,47z M23.5,0.4
		C10.6,0.4,0.4,10.6,0.4,23.5s10.4,23.1,23.1,23.1c12.9,0,23.1-10.4,23.1-23.1S36.4,0.4,23.5,0.4z"/>
</g>
<g id="Layer_3_copy">
	<g>
		<path d="M13.7,28.5H4.3v-0.8c0-3,1.7-5.6,4.4-6.7c-0.7-0.8-1.1-1.8-1.1-2.9c0-2.4,1.7-4.4,4-4.4c2.2,0,4.2,1.9,4.2,4.2
			c0,1.1-0.4,2.1-1.1,2.9c1.4,0.6,2.6,1.5,3.4,2.9l-1.3,0.8c-0.9-1.5-2.2-2.3-3.9-2.7l-0.7-0.1L10.4,22c-2.5,0.5-4.3,2.5-4.6,4.9
			h7.8V28.5z M11.4,15.2c-1.4,0-2.5,1.3-2.5,2.9c0,1.1,0.6,2,1.6,2.5l0.8,0.4l1.2-0.6c1-0.5,1.6-1.5,1.6-2.5
			C14.1,16.5,12.8,15.2,11.4,15.2z"/>
		<path d="M34.7,34.7H12.3v-0.8c0-4.7,3-8.8,7.3-10.5c-1.4-1.2-2.3-2.9-2.3-4.8c0-3.4,2.8-6.2,6.2-6.2c3.4,0,6.2,2.8,6.2,6.2
			c0,1.9-0.9,3.6-2.3,4.8c4.3,1.6,7.3,5.8,7.3,10.5V34.7z M13.8,33.2h19.3c-0.3-4.2-3.5-7.9-7.8-8.8l-1.9-0.4l-1.9,0.4
			C17.4,25.3,14.2,28.9,13.8,33.2z M23.5,14c-2.6,0-4.7,2.1-4.7,4.7c0,1.9,1.2,3.6,2.9,4.3l1.7,0.7l1.7-0.7c1.8-0.7,2.9-2.4,2.9-4.3
			C28.2,16.1,26.1,14,23.5,14z"/>
		<path d="M42.7,28.5h-9.4V27h7.8c-0.3-2.5-2.1-4.4-4.6-4.9l-1.3-0.3L34.1,22c-1.7,0.4-3.1,1.3-3.9,2.7l-1.3-0.8
			c0.8-1.3,2-2.3,3.4-2.9c-0.7-0.8-1.2-1.8-1.2-2.9c0-2.2,1.9-4.2,4.2-4.2c2.2,0,4.2,1.9,4.2,4.2c0,1.1-0.4,2.1-1.1,2.9
			c2.6,1.1,4.4,3.7,4.4,6.7V28.5z M35.3,15.4c-1.4,0-2.7,1.3-2.7,2.7c0,1.1,0.6,2,1.6,2.5l1.1,0.5l1.1-0.5c1-0.5,1.6-1.5,1.6-2.5
			C38,16.7,36.7,15.4,35.3,15.4z"/>
	</g>
</g>
</svg>
