<?xml version="1.0" encoding="utf-8"?>
<!-- Generator: Adobe Illustrator 22.1.0, SVG Export Plug-In . SVG Version: 6.00 Build 0)  -->
<svg version="1.1" id="Layer_1" xmlns="http://www.w3.org/2000/svg" xmlns:xlink="http://www.w3.org/1999/xlink" x="0px" y="0px"
	 viewBox="0 0 47 47" style="enable-background:new 0 0 47 47;" xml:space="preserve">
<style type="text/css">
	.st0{fill:#FFFFFF;}
</style>
<g id="Layer_1_1_">
	<circle class="st0" cx="23.5" cy="23.5" r="23.3"/>
</g>
<g id="Layer_2_1_">
	<path d="M23.5,47C10.6,47,0,36.6,0,23.5C0,10.6,10.6,0,23.5,0C36.6,0,47,10.6,47,23.5C47,36.6,36.6,47,23.5,47z M23.5,0.4
		C10.6,0.4,0.4,10.6,0.4,23.5s10.4,23.1,23.1,23.1c12.9,0,23.1-10.4,23.1-23.1S36.4,0.4,23.5,0.4z"/>
</g>
<g id="Layer_3_copy">
	<path d="M37.2,35.4H9.8v-1c0-5.7,3.4-10.7,8.4-12.8c-1.7-1.4-2.6-3.4-2.6-5.7c0-4.1,3.5-7.6,7.6-7.6s7.6,3.5,7.6,7.6
		c0,2.2-0.9,4.2-2.5,5.7c5.2,2,8.7,7,8.7,12.8V35.4z M11.9,33.3h23.2c-0.4-5.2-4.1-9.4-9.2-10.5l-2.6-0.5l-2.5,0.5
		C16,23.9,12.3,28.2,11.9,33.3z M23.3,10.2c-3,0-5.6,2.6-5.6,5.6c0,2.3,1.3,4.2,3.4,5.1l2.4,1l2.2-1c1.9-0.9,3.2-3,3.2-5.1
		C28.9,12.8,26.3,10.2,23.3,10.2z"/>
</g>
</svg>
