<?xml version="1.0" encoding="utf-8"?>
<!-- Generator: Adobe Illustrator 22.1.0, SVG Export Plug-In . SVG Version: 6.00 Build 0)  -->
<svg version="1.1" id="Layer_1" xmlns="http://www.w3.org/2000/svg" xmlns:xlink="http://www.w3.org/1999/xlink" x="0px" y="0px"
	 viewBox="0 0 47 47" style="enable-background:new 0 0 47 47;" xml:space="preserve">
<style type="text/css">
	.st0{fill:#FFFFFF;}
</style>
<g id="Layer_2_1_">
	<circle class="st0" cx="23.5" cy="23.5" r="23.3"/>
</g>
<g id="Layer_1_1_">
	<path d="M23.5,47C10.5,47,0,36.5,0,23.5S10.5,0,23.5,0S47,10.5,47,23.5S36.5,47,23.5,47z M23.5,0.3C10.7,0.3,0.3,10.7,0.3,23.5
		s10.4,23.2,23.2,23.2c12.8,0,23.2-10.4,23.2-23.2S36.3,0.3,23.5,0.3z"/>
</g>
<g id="Layer_3">
	<g>
		<path d="M41.4,34.8l-1-24.8h-2.5L37,34.8h-0.4l0.2-6.6L29,28.3h-0.1v4h3.9v-0.8H34c0.6,0,1.5,0.5,1.5,1.3v1.9h-0.3V33
			c0-0.6-0.5-1.1-1.1-1.1h-1v2.9h-0.2v-1.2H29v1.2h-0.4v-1.3H26v1.3h-0.3v-1.2h-1.7v1.2h-0.9v-1.2h-1.7v1.2H21v-1.2h-1.7v1.2h-0.9
			v-1.2h-1.7v1.2H16v-1.3h-1.9v1.2h-0.8v-1.2h-1.9v1.2h-0.7v-1.2H9.2h0C9,33.6,9,33.7,9,33.8v1H8.8v-1.2c0-0.1,0.1-0.2,0.2-0.2h24
			v-0.9h-24c-0.6,0-1.1,0.5-1.1,1.1v1.2H7.7v-1.2c0-0.6,0.4-1.2,1.2-1.2l1.7,0v-0.8l-0.1,0c-1.5-0.4-3.1-0.4-4.6,0l-0.1,0v3.4H5.1
			v0.9h36.6v-0.9H41.4z M24.2,33.8h1.2v1h-1.3L24.2,33.8z M21.5,33.8h1.3v0.9h-1.3V33.8z M19.4,33.8h1.2v1h-1.3L19.4,33.8z
			 M16.7,33.8H18v0.9h-1.3V33.8z M9.2,33.8C9.2,33.8,9.2,33.8,9.2,33.8h1.3v1H9.2V33.8z M6.2,31.6c1.4-0.4,2.9-0.4,4.3,0v0.4H9
			c-1,0-1.5,0.7-1.5,1.5v1.2H6.2L6.2,31.6L6.2,31.6z M40.2,14.7h-1.9l0-1.2h1.8L40.2,14.7z M40,10.4l0,1.2h-1.7l0-1.2H40z
			 M38.2,16.6h2.1l0.7,18.2h-3.5L38.2,16.6z M34,31.3h-1.4v0.8h-3.5v-3.6l7.5-0.1l-0.2,6.4h-0.7v-1.9C35.7,31.9,34.7,31.3,34,31.3z
			 M29.2,33.8h3.5v1h-3.5V33.8z"/>
		<path d="M29.1,28l7.7-0.1l-0.3-0.2c-1.9-1.3-4.9-1.2-7.1,0L29.1,28z M33.1,27c1.1,0,2.1,0.2,2.9,0.7l-6.2,0
			C30.9,27.2,32,27,33.1,27z"/>
		<path d="M25.7,31.4L25.7,31.4c-1.6-0.5-2.8-0.5-4.4,0l-0.1,0v0.9h4.4L25.7,31.4z M25.5,32.1h-4v-0.5c1.4-0.4,2.5-0.4,4,0V32.1z"/>
		<path d="M16.5,31.3L16.5,31.3l-0.1,1h4.4v-0.9l-0.1,0C19.3,30.9,18.1,30.9,16.5,31.3z M20.6,31.6v0.5h-4v-0.5
			C18.1,31.1,19.2,31.1,20.6,31.6z"/>
		<path d="M11.4,31.3L11.4,31.3L11.4,31.3l-0.1,0v0.9h4.5v-0.9c-0.2,0-0.4-0.1-0.6-0.2C13.8,30.9,12.8,30.9,11.4,31.3z"/>
		<path d="M29.7,24.5c0.4,0,0.8,0.4,0.8,0.8V27c0.3-0.1,0.6-0.2,0.9-0.3v-1.4c0-0.9-0.8-1.7-1.7-1.7h-0.9v0.9L29.7,24.5L29.7,24.5z"
			/>
		<path d="M22.3,30.9c0.3-0.1,0.5-0.1,0.7-0.1v-6.3h1.5v-0.9h-4.1v0.9h2V30.9z"/>
		<path d="M9.7,27.3c0-0.3,0.2-0.5,0.5-0.5H13v4.1c0.3,0,0.6,0,0.9,0v-8.7c0-0.4,0.4-0.8,0.8-0.8h2.1v9.5c0.5-0.1,1.1-0.2,1.6-0.2
			l0,0v-6.2h0.9v-0.9h-0.9v-6h0.4c0.3,0,0.5-0.2,0.5-0.5v-2.5c0-0.3-0.2-0.5-0.5-0.5h-0.4v-2.5h0.2c0.1,0,0.3-0.1,0.3-0.3
			c0-0.1-0.1-0.3-0.3-0.3h-0.2v-0.9c0-0.4-0.4-0.8-0.8-0.8c-0.4,0-0.8,0.4-0.8,0.8v0.9h-0.2c-0.1,0-0.3,0.1-0.3,0.3
			c0,0.1,0.1,0.3,0.3,0.3h0.2v8.8h-2.1c-0.9,0-1.7,0.8-1.7,1.7v3.9h-2.8c-0.6,0-1.1,0.5-1.1,1.1v3.7c0.2,0,0.4,0,0.6,0L9.7,27.3
			L9.7,27.3z"/>
		<path d="M20.1,22.8c0-0.2,0.2-0.4,0.4-0.4h4.1v8.5c0.4,0,0.9,0.2,1.4,0.3v1.1h2.6V21c0-0.8-0.5-1.6-1.3-1.9v-0.5
			c0-0.2-0.1-0.3-0.3-0.3h-0.8c-0.2,0-0.3,0.1-0.3,0.3v0.5c-0.8,0.3-1.3,1-1.3,1.9V22h-4.1c-0.4,0-0.8,0.4-0.8,0.8v8.1
			c0.1,0,0.3,0,0.4,0.1C20.1,31,20.1,22.8,20.1,22.8z"/>
	</g>
</g>
</svg>
