<?xml version="1.0" encoding="utf-8"?>
<!-- Generator: Adobe Illustrator 22.1.0, SVG Export Plug-In . SVG Version: 6.00 Build 0)  -->
<svg version="1.1" id="Layer_2_1_" xmlns="http://www.w3.org/2000/svg" xmlns:xlink="http://www.w3.org/1999/xlink" x="0px" y="0px"
	 viewBox="0 0 47 47" style="enable-background:new 0 0 47 47;" xml:space="preserve">
<style type="text/css">
	.st0{fill:#FFFFFF;}
</style>
<g>
	<polygon class="st0" points="24,11.1 21.9,11.1 21.9,22.1 11.4,22.1 11.4,23.8 21.9,23.8 21.9,34.9 24,34.9 24,23.8 34.6,23.8 
		34.6,22.1 24,22.1 	"/>
	<path class="st0" d="M42.8,0H4.3C1.9,0,0,1.9,0,4.3v38.4C0,45.1,1.9,47,4.3,47h38.4c2.4,0,4.3-1.9,4.3-4.3V4.3
		C47.2,1.9,45.1,0,42.8,0z M45.4,42.7c0,1.4-1.2,2.6-2.6,2.6H4.3c-1.4,0-2.6-1.2-2.6-2.6V4.3c0-1.4,1.2-2.6,2.6-2.6h38.4
		c1.4,0,2.6,1.2,2.6,2.6v38.4H45.4z"/>
</g>
</svg>
