<?xml version="1.0" encoding="utf-8"?>
<!-- Generator: Adobe Illustrator 22.1.0, SVG Export Plug-In . SVG Version: 6.00 Build 0)  -->
<svg version="1.1" id="Layer_1" xmlns="http://www.w3.org/2000/svg" xmlns:xlink="http://www.w3.org/1999/xlink" x="0px" y="0px"
	 viewBox="0 0 47 47" style="enable-background:new 0 0 47 47;" xml:space="preserve">
<style type="text/css">
	.st0{fill:#FFFFFF;}
</style>
<g id="Layer_2_1_">
	<ellipse class="st0" cx="23.5" cy="23.6" rx="23.4" ry="23.4"/>
</g>
<g id="Layer_1_1_">
	<path d="M23.5,47C10.5,47,0,36.6,0,23.6S10.5,0,23.5,0S47,10.6,47,23.6C46.9,36.6,36.5,47,23.5,47z M23.5,0.3
		C10.7,0.3,0.3,10.7,0.3,23.6s10.4,23.2,23.2,23.2c12.7,0,23.1-10.4,23.1-23.2S36.2,0.3,23.5,0.3z"/>
</g>
<g id="Layer_3">
	<path d="M38.1,8.2c-0.9,0-1.7,0.7-2,1.5H19.4l0,0c-2.7,0.1-5.1,0.8-7.2,2.1l-0.5-0.7c-0.8-0.8-2.3-0.5-3.6,0.7
		c-1.2,1.2-1.6,2.7-0.8,3.5l0.7,0.7c-1.7,2.4-2.7,5.2-2.7,8.4c0,3.1,0.9,5.9,2.5,8.2l-0.7,0.7c-0.3,0.3-0.4,0.7-0.4,1.1
		c0,0.8,0.4,1.6,1.2,2.4c0.8,0.7,1.6,1.1,2.4,1.1c0.4,0,0.8-0.1,1.2-0.4l0.5-0.7c2.3,1.5,4.9,2.3,7.7,2.3s5.3-0.8,7.6-2.1l0.7,0.7
		c0.3,0.3,0.7,0.5,1.2,0.5c0.1,0,0.4,0,0.5-0.1c0.5-0.1,1.2-0.5,1.7-0.9c1.2-1.2,1.6-2.7,0.9-3.5l-0.7-0.8c1.6-2.4,2.7-5.2,2.7-8.3
		c0-1.1-0.1-2.1-0.4-3.2h2c0.3,0.8,1.1,1.3,1.9,1.3c1.2,0,2-0.9,2-2V10.2C40.1,9.1,39.1,8.2,38.1,8.2z M8.1,14.3
		c-0.1-0.1,0-0.8,0.8-1.6c0.8-0.8,1.6-0.8,1.6-0.7l0.5,0.5c-0.9,0.7-1.7,1.3-2.4,2.3L8.1,14.3z M10.4,36.4c-0.1,0.1-0.8,0-1.6-0.7
		C8.3,35.2,8,34.5,8,34.3c0-0.1,0-0.1,0-0.1l0.5-0.5c0.7,0.8,1.5,1.6,2.4,2.3L10.4,36.4z M31.4,34.3c0.1,0.1,0,0.8-0.8,1.6
		c-0.4,0.4-0.8,0.5-1.2,0.7c-0.3,0.1-0.4,0-0.5,0L28.3,36c0.9-0.7,1.7-1.5,2.4-2.3L31.4,34.3z M33,24.2c0,7.4-6,13.3-13.2,13.3
		c-7.3,0-13.2-6-13.2-13.3S12.6,11,19.8,11h16.2v8.7H26c-1.5-2-3.7-3.2-6.3-3.2c-4.3,0-7.7,3.5-7.7,7.8s3.5,7.8,7.7,7.8
		s7.7-3.5,7.7-7.8c0-1.2-0.3-2.3-0.7-3.2h5.7C32.8,22.1,33,23.2,33,24.2z M26.2,24.2c0,1.6-0.7,3.1-1.6,4.3l0,0
		c-0.9-0.8-2.3-1.9-2.5-2.5c0.3-0.4,0.5-0.9,0.5-1.5c0,0,0,0,0.1,0c1.1,0,2.3-0.4,3.5-0.9C26.2,23.8,26.2,24.1,26.2,24.2z
		 M13.4,24.2c0-1.6,0.7-3.2,1.7-4.3c1.1,0.8,2.3,1.9,2.5,2.7c-0.3,0.4-0.4,0.8-0.5,1.3c-1.1,0-2.3,0.4-3.6,0.9
		C13.4,24.6,13.4,24.5,13.4,24.2z M22.3,23.2c-0.3-0.5-0.5-0.9-1.1-1.2c0.5-0.9,0.7-2.1,0.9-3.6c1.7,0.7,3.1,2.1,3.6,3.9l0,0
		C24.6,22.8,23.1,23.3,22.3,23.2z M18.3,24.2c0-0.8,0.7-1.5,1.5-1.5c0.8,0,1.5,0.7,1.5,1.5s-0.7,1.5-1.5,1.5
		C19,25.7,18.3,25,18.3,24.2z M19.9,21.6h-0.1c-0.4,0-0.8,0.1-1.2,0.3c-0.5-0.9-1.5-1.7-2.5-2.7c1.1-0.8,2.4-1.2,3.7-1.2
		c0.4,0,0.8,0,1.2,0.1C20.7,19.3,20.4,21,19.9,21.6z M13.8,26.1c1.2-0.4,2.7-0.9,3.5-0.8c0.3,0.5,0.5,0.9,0.9,1.2
		c-0.5,0.9-0.7,2.3-0.9,3.6C15.5,29.5,14.3,28,13.8,26.1L13.8,26.1z M18.6,30.5c0.1-1.3,0.4-2.8,0.9-3.5c0.1,0,0.3,0,0.3,0
		c0.4,0,0.8-0.1,1.2-0.3c0.5,0.9,1.5,1.7,2.5,2.7c-1.1,0.8-2.4,1.2-3.7,1.2C19.4,30.7,19,30.7,18.6,30.5L18.6,30.5z M38.7,20.4
		c0,0.4-0.3,0.7-0.7,0.7c-0.4,0-0.7-0.3-0.7-0.7V10.2c0-0.4,0.3-0.7,0.7-0.7c0.4,0,0.7,0.3,0.7,0.7V20.4z"/>
</g>
</svg>
