<?xml version="1.0" encoding="utf-8"?>
<!-- Generator: Adobe Illustrator 22.1.0, SVG Export Plug-In . SVG Version: 6.00 Build 0)  -->
<svg version="1.1" id="Layer_1" xmlns="http://www.w3.org/2000/svg" xmlns:xlink="http://www.w3.org/1999/xlink" x="0px" y="0px"
	 viewBox="0 0 47 47" style="enable-background:new 0 0 47 47;" xml:space="preserve">
<style type="text/css">
	.st0{fill:#FFFFFF;}
</style>
<g id="Layer_2_1_">
	<ellipse class="st0" cx="23.5" cy="23.5" rx="23.3" ry="23.3"/>
</g>
<g id="Layer_1_1_">
	<path d="M23.5,47C10.5,47,0,36.5,0,23.5C0,10.5,10.5,0,23.5,0S47,10.5,47,23.5C47.1,36.5,36.5,47,23.5,47z M23.5,0.4
		C10.7,0.4,0.4,10.7,0.4,23.5s10.4,23.2,23.1,23.2c12.8,0,23.2-10.4,23.2-23.2S36.3,0.4,23.5,0.4z"/>
</g>
<g id="Layer_3">
	<path d="M42.1,17.7L42,17.4H27.8v-0.7c0-0.6-0.5-1-1-1h-7.3c-0.6,0-1,0.5-1,1v0.7H4.2l-0.1,0.4c-1.3,3.7-1.3,7.5,0,11.2l0.1,0.4
		h3.6c-0.5,0.4-0.8,1-0.8,1.7c0,1.2,1,2.2,2.2,2.2c0.8,0,1.4-0.4,1.8-0.9c0.4,0.6,1.1,0.9,1.8,0.9c1.2,0,2.2-1,2.2-2.2
		c0-0.7-0.3-1.3-0.8-1.7H32c-0.5,0.4-0.8,1-0.8,1.7c0,1.2,1,2.2,2.2,2.2c0.8,0,1.4-0.4,1.8-0.9c0.4,0.6,1.1,0.9,1.8,0.9
		c1.2,0,2.2-1,2.2-2.2c0-0.7-0.3-1.3-0.8-1.7h3.3l0.1-0.4C43.3,25.2,43.3,21.4,42.1,17.7z M38,28.2H25.6l-0.1-9.8H38
		C38.9,21.7,38.9,24.9,38,28.2z M8.1,28.2c-0.9-3.3-0.9-6.5,0-9.8h12.7l0.1,9.8C20.8,28.2,8.1,28.2,8.1,28.2z M24.6,25.3h-2.7v-1.3
		h2.7V25.3z M24.6,23h-2.7v-1.5h2.7V23z M24.5,18.4l0.1,2.2h-2.7v-2.2H24.5z M21.9,26.3h2.7v1.9h-2.7V26.3z M19.5,16.7h7.3v0.7h-7.3
		V16.7z M5,18.4H7c-0.8,3.3-0.8,6.6,0,9.8H5C4,24.9,4,21.7,5,18.4z M9.3,32.1c-0.7,0-1.2-0.6-1.2-1.2s0.6-1.2,1.2-1.2
		s1.2,0.6,1.2,1.2S9.9,32.1,9.3,32.1z M12.9,32.1c-0.7,0-1.2-0.6-1.2-1.2s0.6-1.2,1.2-1.2s1.2,0.6,1.2,1.2S13.6,32.1,12.9,32.1z
		 M11.1,29.6c-0.1-0.1-0.2-0.3-0.3-0.4h0.6C11.2,29.3,11.1,29.4,11.1,29.6z M33.6,32.1c-0.7,0-1.2-0.6-1.2-1.2s0.6-1.2,1.2-1.2
		c0.7,0,1.2,0.6,1.2,1.2S34.2,32.1,33.6,32.1z M37.2,32.1c-0.7,0-1.2-0.6-1.2-1.2s0.6-1.2,1.2-1.2c0.7,0,1.2,0.6,1.2,1.2
		S37.9,32.1,37.2,32.1z M35.4,29.6c-0.1-0.1-0.2-0.3-0.3-0.4h0.6C35.6,29.3,35.5,29.4,35.4,29.6z M41.2,28.2h-2.2
		c0.8-3.3,0.8-6.6,0-9.8h2.2C42.2,21.7,42.2,24.9,41.2,28.2z"/>
</g>
</svg>
