<?xml version="1.0" encoding="utf-8"?>
<!-- Generator: Adobe Illustrator 22.1.0, SVG Export Plug-In . SVG Version: 6.00 Build 0)  -->
<svg version="1.1" id="Layer_1" xmlns="http://www.w3.org/2000/svg" xmlns:xlink="http://www.w3.org/1999/xlink" x="0px" y="0px"
	 viewBox="0 0 47 47" style="enable-background:new 0 0 47 47;" xml:space="preserve">
<style type="text/css">
	.st0{fill:#FFFFFF;}
</style>
<g id="Layer_2_1_">
	<ellipse class="st0" cx="23.5" cy="23.6" rx="23.4" ry="23.4"/>
</g>
<g id="Layer_1_1_">
	<path d="M23.5,47C10.5,47,0,36.6,0,23.6S10.5,0,23.5,0S47,10.6,47,23.6C46.9,36.6,36.5,47,23.5,47z M23.5,0.3
		C10.7,0.3,0.3,10.7,0.3,23.6s10.4,23.2,23.2,23.2c12.7,0,23.1-10.4,23.1-23.2S36.2,0.3,23.5,0.3z"/>
</g>
<g id="Layer_3">
	<g>
		<path d="M23.5,10.7c-4.1,0-7.3,3.3-7.3,7.4s3.3,7.4,7.3,7.4c4.1,0,7.3-3.3,7.3-7.4S27.5,10.7,23.5,10.7z M25.1,17.9l2.5-2.7
			c0.5,0.8,0.8,1.7,0.8,2.8c0,0.9-0.3,1.7-0.7,2.4L25.1,17.9z M25.9,13.7l-2.5,2.7l-2.7-2.5c0.8-0.5,1.7-0.8,2.7-0.8
			S25.1,13.3,25.9,13.7z M19.2,20.8c-0.5-0.8-0.8-1.7-0.8-2.7c0-0.9,0.3-1.7,0.7-2.5l2.7,2.5L19.2,20.8z M21,22.4l2.5-2.7l2.7,2.5
			c-0.8,0.5-1.7,0.8-2.8,0.8C22.6,23.2,21.8,22.9,21,22.4z"/>
		<path d="M10.5,26.2H5.3c-1.2,0-2.1,0.9-2.1,2.1s0.9,2.1,2.1,2.1h5.1c1.2,0,2.1-0.9,2.1-2.1C12.6,27.2,11.6,26.2,10.5,26.2z
			 M10.5,29.9H5.3c-0.8,0-1.5-0.7-1.5-1.5s0.7-1.6,1.5-1.6h5.1c0.9,0,1.6,0.7,1.6,1.5S11.3,29.9,10.5,29.9z"/>
		<path d="M4.9,33.3h6v-2.1h-6V33.3z M5.5,31.7h4.9v0.9H5.5V31.7z"/>
		<path d="M15.5,18.3L15.5,18.3c0-0.7,0-1.3,0.3-2.1l0.1-0.5l-0.5,0.1c-4.3,1.2-7.6,4.4-9.6,9.1l-0.3,0.5h0.7c0.1,0,0.1,0,0.3,0h4.5
			c0.7,0,1.6,0.4,2,1.1l0.4,0.7l0.1-0.7c0.3-1.1,2-2.8,3.5-3.2l0.4-0.1l-0.3-0.4C16,21.4,15.5,20,15.5,18.3z M13.1,25.6
			c-0.5-0.5-1.5-0.9-2.1-0.9H6.4c1.9-4.2,4.8-6.8,8.5-8.2c-0.1,0.7-0.1,1.2-0.1,1.7c0,1.5,0.5,2.9,1.5,4.3
			C15,23.2,13.6,24.5,13.1,25.6z"/>
		<path d="M41.5,26.2h-5.1c-1.2,0-2.1,0.9-2.1,2.1c0,0.5,0.3,1.1,0.7,1.5c0.4,0.4,0.9,0.7,1.5,0.7h5.1c1.2,0,2.1-0.9,2.1-2.1
			C43.7,27.2,42.7,26.2,41.5,26.2z M41.5,29.9h-5.1c-0.4,0-0.8-0.1-1.1-0.4c-0.3-0.3-0.4-0.7-0.4-1.1c0-0.8,0.7-1.5,1.5-1.5h5.1
			c0.8,0,1.5,0.7,1.5,1.5S42.3,29.9,41.5,29.9z"/>
		<path d="M35.9,33.3h6v-2.1h-6V33.3z M36.6,31.7h4.8v0.9h-4.9v-0.9H36.6z"/>
		<path d="M35.9,25.3h4.5c0.1,0,0.1,0,0.3,0h0.7l-0.1-0.4c-2-4.7-5.3-7.8-9.6-9.1l-0.5-0.1l0.1,0.5c0.1,0.8,0.3,1.5,0.3,2.1
			c0,1.6-0.5,3.1-1.6,4.3L29.6,23l0.4,0.1c1.5,0.4,3.1,2.1,3.5,3.2l0.1,0.7l0.4-0.7C34.3,25.7,35.3,25.3,35.9,25.3z M33.8,25.6
			c-0.5-1.1-1.9-2.4-3.2-2.9c0.9-1.2,1.3-2.7,1.5-4.3c0-0.5,0-1.2-0.1-1.7c3.7,1.2,6.7,4,8.5,8.2h-4.5C35.3,24.8,34.4,25,33.8,25.6z
			"/>
	</g>
</g>
</svg>
