<?xml version="1.0" encoding="utf-8"?>
<!-- Generator: Adobe Illustrator 22.1.0, SVG Export Plug-In . SVG Version: 6.00 Build 0)  -->
<svg version="1.1" id="Layer_1" xmlns="http://www.w3.org/2000/svg" xmlns:xlink="http://www.w3.org/1999/xlink" x="0px" y="0px"
	 viewBox="0 0 47 47" style="enable-background:new 0 0 47 47;" xml:space="preserve">
<style type="text/css">
	.st0{fill:#FFFFFF;}
</style>
<g id="Layer_2_1_">
	<ellipse class="st0" cx="23.5" cy="23.5" rx="23.3" ry="23.3"/>
</g>
<g id="Layer_1_1_">
	<path d="M23.5,47C10.6,47,0,36.4,0,23.5S10.6,0,23.5,0S47,10.6,47,23.5S36.5,47,23.5,47z M23.5,0.4C10.8,0.4,0.4,10.8,0.4,23.5
		c0,12.8,10.4,23.1,23.2,23.1s23.2-10.4,23.2-23.1C46.7,10.8,36.3,0.4,23.5,0.4z"/>
</g>
<g id="Layer_3">
	<g>
		<path d="M41.7,30.2H31.3v-7.1h-7.1V20c4.4-0.3,8-4,8-8.5c0-4.7-3.8-8.6-8.6-8.6c-4.7,0-8.6,3.8-8.6,8.6c0,4.4,3.4,8.1,7.8,8.5v3.2
			h-7v7.1H5.4c-0.4,0-0.7,0.3-0.7,0.7c0,0.3,0.3,0.7,0.7,0.7h10.5v7h15.5v-7h10.4c0.4,0,0.7-0.3,0.7-0.7S42.1,30.2,41.7,30.2z
			 M16.5,11.4c0-3.9,3.2-7.2,7.2-7.2s7.2,3.2,7.2,7.2s-3.2,7.2-7.2,7.2S16.5,15.4,16.5,11.4z M29.9,37.2H17.2V24.5H30L29.9,37.2
			L29.9,37.2z"/>
		<path d="M20.4,33.7c0.5,0,1.1-0.1,1.5-0.4l7.8-2.3L22,28.5c-0.5-0.3-1-0.5-1.5-0.5c-1.5,0-2.8,1.3-2.8,2.8
			C17.6,32.4,18.9,33.7,20.4,33.7z M23,29.8l3.4,1.1l-3.4,1c0.1-0.3,0.2-0.7,0.2-1.1C23.2,30.5,23.2,30.2,23,29.8z M19.2,29.4
			L19.2,29.4c0.1-0.1,0.1-0.1,0.1-0.1l0,0c0.1,0,0.1-0.1,0.1-0.1l0,0c0.1,0,0.1-0.1,0.1-0.1c0,0,0,0,0.1,0s0.1-0.1,0.1-0.1
			c0,0,0,0,0.1,0s0.1,0,0.1-0.1c0,0,0,0,0.1,0s0.1,0,0.1,0c0,0,0,0,0.1,0h0.1l0,0h0.1c0.4,0,0.8,0.1,1.1,0.4l0,0l0,0l0.1,0.1
			l0.1,0.1l0.1,0.1l0.1,0.1c0,0,0.1,0.1,0.1,0.1C22,29.9,22,30,22,30c0,0,0,0,0,0.1c0,0.1,0.1,0.1,0.1,0.1c0,0,0,0,0,0.1
			c0,0.1,0.1,0.1,0.1,0.1l0,0c0,0.1,0,0.1,0.1,0.1l0,0c0,0.1,0.1,0.3,0.1,0.4c0,0.1,0,0.3-0.1,0.4l0,0c0,0.1,0,0.1-0.1,0.1l0,0
			c0,0.1-0.1,0.1-0.1,0.1l0,0C22,31.7,22,31.8,21.9,32L21.8,32l-0.1,0.1l-0.1,0.1l-0.1,0.1l-0.1,0.1c0,0,0,0-0.1,0.1l0,0
			c-0.3,0.2-0.7,0.3-1.1,0.3h-0.1l0,0c-0.1,0-0.1,0-0.1,0c0,0,0,0-0.1,0s-0.1,0-0.1,0c0,0,0,0-0.1,0s-0.1,0-0.1-0.1c0,0,0,0-0.1,0
			s-0.1,0-0.1-0.1c0,0,0,0-0.1,0s-0.1-0.1-0.1-0.1l0,0c-0.1,0-0.1-0.1-0.1-0.1l0,0c-0.1,0-0.1-0.1-0.1-0.1l0,0
			c-0.4-0.3-0.7-0.9-0.7-1.5C18.5,30.3,18.8,29.8,19.2,29.4z"/>
	</g>
</g>
</svg>
