<?xml version="1.0" encoding="utf-8"?>
<!-- Generator: Adobe Illustrator 22.1.0, SVG Export Plug-In . SVG Version: 6.00 Build 0)  -->
<svg version="1.1" id="Layer_1" xmlns="http://www.w3.org/2000/svg" xmlns:xlink="http://www.w3.org/1999/xlink" x="0px" y="0px"
	 viewBox="0 0 47 47" style="enable-background:new 0 0 47 47;" xml:space="preserve">
<style type="text/css">
	.st0{fill:#FFFFFF;}
</style>
<g id="Layer_2_1_">
	<circle class="st0" cx="23.5" cy="23.5" r="23.3"/>
</g>
<g id="Layer_1_1_">
	<path d="M23.5,47C10.5,47,0,36.4,0,23.5C0,10.5,10.5,0,23.5,0S47,10.6,47,23.5S36.4,47,23.5,47z M23.5,0.3
		C10.7,0.3,0.3,10.7,0.3,23.5s10.4,23.2,23.2,23.2s23.2-10.4,23.2-23.2S36.3,0.3,23.5,0.3z"/>
</g>
<g id="Layer_4">
	<g>
		<path d="M38.7,11.4C38.3,9.5,35,9,33.7,8.9c-3.5-0.4-7.8,0.4-8.7,2.4v22.9v0.2c0.7,2.2,4.2,3,6.7,3h0.1c3,0,6.2-0.9,7-3v-0.1V11.4
			z M25.6,33.6V12.2h12.3v21.4H25.6z M33.5,9.7c2.3,0.2,3.9,0.9,4.3,1.7h-12C26.9,9.9,30.5,9.4,33.5,9.7z M31.6,36.6
			c-2.4,0-5.1-0.6-5.9-2.2h12C37,35.7,34.6,36.6,31.6,36.6z"/>
		<g id="Layer_3_1_">
			<g>
				<path d="M14.7,18c1.5,0,2.7-1.3,2.7-2.7s-1.3-2.7-2.7-2.7S12,13.9,12,15.3C11.9,16.9,13.2,18,14.7,18z M13.6,17l1.1-1.3l1.3,1.1
					c-0.4,0.2-0.8,0.4-1.3,0.4C14.3,17.4,13.9,17.3,13.6,17z M16.7,15.4c0,0.4-0.1,0.8-0.3,1.1l-1.3-1.1l1.1-1.2
					C16.5,14.4,16.7,14.9,16.7,15.4z M15.8,13.6l-1.1,1.2l-1.2-1.1c0.4-0.2,0.8-0.4,1.2-0.4C15.1,13.3,15.5,13.5,15.8,13.6z
					 M12.9,14.2l1.2,1.1L13,16.6c-0.2-0.4-0.4-0.8-0.4-1.2C12.7,14.9,12.8,14.5,12.9,14.2z"/>
				<path d="M21.4,13.5h-4.3l0.2,0.2c0.7,1.1,0.6,2.5-0.1,3.1L17,17.1h4.3L21.4,13.5L21.4,13.5z M21,16.9h-3.4
					c0.5-0.8,0.6-1.8,0.1-3H21V16.9z"/>
				<path d="M7.7,20.1h2c0.5,0,0.9-0.4,0.9-0.9s-0.4-0.9-0.9-0.9h-2c-0.5,0-0.9,0.4-0.9,0.9S7.1,20.1,7.7,20.1z M7.7,18.8h2
					c0.3,0,0.6,0.2,0.6,0.6S10,20,9.7,20h-2c-0.3,0-0.6-0.2-0.6-0.6C7.1,19,7.4,18.8,7.7,18.8z"/>
				<path d="M9.9,20.3H7.5v1h2.5L9.9,20.3L9.9,20.3z M9.5,20.9H7.8v-0.2h1.8V20.9z"/>
				<path d="M8,18.2h1.8c0.2,0,0.6,0.2,0.7,0.4l0.2,0.4l0.1-0.4c0.1-0.4,0.7-1,1.3-1.2l0.2-0.1l-0.2-0.2c-0.4-0.5-0.6-1-0.6-1.6l0,0
					c0-0.2,0-0.6,0.1-0.8l0.1-0.3l-0.3,0.1c-1.7,0.5-3,1.7-3.8,3.5l-0.1,0.2h0.4C8,18.2,8,18.2,8,18.2z M11.3,14.9
					c-0.1,0.2-0.1,0.4-0.1,0.6c0,0.6,0.2,1.1,0.6,1.6c-0.5,0.2-1,0.6-1.2,1.1c-0.2-0.2-0.6-0.3-0.8-0.3H8.1
					C8.9,16.4,9.9,15.4,11.3,14.9z"/>
				<path d="M14.7,24.6c1.5,0,2.7-1.3,2.7-2.7s-1.3-2.7-2.7-2.7S12,20.5,12,21.9C11.9,23.4,13.2,24.6,14.7,24.6z M13.6,23.6l1.1-1.3
					l1.3,1.1c-0.4,0.2-0.8,0.4-1.3,0.4C14.3,24,13.9,23.8,13.6,23.6z M16.7,21.9c0,0.4-0.1,0.8-0.3,1.1l-1.3-1.1l1.1-1.2
					C16.5,21,16.7,21.4,16.7,21.9z M15.8,20.1l-1.1,1.2l-1.2-1.1c0.4-0.2,0.8-0.4,1.2-0.4C15.1,19.9,15.5,20,15.8,20.1z M12.9,20.8
					l1.2,1.1L13,23.2c-0.2-0.4-0.4-0.8-0.4-1.2C12.7,21.5,12.8,21.1,12.9,20.8z"/>
				<path d="M21.4,20.1h-4.3l0.2,0.2c0.7,1.1,0.6,2.5-0.1,3.1L17,23.7h4.3L21.4,20.1L21.4,20.1z M21,23.4h-3.4
					c0.5-0.8,0.6-1.8,0.1-3H21V23.4z"/>
				<path d="M7.7,26.7h2c0.5,0,0.9-0.4,0.9-0.9s-0.4-0.9-0.9-0.9h-2c-0.5,0-0.9,0.4-0.9,0.9S7.1,26.7,7.7,26.7z M7.7,25.3h2
					c0.3,0,0.6,0.2,0.6,0.6c0,0.3-0.2,0.6-0.6,0.6h-2c-0.3,0-0.6-0.2-0.6-0.6C7.1,25.5,7.4,25.3,7.7,25.3z"/>
				<path d="M7.5,27.8h2.5v-1H7.5V27.8z M7.8,27.2h1.8v0.2H7.8V27.2z"/>
				<path d="M8,24.8h1.8c0.2,0,0.6,0.2,0.7,0.4l0.2,0.4l0.1-0.4c0.1-0.4,0.7-1,1.3-1.2l0.2-0.1l-0.2-0.2c-0.4-0.5-0.6-1-0.6-1.6l0,0
					c0-0.2,0-0.6,0.1-0.8l0.1-0.3L11.3,21c-1.7,0.5-3,1.7-3.8,3.5l-0.1,0.2h0.4C8,24.8,8,24.8,8,24.8z M11.3,21.4
					c-0.1,0.2-0.1,0.4-0.1,0.6c0,0.6,0.2,1.1,0.6,1.6c-0.5,0.2-1,0.6-1.2,1.1c-0.2-0.2-0.6-0.3-0.8-0.3H8.1
					C8.9,22.9,9.9,21.9,11.3,21.4z"/>
				<path d="M14.7,31.2c1.5,0,2.7-1.3,2.7-2.7c0-1.5-1.3-2.7-2.7-2.7S12,27,12,28.5C11.9,30,13.2,31.2,14.7,31.2z M13.6,30.2
					l1.1-1.3L16,30c-0.4,0.2-0.8,0.4-1.3,0.4C14.3,30.5,13.9,30.4,13.6,30.2z M16.7,28.5c0,0.4-0.1,0.8-0.3,1.1l-1.3-1.1l1.1-1.2
					C16.5,27.5,16.7,28,16.7,28.5z M15.8,26.7l-1.1,1.2l-1.2-1.1c0.4-0.2,0.8-0.4,1.2-0.4S15.5,26.5,15.8,26.7z M12.9,27.3l1.2,1.1
					L13,29.7c-0.2-0.4-0.4-0.8-0.4-1.2C12.7,28,12.8,27.6,12.9,27.3z"/>
				<path d="M21.4,26.5h-4.3l0.2,0.2c0.7,1.1,0.6,2.5-0.1,3.1L17,30.2h4.3L21.4,26.5L21.4,26.5z M21,29.9h-3.4
					c0.5-0.8,0.6-1.8,0.1-3H21V29.9z"/>
				<path d="M9.7,31.5h-2c-0.5,0-0.9,0.4-0.9,0.9s0.4,0.9,0.9,0.9h2c0.5,0,0.9-0.4,0.9-0.9S10.1,31.5,9.7,31.5z M9.7,32.9h-2
					c-0.3,0-0.6-0.2-0.6-0.6s0.2-0.6,0.6-0.6h2c0.3,0,0.6,0.2,0.6,0.6C10.2,32.7,9.9,32.9,9.7,32.9z"/>
				<path d="M7.5,34.3h2.5v-1H7.5V34.3z M7.8,33.8h1.8V34H7.8V33.8z"/>
				<path d="M12.2,30.2c-0.4-0.5-0.6-1-0.6-1.6c0-0.2,0-0.6,0.1-0.8l0.1-0.3l-0.3,0.1c-1.7,0.5-3,1.7-3.8,3.5l-0.1,0.2h0.4H8h1.8
					c0.2,0,0.6,0.2,0.7,0.4l0.2,0.4l0.1-0.4c0.1-0.4,0.6-1,1.3-1.2l0.2-0.1L12.2,30.2z M10.7,31.3C10.4,31,10.1,31,9.9,31H8.2
					c0.7-1.4,1.8-2.5,3.2-3c-0.1,0.2-0.1,0.4-0.1,0.6c0,0.6,0.2,1.1,0.6,1.6C11.3,30.4,10.8,30.9,10.7,31.3z"/>
				<path d="M22.1,11.7c-0.6,0-1.3,0.6-1.3,1.3v0.3h0.9v4.2h-0.9v2.3h0.9V24h-0.9v2.3h0.8v4.2h-0.8v1.4L13.7,33l-1.4,0.8v0.5h11
					v-0.1V33V13C23.3,12.3,22.7,11.7,22.1,11.7z"/>
			</g>
		</g>
	</g>
</g>
</svg>
