<?xml version="1.0" encoding="utf-8"?>
<!-- Generator: Adobe Illustrator 22.1.0, SVG Export Plug-In . SVG Version: 6.00 Build 0)  -->
<svg version="1.1" id="Layer_1" xmlns="http://www.w3.org/2000/svg" xmlns:xlink="http://www.w3.org/1999/xlink" x="0px" y="0px"
	 viewBox="0 0 46.8 46.8" style="enable-background:new 0 0 46.8 46.8;" xml:space="preserve">
<style type="text/css">
	.st0{fill:#FFFFFF;}
</style>
<g>
	<circle class="st0" cx="23.4" cy="23.4" r="23.4"/>
	<path d="M23.4,46.8C10.5,46.8,0,36.3,0,23.4S10.5,0,23.4,0s23.4,10.5,23.4,23.4S36.3,46.8,23.4,46.8z M23.4,0.3
		C10.7,0.3,0.3,10.7,0.3,23.4s10.4,23.1,23.1,23.1s23.1-10.4,23.1-23.1S36.2,0.3,23.4,0.3z"/>
	<path d="M32.8,7.6c-0.6-2.5-5-3.2-6.8-3.4c-4.8-0.5-10.5,0.5-11.8,3.3v30.9v0.2c1,2.9,5.6,4,9.1,4h0.1c4,0,8.4-1.2,9.4-4v-0.1V7.6z
		 M15.1,37.7v-29h16.6v29H15.1z M25.8,5.3c3.1,0.3,5.3,1.2,5.8,2.3H15.3C16.8,5.7,21.7,4.9,25.8,5.3z M23.2,41.7
		c-3.3,0-6.9-0.9-8-2.9h16.3C30.5,40.5,27.2,41.7,23.2,41.7z"/>
</g>
</svg>
