<?xml version="1.0" encoding="utf-8"?>
<!-- Generator: Adobe Illustrator 22.1.0, SVG Export Plug-In . SVG Version: 6.00 Build 0)  -->
<svg version="1.1" id="Layer_2_1_" xmlns="http://www.w3.org/2000/svg" xmlns:xlink="http://www.w3.org/1999/xlink" x="0px" y="0px"
	 viewBox="0 0 57.7 47" style="enable-background:new 0 0 57.7 47;" xml:space="preserve">
<style type="text/css">
	.st0{fill:#89D14A;}
</style>
<g>
	<g>
		<g>
			<path class="st0" d="M28.8,35.3c-3.3,0-5.8,2.7-5.8,5.8c0,3.3,2.6,5.8,5.8,5.8s5.8-2.7,5.8-5.8C34.7,37.8,32.1,35.3,28.8,35.3z
				 M16.5,28.6l4.1,4.2c4.6-4.6,11.9-4.6,16.5,0l4.1-4.2C34.4,21.7,23.4,21.7,16.5,28.6z M8.3,20.3l4.1,4.2c9.1-9.2,23.9-9.2,33,0
				l4.1-4.2C38.1,8.8,19.6,8.8,8.3,20.3z M0,12l4.1,4.2c13.7-13.8,35.8-13.8,49.5,0l4.1-4.2C41.8-4.1,16-4.1,0,12z"/>
		</g>
	</g>
</g>
</svg>
