<?xml version="1.0" encoding="utf-8"?>
<!-- Generator: Adobe Illustrator 22.1.0, SVG Export Plug-In . SVG Version: 6.00 Build 0)  -->
<svg version="1.1" id="Layer_1" xmlns="http://www.w3.org/2000/svg" xmlns:xlink="http://www.w3.org/1999/xlink" x="0px" y="0px"
	 viewBox="0 0 47 47" style="enable-background:new 0 0 47 47;" xml:space="preserve">
<path d="M40.1,6.8c-9.1-9.1-24-9.1-33.2,0c-9.1,9.1-9.1,24.1,0,33.3c9.1,9.1,24,9.1,33.2,0C49.3,30.9,49.3,16,40.1,6.8z M39.1,36.7
	L25.9,23.4l13.2-13.3C45.6,17.8,45.6,29.1,39.1,36.7z M36.8,7.8L23.5,21.1L10.3,7.8C17.9,1.5,29.2,1.3,36.8,7.8z M7.9,10.2
	l13.2,13.3L7.9,36.7C1.4,29.1,1.6,17.8,7.9,10.2z M10.3,38.9l13.2-13.3l13.2,13.3C29.2,45.5,17.9,45.5,10.3,38.9z"/>
</svg>
