<?xml version="1.0" encoding="utf-8"?>
<!-- Generator: Adobe Illustrator 22.1.0, SVG Export Plug-In . SVG Version: 6.00 Build 0)  -->
<svg version="1.1" id="Layer_1" xmlns="http://www.w3.org/2000/svg" xmlns:xlink="http://www.w3.org/1999/xlink" x="0px" y="0px"
	 viewBox="0 0 47 47" style="enable-background:new 0 0 47 47;" xml:space="preserve">
<style type="text/css">
	.st0{fill:#FFFFFF;}
</style>
<circle class="st0" cx="23.5" cy="23.5" r="23.5"/>
<path d="M23.5,47C10.5,47,0,36.5,0,23.5S10.5,0,23.5,0S47,10.5,47,23.5S36.5,47,23.5,47z M23.5,0.3C10.7,0.3,0.3,10.7,0.3,23.5
	s10.4,23.2,23.2,23.2s23.2-10.4,23.2-23.2S36.4,0.3,23.5,0.3z"/>
<path d="M39.4,12.6c-0.2-2.7-10.4-3.4-15.8-3.4S7.9,9.8,7.7,12.6l0,0v23.3L8,36c5.1,1.3,10.2,1.9,15.5,1.9S33.8,37.3,39,36l0.4-0.1
	V12.6L39.4,12.6z M23.5,10.1c9.5,0,14.9,1.6,14.9,2.5c0,0.6-3.7,2-14.9,2c-11,0-14.9-1.4-14.9-2C8.7,11.7,14,10.1,23.5,10.1z
	 M8.7,35V14c2.8,1.6,10.9,1.8,14.9,1.8s12-0.2,14.9-1.8v21.2C28.5,37.5,18.6,37.5,8.7,35z"/>
</svg>
