<?xml version="1.0" encoding="utf-8"?>
<!-- Generator: Adobe Illustrator 22.1.0, SVG Export Plug-In . SVG Version: 6.00 Build 0)  -->
<svg version="1.1" id="Layer_1" xmlns="http://www.w3.org/2000/svg" xmlns:xlink="http://www.w3.org/1999/xlink" x="0px" y="0px"
	 viewBox="0 0 47 47" style="enable-background:new 0 0 47 47;" xml:space="preserve">
<style type="text/css">
	.st0{fill:#FFFFFF;}
</style>
<g id="Layer_2_1_">
</g>
<g>
	<g id="Layer_1_82_">
		<circle class="st0" cx="23.5" cy="23.5" r="23.3"/>
	</g>
	<g id="Layer_2_84_">
		<path d="M23.5,47C10.6,47,0,36.6,0,23.5C0,10.6,10.6,0,23.5,0C36.6,0,47,10.6,47,23.5C47,36.6,36.6,47,23.5,47z M23.5,0.4
			C10.6,0.4,0.4,10.6,0.4,23.5s10.4,23.1,23.1,23.1c12.9,0,23.1-10.4,23.1-23.1S36.4,0.4,23.5,0.4z"/>
	</g>
	<g>
		<path d="M15.8,20.9c-3.4,0-6.2-2.8-6.2-6.2s2.8-6.2,6.2-6.2s6.2,2.8,6.2,6.2S19.2,20.9,15.8,20.9z M15.8,9.5
			c-2.9,0-5.2,2.3-5.2,5.2s2.3,5.2,5.2,5.2s5.2-2.3,5.2-5.2S18.6,9.5,15.8,9.5z"/>
		<path d="M33,37.9c-2.5,0-4.6-2.1-4.6-4.6s2.1-4.6,4.6-4.6s4.6,2.1,4.6,4.6S35.6,37.9,33,37.9z M33,29.6c-2,0-3.7,1.6-3.7,3.7
			s1.6,3.7,3.7,3.7s3.7-1.6,3.7-3.7S35,29.6,33,29.6z"/>
		<path d="M21.6,37.9H9.9V26.3h11.6V37.9z M10.9,37h9.7v-9.7h-9.7V37z"/>
		<path d="M33,21.3l-6.6-6.6L33,8.2l6.6,6.6L33,21.3z M27.8,14.8L33,20l5.2-5.2L33,9.5L27.8,14.8z"/>
		<rect x="15.3" y="20.5" width="1" height="6.3"/>
		<rect x="19.4" y="21.9" transform="matrix(0.7254 -0.6884 0.6884 0.7254 -8.3259 23.8544)" width="12.8" height="1"/>
		<rect x="32.5" y="20.6" width="1" height="8.5"/>
		<rect x="14" y="23.6" transform="matrix(0.7059 -0.7083 0.7083 0.7059 -13.7687 17.7114)" width="1" height="3.7"/>
		<rect x="26.4" y="17.6" transform="matrix(0.9982 -5.962596e-02 5.962596e-02 0.9982 -1.0278 1.7244)" width="3.9" height="0.9"/>
		<rect x="32.5" y="27.4" transform="matrix(0.7313 -0.682 0.682 0.7313 -9.7379 30.9463)" width="3.8" height="1"/>
	</g>
</g>
</svg>
