<?xml version="1.0" encoding="utf-8"?>
<!-- Generator: Adobe Illustrator 22.1.0, SVG Export Plug-In . SVG Version: 6.00 Build 0)  -->
<svg version="1.1" id="Layer_1" xmlns="http://www.w3.org/2000/svg" xmlns:xlink="http://www.w3.org/1999/xlink" x="0px" y="0px"
	 viewBox="0 0 47 47" style="enable-background:new 0 0 47 47;" xml:space="preserve">
<style type="text/css">
	.st0{fill:#FFFFFF;}
</style>
<g id="Layer_1_1_">
	<circle class="st0" cx="23.5" cy="23.5" r="23.3"/>
</g>
<g id="Layer_2_1_">
	<path d="M23.5,47C10.6,47,0,36.6,0,23.5C0,10.6,10.6,0,23.5,0C36.6,0,47,10.6,47,23.5C47,36.6,36.6,47,23.5,47z M23.5,0.4
		C10.6,0.4,0.4,10.6,0.4,23.5s10.4,23.1,23.1,23.1c12.9,0,23.1-10.4,23.1-23.1S36.4,0.4,23.5,0.4z"/>
</g>
<g id="Layer_3">
	<g>
		<path d="M36.6,10.4c-0.6-0.6-1.2-0.8-2-0.8H12.5c-1.4,0-2.8,1.2-2.8,2.8v22.1c0,1.4,1.2,2.8,2.8,2.8h21.9c1.4,0,2.8-1.2,2.8-2.8
			V12.5C37.4,11.6,37,11,36.6,10.4z M35.1,34.5c0,0.4-0.4,0.8-0.8,0.8H12.5c-0.4,0-0.8-0.4-0.8-0.8V12.5c0.2-0.4,0.4-0.8,0.8-0.8
			h22.1c0.2,0,0.4,0,0.6,0.2s0.2,0.4,0.2,0.6L35.1,34.5z"/>
		<polygon points="22.9,27.7 18.3,21.7 16.7,22.9 23.1,31.5 31.1,17.5 29.3,16.5 		"/>
	</g>
</g>
</svg>
