<?xml version="1.0" encoding="utf-8"?>
<!-- Generator: Adobe Illustrator 22.1.0, SVG Export Plug-In . SVG Version: 6.00 Build 0)  -->
<svg version="1.1" id="Layer_1" xmlns="http://www.w3.org/2000/svg" xmlns:xlink="http://www.w3.org/1999/xlink" x="0px" y="0px"
	 viewBox="0 0 47 47" style="enable-background:new 0 0 47 47;" xml:space="preserve">
<style type="text/css">
	.st0{fill:#FFFFFF;}
</style>
<g id="Layer_1_1_">
	<circle class="st0" cx="23.5" cy="23.5" r="23.3"/>
</g>
<g id="Layer_2_1_">
	<path d="M23.5,47C10.6,47,0,36.6,0,23.5C0,10.6,10.6,0,23.5,0C36.6,0,47,10.6,47,23.5C47,36.6,36.6,47,23.5,47z M23.5,0.4
		C10.6,0.4,0.4,10.6,0.4,23.5s10.4,23.1,23.1,23.1c12.9,0,23.1-10.4,23.1-23.1S36.4,0.4,23.5,0.4z"/>
</g>
<g id="Layer_3">
	<path d="M23.5,10c-3,0-17.9,0.2-17.9,3.6v14.9c0,0.8,0.6,1.8,5.8,2.6c1.4,0.2,3,0.4,4.6,0.4v8.8c0,1.4,1,2.4,2.4,2.4h10
		c1.4,0,2.4-1,2.4-2.4v-8.8c5-0.4,10.6-1.2,10.6-3V13.9C41.4,10.2,26.5,10,23.5,10z M29.9,40.4c0,0.8-0.6,1.4-1.4,1.4h-10
		c-0.8,0-1.4-0.6-1.4-1.4v-8.8c2,0.2,4.2,0.2,6.4,0.2c1,0,3.6,0,6.4-0.2V40.4z M40.6,28.5c0,1-6,2.4-17.1,2.4
		c-11.2,0-17.1-1.4-17.1-2.4V13.9c0-1.4,6.6-2.8,17.1-2.8c4.6,0,8.8,0.2,12.1,0.8c4.8,0.8,5.2,1.8,5.2,2v14.7H40.6z"/>
</g>
</svg>
