<?xml version="1.0" encoding="utf-8"?>
<!-- Generator: Adobe Illustrator 22.1.0, SVG Export Plug-In . SVG Version: 6.00 Build 0)  -->
<svg version="1.1" id="Layer_1" xmlns="http://www.w3.org/2000/svg" xmlns:xlink="http://www.w3.org/1999/xlink" x="0px" y="0px"
	 viewBox="0 0 47 47" style="enable-background:new 0 0 47 47;" xml:space="preserve">
<style type="text/css">
	.st0{fill:#FFFFFF;}
</style>
<g id="Layer_1_1_">
	<circle class="st0" cx="23.5" cy="23.5" r="23.3"/>
</g>
<g id="Layer_2_1_">
	<path d="M23.5,47C10.6,47,0,36.6,0,23.5C0,10.6,10.6,0,23.5,0C36.6,0,47,10.6,47,23.5C47,36.6,36.6,47,23.5,47z M23.5,0.4
		C10.6,0.4,0.4,10.6,0.4,23.5s10.4,23.1,23.1,23.1c12.9,0,23.1-10.4,23.1-23.1S36.4,0.4,23.5,0.4z"/>
</g>
<g id="Layer_3_copy">
	<path d="M23.5,36.8c3,0,17.9-0.2,17.9-3.6V18.3c0-0.8-0.6-1.8-5.8-2.6c-1.4-0.2-3-0.4-4.6-0.4V6.4c0-1.4-1-2.4-2.4-2.4h-10
		c-1.2,0-2.4,1.2-2.4,2.4v8.8c-5,0.4-10.4,1.2-10.4,3v14.9C5.6,36.6,20.5,36.8,23.5,36.8z M17.1,6.4c0-0.8,0.6-1.4,1.4-1.4h10
		c0.8,0,1.4,0.6,1.4,1.4v8.8c-2-0.2-4.2-0.2-6.4-0.2c-1,0-3.6,0-6.4,0.2V6.4z M6.4,18.3c0-1,6-2.4,17.1-2.4
		c11.2,0,17.1,1.4,17.1,2.4v14.9c0,1.4-6.6,2.8-17.1,2.8c-4.6,0-8.8-0.2-12.1-0.8c-4.8-0.8-5.2-1.8-5.2-2V18.3H6.4z"/>
</g>
</svg>
