<?xml version="1.0" encoding="utf-8"?>
<!-- Generator: Adobe Illustrator 22.1.0, SVG Export Plug-In . SVG Version: 6.00 Build 0)  -->
<svg version="1.1" id="Layer_1" xmlns="http://www.w3.org/2000/svg" xmlns:xlink="http://www.w3.org/1999/xlink" x="0px" y="0px"
	 viewBox="0 0 47 47" style="enable-background:new 0 0 47 47;" xml:space="preserve">
<style type="text/css">
	.st0{fill:#FFFFFF;}
</style>
<g id="Layer_2_1_">
	<ellipse class="st0" cx="23.5" cy="23.5" rx="23.3" ry="23.3"/>
</g>
<g id="Layer_1_1_">
	<path d="M23.5,47C10.5,47,0,36.5,0,23.5C0,10.5,10.5,0,23.5,0S47,10.5,47,23.5C47.1,36.5,36.5,47,23.5,47z M23.5,0.4
		C10.7,0.4,0.4,10.7,0.4,23.5s10.4,23.2,23.1,23.2c12.8,0,23.2-10.4,23.2-23.2S36.3,0.4,23.5,0.4z"/>
</g>
<g id="Layer_3">
	<g>
		<path d="M37.2,33.6c-0.9,0-1.6,0.7-1.6,1.6c0,0.9,0.7,1.6,1.6,1.6c0.9,0,1.6-0.7,1.6-1.6C38.7,34.3,38,33.6,37.2,33.6z M37.2,35.7
			c-0.3,0-0.6-0.3-0.6-0.6s0.3-0.6,0.6-0.6s0.6,0.3,0.6,0.6S37.5,35.7,37.2,35.7z"/>
		<path d="M38.5,27.4c0.1-0.2-0.8-1.2-1.2-1.5s-2.4-1-2.4-1c-0.3,0-0.5,0.2-0.5,0.5v2.2h3.9C38.5,27.5,38.5,27.5,38.5,27.4z"/>
		<path d="M30.9,33.2h-1.5v-0.3H7.4H5.8v0.8h2v0.4h1.7c-0.3,0.3-0.5,0.7-0.5,1.1c0,0.9,0.7,1.6,1.6,1.6c0.9,0,1.6-0.7,1.6-1.6
			c0,0.9,0.7,1.6,1.6,1.6c0.9,0,1.6-0.7,1.6-1.6c0-0.4-0.2-0.8-0.5-1.1h1c-0.4,0.3-0.6,0.7-0.6,1.2c0,0.9,0.7,1.6,1.6,1.6
			c0.9,0,1.7-0.7,1.7-1.6c0-0.5-0.3-0.9-0.6-1.2h0.9v1.8h5.9v-1.8H25v1.2h0.6c0.1,0.8,0.8,1.5,1.6,1.5s1.5-0.7,1.6-1.5h0.5v0.6h5.1
			v-1.9h-3.4L30.9,33.2L30.9,33.2z M17,35.8c-0.3,0-0.6-0.3-0.6-0.6s0.3-0.6,0.6-0.6c0.3,0,0.6,0.3,0.6,0.6S17.3,35.8,17,35.8z
			 M10.7,35.7c-0.3,0-0.6-0.3-0.6-0.6s0.3-0.6,0.6-0.6s0.6,0.3,0.6,0.6S11,35.7,10.7,35.7z M13.9,35.7c-0.3,0-0.6-0.3-0.6-0.6
			s0.3-0.6,0.6-0.6s0.6,0.3,0.6,0.6S14.2,35.7,13.9,35.7z M12.3,35.1c0-0.4-0.2-0.8-0.5-1.1h0.9C12.5,34.3,12.3,34.7,12.3,35.1z
			 M27.2,35.7c-0.3,0-0.6-0.3-0.6-0.6s0.3-0.6,0.6-0.6c0.3,0,0.6,0.3,0.6,0.6S27.5,35.7,27.2,35.7z"/>
		<path d="M38.3,32.7c0.8,0.1,1.2,0.6,1.5,1.3h1.5c0.5-0.4,0.5-0.9,0.1-1.5l-0.1-2.1L40,27.7h-5.5v0.6h-0.3v-1.8h-0.3
			c0-0.6-0.3-1-0.8-1.2v0.3c0.4,0.1,0.5,0.4,0.5,0.9h-0.4v5.8h0.3c0.1,0.7,0.3,1.1,0.9,1.3v2.2h0.8c0-3.1,3.8-3.2,3.8,0h2l0.2-1.4
			h-1.8c-0.1-0.8-0.6-1.2-1.3-1.3h-3.6v0.3c-0.4-0.3-0.6-0.5-0.6-1h0.3v-0.7h0.3v1L38.3,32.7L38.3,32.7z M37.5,28.1h2.2l1.2,2.3v0.5
			l0,0l-3.4-0.4C37.5,30.5,37.5,28.1,37.5,28.1z M35.2,28.1h1.9v2.2h-1.9V28.1z M34.2,31.5v-2.9h0.3v2.9H34.2z"/>
		<path d="M31.2,32.5c1-0.8,1.5-2.2,1.6-3.7c0-1.6-0.6-3.1-1.5-3.9l-0.1-0.1H5.6l-0.1,0.1c-1,1-1.5,2.5-1.5,4.1
			c0.1,1.5,0.6,2.8,1.5,3.5l0.1,0.1h25.5L31.2,32.5z M32.2,28.8c0,1.3-0.5,2.4-1.2,3.1v-6.5C31.8,26.2,32.2,27.5,32.2,28.8z
			 M6.3,25.3h24.3v6.7H6.3V25.3z M4.6,28.9c-0.1-1.4,0.4-2.7,1.2-3.5V32C5.1,31.3,4.7,30.2,4.6,28.9z"/>
		<path d="M16.4,14.1v9.8h11.7v-9.8L28.1,14c-3.7-1.8-7.5-1.8-11.5,0L16.4,14.1z M16.9,23.4v-8.6h10.7v8.7L16.9,23.4L16.9,23.4z
			 M27.4,14.3H17.3C20.7,12.8,24.2,12.8,27.4,14.3z"/>
		<rect x="8.2" y="10.7" width="0" height="0.4"/>
		<path d="M16.1,22.2v-8.4l0.3-0.1c2-0.9,4-1.4,5.9-1.4v-1.3h-14v11.1H16.1z"/>
		<path d="M22.2,10.5c-4.4-2.2-9-2.3-14,0v0.2h14V10.5z"/>
	</g>
</g>
</svg>
