<?xml version="1.0" encoding="utf-8"?>
<!-- Generator: Adobe Illustrator 22.1.0, SVG Export Plug-In . SVG Version: 6.00 Build 0)  -->
<svg version="1.1" id="Layer_1" xmlns="http://www.w3.org/2000/svg" xmlns:xlink="http://www.w3.org/1999/xlink" x="0px" y="0px"
	 viewBox="0 0 47 47" style="enable-background:new 0 0 47 47;" xml:space="preserve">
<style type="text/css">
	.st0{fill:#FFFFFF;}
</style>
<g id="Layer_1_1_">
</g>
<g id="Ic_Delete_1">
	<g>
		<path class="st0" d="M44.8,4h-2.7H30.7V0H17.5v4H6.3H3.7v1.9h2.7v35.6c0,3.2,2.7,5.6,5.6,5.6h24.7c3.2,0,5.6-2.7,5.6-5.6V5.8h2.7
			C44.8,5.8,44.8,4,44.8,4z M40.3,41.4c0,2.1-1.9,4-4,4H11.6c-2.1,0-4-1.9-4-4V5.8H40v35.6H40.3z"/>
		<rect x="23.3" y="13" class="st0" width="1.9" height="26.6"/>
		<rect x="30.5" y="13" class="st0" width="1.9" height="26.6"/>
		<rect x="16.1" y="13" class="st0" width="1.9" height="26.6"/>
	</g>
</g>
</svg>
