<?xml version="1.0" encoding="utf-8"?>
<!-- Generator: Adobe Illustrator 22.1.0, SVG Export Plug-In . SVG Version: 6.00 Build 0)  -->
<svg version="1.1" id="Layer_1" xmlns="http://www.w3.org/2000/svg" xmlns:xlink="http://www.w3.org/1999/xlink" x="0px" y="0px"
	 viewBox="0 0 47 47" style="enable-background:new 0 0 47 47;" xml:space="preserve">
<style type="text/css">
	.st0{fill:#FFFFFF;}
</style>
<g>
	<circle class="st0" cx="23.5" cy="23.5" r="23.3"/>
	<path d="M23.5,47C10.5,47,0,36.5,0,23.5S10.5,0,23.5,0S47,10.5,47,23.5S36.5,47,23.5,47z M23.5,0.5c-12.7,0-23,10.3-23,23
		s10.3,23,23,23s23-10.3,23-23S36.2,0.5,23.5,0.5z"/>
	<path d="M39.9,15.1l-0.1-0.2H7l-0.1,0.2c-2.8,3.4-2.8,10.7,0,13.9l0.1,0.2h20.3v5.3l0,0.2c0.6,1.3,1.9,2.1,3.5,2.1c0,0,0,0,0,0
		c1.6,0,2.9-0.8,3.5-2.1l0-5.5h5.3l0.1-0.1C43.1,25.8,43.1,18.5,39.9,15.1z M33.5,33.5h-5.1l0-5.3H8.1V15.9h30.6v12.3h-5.2
		L33.5,33.5z M7.2,16.5v11.3C5.3,24.8,5.3,19.5,7.2,16.5z M30.9,35.8C30.9,35.8,30.9,35.8,30.9,35.8c-0.9,0-1.9-0.3-2.5-1.2h4.9
		C32.8,35.4,31.8,35.8,30.9,35.8z M39.7,27.7V16.4C41.8,19.5,41.8,24.8,39.7,27.7z"/>
</g>
</svg>
