<?xml version="1.0" encoding="utf-8"?>
<!-- Generator: Adobe Illustrator 22.1.0, SVG Export Plug-In . SVG Version: 6.00 Build 0)  -->
<svg version="1.1" id="Layer_1" xmlns="http://www.w3.org/2000/svg" xmlns:xlink="http://www.w3.org/1999/xlink" x="0px" y="0px"
	 viewBox="0 0 47 47" style="enable-background:new 0 0 47 47;" xml:space="preserve">
<style type="text/css">
	.st0{fill:#FFFFFF;}
</style>
<circle class="st0" cx="23.5" cy="23.5" r="23.5"/>
<path d="M23.5,47C10.5,47,0,36.5,0,23.5S10.5,0,23.5,0S47,10.5,47,23.5S36.5,47,23.5,47z M23.5,0.3C10.7,0.3,0.3,10.7,0.3,23.5
	s10.4,23.2,23.2,23.2s23.2-10.4,23.2-23.2S36.4,0.3,23.5,0.3z"/>
<g id="Layer_2_1_">
	<g>
		<g>
			<path d="M33.7,37.3h-22c-1.1,0-2.1-0.9-2.1-2.1V13.3c0-1.1,0.9-2.1,2.1-2.1h22c1.1,0,2.1,0.9,2.1,2.1v3.8H35v-3.8
				c0-0.7-0.6-1.3-1.3-1.3h-22c-0.7,0-1.3,0.6-1.3,1.3v21.9c0,0.7,0.6,1.3,1.3,1.3h22c0.7,0,1.3-0.6,1.3-1.3v-6.9h0.8v6.9
				C35.8,36.4,34.8,37.3,33.7,37.3z"/>
			<rect x="14.9" y="17" width="12.3" height="0.8"/>
			<rect x="14.9" y="21.6" width="12.3" height="0.8"/>
			<rect x="14.9" y="26.2" width="12.3" height="0.8"/>
			<rect x="14.9" y="30.8" width="14.6" height="0.8"/>
			<g>
				<g>
					<path d="M35.4,28.6c-2.1,0-4.2-0.3-6.2-1l-0.3-0.1v-9.4h0.8v8.8c3.8,1.2,7.7,1.2,11.4,0v-8.8h0.8v9.4l-0.3,0.1
						C39.5,28.2,37.5,28.6,35.4,28.6z"/>
				</g>
				<path d="M35.4,19.5c-4.3,0-6.5-0.5-6.5-1.4c0-1.5,5.8-1.6,6.5-1.6s6.5,0,6.5,1.6C41.8,19.1,39.6,19.5,35.4,19.5z M29.6,18.1
					c0.4,0.3,2.1,0.6,5.7,0.6s5.3-0.4,5.7-0.6c-0.4-0.3-2.3-0.8-5.7-0.8S30,17.8,29.6,18.1z"/>
			</g>
		</g>
	</g>
</g>
</svg>
