<?xml version="1.0" encoding="utf-8"?>
<!-- Generator: Adobe Illustrator 22.1.0, SVG Export Plug-In . SVG Version: 6.00 Build 0)  -->
<svg version="1.1" id="Layer_1" xmlns="http://www.w3.org/2000/svg" xmlns:xlink="http://www.w3.org/1999/xlink" x="0px" y="0px"
	 viewBox="0 0 47 47" style="enable-background:new 0 0 47 47;" xml:space="preserve">
<style type="text/css">
	.st0{fill:#FFFFFF;}
</style>
<g id="Layer_2_1_">
	<circle class="st0" cx="23.5" cy="23.5" r="23.3"/>
</g>
<g id="Layer_1_1_">
	<path d="M23.5,47C10.5,47,0,36.4,0,23.5C0,10.5,10.5,0,23.5,0S47,10.6,47,23.5S36.4,47,23.5,47z M23.5,0.3
		C10.7,0.3,0.3,10.7,0.3,23.5s10.4,23.2,23.2,23.2s23.2-10.4,23.2-23.2S36.3,0.3,23.5,0.3z"/>
</g>
<g id="Layer_3">
	<g>
		<path d="M39.2,26.5c-1,0-1.7,0.8-1.7,1.7c0,1,0.8,1.7,1.7,1.7s1.7-0.8,1.7-1.7C40.9,27.2,40.2,26.5,39.2,26.5z M39.2,28.8
			c-0.3,0-0.6-0.2-0.6-0.6s0.2-0.6,0.6-0.6s0.6,0.2,0.6,0.6S39.5,28.8,39.2,28.8z"/>
		<path d="M40.7,19.8c0.1-0.2-0.9-1.3-1.3-1.6c-0.4-0.3-2.6-1.1-2.6-1.1c-0.2,0-0.5,0.2-0.5,0.5v2.3h4.3
			C40.7,19.9,40.7,19.8,40.7,19.8z"/>
		<path d="M32.4,26.1h-1.6v-0.3h-24H5.2v0.8h2.2v0.4h1.8c-0.3,0.3-0.5,0.7-0.5,1.2c0,1,0.8,1.7,1.7,1.7c1,0,1.7-0.7,1.7-1.7
			c0,1,0.8,1.7,1.7,1.7c1,0,1.7-0.8,1.7-1.7c0-0.5-0.2-0.9-0.5-1.2h1.1c-0.4,0.3-0.6,0.8-0.6,1.3c0,1,0.8,1.7,1.7,1.7
			c1,0,1.7-0.8,1.7-1.7c0-0.6-0.2-1-0.6-1.3h1v1.9h6.4v-1.9h0.2v1.3h0.6c0.1,0.9,0.8,1.6,1.7,1.6s1.7-0.7,1.7-1.6h0.5v0.6h5.8v-2.1
			h-3.7V26.1z M17.3,29c-0.3,0-0.6-0.2-0.6-0.6s0.2-0.6,0.6-0.6c0.3,0,0.6,0.2,0.6,0.6S17.6,29,17.3,29z M10.4,28.8
			c-0.3,0-0.6-0.2-0.6-0.6s0.2-0.6,0.6-0.6c0.3,0,0.6,0.2,0.6,0.6S10.8,28.8,10.4,28.8z M13.9,28.8c-0.3,0-0.6-0.2-0.6-0.6
			s0.2-0.6,0.6-0.6c0.3,0,0.6,0.2,0.6,0.6S14.2,28.8,13.9,28.8z M12.2,28.2c0-0.5-0.2-0.9-0.5-1.1h1C12.4,27.3,12.2,27.7,12.2,28.2z
			 M28.4,28.8c-0.3,0-0.6-0.2-0.6-0.6s0.2-0.6,0.6-0.6s0.6,0.2,0.6,0.6S28.7,28.8,28.4,28.8z"/>
		<path d="M40.4,25.5c0.8,0.1,1.3,0.6,1.5,1.4h1.6c0.5-0.4,0.6-1,0.1-1.6L43.6,23l-1.3-2.9h-6v0.6h-0.3v-1.9h-0.2
			c0-0.6-0.3-1-0.9-1.2V18c0.4,0.1,0.6,0.4,0.6,0.9H35v6.3h0.3c0,0.7,0.3,1.1,1,1.4v2.3h0.9c0-3.4,4.1-3.4,4.1,0h2.2l0.2-1.4h-1.9
			c-0.2-0.8-0.6-1.3-1.4-1.4h-3.9v0.2c-0.5-0.2-0.6-0.6-0.6-1H36v-0.7h0.3v1.1L40.4,25.5L40.4,25.5z M39.5,20.5h2.4l1.2,2.5v0.6l0,0
			l-3.7-0.4L39.5,20.5L39.5,20.5z M37.1,20.5h2v2.4h-2V20.5z M36,24.1v-3.2h0.3v3.2H36z"/>
		<path d="M32.7,25.3c1-0.9,1.7-2.3,1.7-4S33.8,18,32.7,17l-0.1-0.1H5L4.9,17c-1,1-1.6,2.6-1.5,4.4C3.4,23,4,24.4,5,25.3l0.1,0.1
			L32.7,25.3L32.7,25.3z M33.8,21.3c0,1.4-0.5,2.6-1.3,3.4v-7.1C33.4,18.5,33.8,19.8,33.8,21.3z M5.6,17.5H32v7.3H5.6V17.5z
			 M3.8,21.4c-0.1-1.4,0.4-2.9,1.2-3.8v7.1C4.3,24,3.8,22.8,3.8,21.4z"/>
	</g>
</g>
</svg>
