<?xml version="1.0" encoding="utf-8"?>
<!-- Generator: Adobe Illustrator 22.1.0, SVG Export Plug-In . SVG Version: 6.00 Build 0)  -->
<svg version="1.1" id="Layer_2" xmlns="http://www.w3.org/2000/svg" xmlns:xlink="http://www.w3.org/1999/xlink" x="0px" y="0px"
	 viewBox="0 0 47 47" style="enable-background:new 0 0 47 47;" xml:space="preserve">
<style type="text/css">
	.st0{fill:#FFFFFF;}
</style>
<g>
	<circle class="st0" cx="23.5" cy="23.5" r="23.3"/>
	<g id="Turbine_Meter_2_">
		<path d="M16.3,32.5H5.8c-0.4,0-0.7-0.3-0.7-0.7l0,0c0-0.4,0.3-0.7,0.7-0.7h10.4c0.4,0,0.7,0.3,0.7,0.7l0,0
			C17,32.2,16.7,32.5,16.3,32.5z"/>
		<path d="M30.5,32.5H41c0.4,0,0.7-0.3,0.7-0.7l0,0c0-0.4-0.3-0.7-0.7-0.7H30.5c-0.4,0-0.7,0.3-0.7,0.7l0,0
			C29.9,32.2,30.2,32.5,30.5,32.5z"/>
		<path d="M23.5,21.4c-4.6,0-8.4-3.8-8.4-8.4s3.8-8.4,8.4-8.4s8.4,3.8,8.4,8.4S28.1,21.4,23.5,21.4z M23.5,6.2c-3.7,0-6.7,3-6.7,6.7
			s3,6.7,6.7,6.7s6.7-3,6.7-6.7S27.2,6.2,23.5,6.2z"/>
		<rect x="22.3" y="20.5" width="2.2" height="4.4"/>
		<path d="M31.1,39.4H15.8V24.1h15.3V39.4z M17.5,37.7h12v-12h-12V37.7z"/>
		<g>
			<path d="M23.5,32.5l-0.4-0.4c-0.3-0.3-2-2-2-3.2c0-1.3,1.1-2.4,2.4-2.4s2.4,1.1,2.4,2.4c0,1.2-1.7,2.9-2,3.2L23.5,32.5z
				 M23.5,27.6c-0.7,0-1.3,0.6-1.3,1.3c0,0.4,0.6,1.3,1.3,2c0.6-0.7,1.3-1.6,1.3-2C24.8,28.2,24.2,27.6,23.5,27.6z"/>
			<path d="M23.5,36.9c-1.3,0-2.4-1.1-2.4-2.4c0-1.2,1.7-2.9,2-3.2l0.4-0.4l0.4,0.4c0.3,0.3,2,2,2,3.2
				C25.9,35.8,24.8,36.9,23.5,36.9z M23.5,32.5c-0.6,0.7-1.3,1.6-1.3,2c0,0.7,0.6,1.3,1.3,1.3c0.7,0,1.3-0.6,1.3-1.3
				C24.8,34.1,24.2,33.2,23.5,32.5z"/>
		</g>
	</g>
	<path d="M23.5,47C10.5,47,0,36.5,0,23.5S10.5,0,23.5,0S47,10.5,47,23.5S36.5,47,23.5,47z M23.5,0.5c-12.7,0-23,10.3-23,23
		c0,12.7,10.3,23,23,23s23-10.3,23-23C46.5,10.8,36.2,0.5,23.5,0.5z"/>
</g>
</svg>
