<?xml version="1.0" encoding="utf-8"?>
<!-- Generator: Adobe Illustrator 22.1.0, SVG Export Plug-In . SVG Version: 6.00 Build 0)  -->
<svg version="1.1" id="Layer_1" xmlns="http://www.w3.org/2000/svg" xmlns:xlink="http://www.w3.org/1999/xlink" x="0px" y="0px"
	 viewBox="0 0 47 47" style="enable-background:new 0 0 47 47;" xml:space="preserve">
<style type="text/css">
	.st0{fill:#FFFFFF;}
</style>
<g id="Layer_1_1_">
	<circle class="st0" cx="23.5" cy="23.5" r="23.3"/>
</g>
<g id="Layer_2_1_">
	<path d="M23.5,47C10.6,47,0,36.6,0,23.5C0,10.6,10.6,0,23.5,0C36.6,0,47,10.6,47,23.5C47,36.6,36.6,47,23.5,47z M23.5,0.4
		C10.6,0.4,0.4,10.6,0.4,23.5s10.4,23.1,23.1,23.1c12.9,0,23.1-10.4,23.1-23.1S36.4,0.4,23.5,0.4z"/>
</g>
<g id="Layer_3">
	<g>
		<path d="M42.2,31.9H31.3v-7h-7v-3.4c4.6-0.4,8.2-4,8.2-8.8s-4-8.8-8.8-8.8s-8.8,4-8.8,8.8c0,4.6,3.4,8.2,8,8.6v3.4h-7v7h-11
			C4.4,31.9,4,32.1,4,32.5s0.4,0.8,0.8,0.8h11v7h15.5v-7h10.8c0.4,0,0.8-0.4,0.8-0.8S42.6,31.9,42.2,31.9z M16.3,12.7
			c0-4,3.2-7.2,7.2-7.2s7.2,3.2,7.2,7.2s-3.2,7.2-7.2,7.2C19.7,19.9,16.3,16.7,16.3,12.7z M30.3,39.4H16.9V25.9h13.5
			C30.3,25.9,30.3,39.4,30.3,39.4z"/>
		<path d="M20.3,32.9c0.4,0.4,0.8,0.8,1.6,0.8c0.4,0,1-0.2,1.6-0.8l-0.6-0.8c-1,0.8-1.2,0.6-1.8,0c-0.6-0.6-1.6-1.6-3.2,0l0.8,0.8
			C19.3,32.1,19.7,32.3,20.3,32.9z"/>
		<path d="M26.3,32.9c0.4,0.4,0.8,0.8,1.6,0.8c0.4,0,1-0.2,1.6-0.8l-0.6-0.8c-1,0.8-1.2,0.6-1.8,0c-0.6-0.6-1.6-1.6-3.2,0l0.8,0.8
			C25.3,32.1,25.7,32.3,26.3,32.9z"/>
	</g>
</g>
</svg>
