<?xml version="1.0" encoding="utf-8"?>
<!-- Generator: Adobe Illustrator 22.1.0, SVG Export Plug-In . SVG Version: 6.00 Build 0)  -->
<svg version="1.1" id="Layer_1" xmlns="http://www.w3.org/2000/svg" xmlns:xlink="http://www.w3.org/1999/xlink" x="0px" y="0px"
	 viewBox="0 0 47 47" style="enable-background:new 0 0 47 47;" xml:space="preserve">
<style type="text/css">
	.st0{fill:#FFFFFF;}
</style>
<g id="Layer_1_1_">
	<circle class="st0" cx="23.5" cy="23.5" r="23.3"/>
</g>
<g id="Layer_2_1_">
	<path d="M23.5,47C10.6,47,0,36.6,0,23.5C0,10.6,10.6,0,23.5,0C36.6,0,47,10.6,47,23.5C47,36.6,36.6,47,23.5,47z M23.5,0.4
		C10.6,0.4,0.4,10.6,0.4,23.5s10.4,23.1,23.1,23.1c12.9,0,23.1-10.4,23.1-23.1S36.4,0.4,23.5,0.4z"/>
</g>
<g id="V-Cone_Meter_1_">
	<path d="M16.5,32.1H6.2c-0.4,0-0.7-0.3-0.7-0.7l0,0c0-0.4,0.3-0.7,0.7-0.7h10.3c0.4,0,0.7,0.3,0.7,0.7l0,0
		C17.2,31.8,16.9,32.1,16.5,32.1z"/>
	<path d="M30.5,32.1h10.3c0.4,0,0.7-0.3,0.7-0.7l0,0c0-0.4-0.3-0.7-0.7-0.7H30.5c-0.4,0-0.7,0.3-0.7,0.7l0,0
		C29.9,31.8,30.2,32.1,30.5,32.1z"/>
	<path d="M23.6,21c-4.5,0-8.1-3.6-8.1-8.1c0-4.5,3.6-8.1,8.1-8.1c4.5,0,8.1,3.6,8.1,8.1C31.7,17.4,28.1,21,23.6,21z M23.6,6.1
		c-3.8,0-6.8,3.1-6.8,6.8s3.1,6.8,6.8,6.8c3.8,0,6.8-3.1,6.8-6.8S27.3,6.1,23.6,6.1z"/>
	<rect x="22.8" y="20.4" width="1.3" height="4.3"/>
	<path d="M30.9,38.8H16.2V24h14.8V38.8z M17.5,37.5h12.1V25.3H17.5V37.5z"/>
	<path d="M28,36.5l-6.8-5l6.8-5V36.5z M23.4,31.5l3.2,2.4V29L23.4,31.5z"/>
	<polygon points="22.6,32.1 19,32.1 19,24.7 20.3,24.7 20.3,30.8 22.6,30.8 	"/>
</g>
</svg>
