<?xml version="1.0" encoding="utf-8"?>
<!-- Generator: Adobe Illustrator 22.1.0, SVG Export Plug-In . SVG Version: 6.00 Build 0)  -->
<svg version="1.1" id="Layer_1" xmlns="http://www.w3.org/2000/svg" xmlns:xlink="http://www.w3.org/1999/xlink" x="0px" y="0px"
	 viewBox="0 0 47 47" style="enable-background:new 0 0 47 47;" xml:space="preserve">
<style type="text/css">
	.st0{fill:#FFFFFF;}
</style>
<g id="Layer_2_1_">
	<ellipse class="st0" cx="23.5" cy="23.5" rx="23.3" ry="23.3"/>
</g>
<g id="Layer_1_1_">
	<path d="M23.5,47C10.5,47,0,36.5,0,23.5C0,10.5,10.5,0,23.5,0S47,10.5,47,23.5C47.1,36.5,36.5,47,23.5,47z M23.5,0.4
		C10.7,0.4,0.4,10.7,0.4,23.5s10.4,23.2,23.1,23.2c12.8,0,23.2-10.4,23.2-23.2S36.3,0.4,23.5,0.4z"/>
</g>
<g id="Layer_3">
	<path d="M27.1,8.3c-8.6,0-15.6,7-15.6,15.6c0,0.9,0,1.9,0,2.8c-3.9,0.5-6.3,1.9-6.3,3.6c0,2.5,4.9,3.8,9.5,3.8s9.5-1.4,9.5-3.8
		c0-1.7-2.3-3-6-3.6c0-1,0-1.9,0-2.8c0-5,4-9,9-9s9,4,9,9v0.5h6.6v-0.5C42.8,15.2,35.8,8.3,27.1,8.3z M23.1,30.2
		c0,1.3-3.6,2.8-8.4,2.8s-8.4-1.5-8.4-2.8c0-0.9,1.9-2.1,5.3-2.6c0,1.4,0,2.5,0,2.6v0.3l0.3,0.2c0.9,0.5,1.9,0.7,2.9,0.7
		s2-0.2,3.1-0.7l0.4-0.2v-0.5c0-0.4,0-1.3,0-2.4C21.4,28.2,23.1,29.4,23.1,30.2z M37.2,23.3c-0.3-5.3-4.7-9.5-10-9.5
		c-5.5,0-10,4.5-10,10c0,2.2,0,5,0,6c-1.7,0.6-3.2,0.6-4.6,0c0-1,0-3.9,0-6c0-8,6.5-14.5,14.6-14.5c7.9,0,14.3,6.3,14.6,14
		L37.2,23.3L37.2,23.3z"/>
</g>
</svg>
