<?xml version="1.0" encoding="utf-8"?>
<!-- Generator: Adobe Illustrator 22.1.0, SVG Export Plug-In . SVG Version: 6.00 Build 0)  -->
<svg version="1.1" id="Layer_1" xmlns="http://www.w3.org/2000/svg" xmlns:xlink="http://www.w3.org/1999/xlink" x="0px" y="0px"
	 viewBox="0 0 47 47" style="enable-background:new 0 0 47 47;" xml:space="preserve">
<style type="text/css">
	.st0{fill:#FFFFFF;}
</style>
<circle class="st0" cx="23.5" cy="23.5" r="23.5"/>
<path d="M23.5,47C10.5,47,0,36.5,0,23.5S10.5,0,23.5,0S47,10.5,47,23.5S36.5,47,23.5,47z M23.5,0.3C10.7,0.3,0.3,10.7,0.3,23.5
	s10.4,23.2,23.2,23.2s23.2-10.4,23.2-23.2S36.4,0.3,23.5,0.3z"/>
<path d="M32.9,7.6c-0.6-2.5-5-3.2-6.8-3.4c-4.8-0.5-10.5,0.5-11.9,3.3v31v0.2c1,2.9,5.6,4,9.1,4h0.1c4,0,8.4-1.2,9.4-4v-0.1V7.6z
	 M15.2,37.9V8.7h16.7v29.1H15.2z M25.9,5.3c3.1,0.3,5.3,1.2,5.8,2.3H15.4C16.9,5.7,21.8,4.9,25.9,5.3z M23.3,41.9
	c-3.3,0-6.9-0.9-8-2.9h16.4C30.6,40.7,27.3,41.9,23.3,41.9z"/>
</svg>
