<?xml version="1.0" encoding="utf-8"?>
<!-- Generator: Adobe Illustrator 22.1.0, SVG Export Plug-In . SVG Version: 6.00 Build 0)  -->
<svg version="1.1" id="Layer_1" xmlns="http://www.w3.org/2000/svg" xmlns:xlink="http://www.w3.org/1999/xlink" x="0px" y="0px"
	 viewBox="0 0 47 47" style="enable-background:new 0 0 47 47;" xml:space="preserve">
<style type="text/css">
	.st0{fill:#FFFFFF;}
</style>
<g id="Layer_1_1_">
	<circle class="st0" cx="23.5" cy="23.5" r="23.3"/>
</g>
<g id="Layer_2_1_">
	<path d="M23.5,47C10.6,47,0,36.6,0,23.5C0,10.6,10.6,0,23.5,0C36.6,0,47,10.6,47,23.5C47,36.6,36.6,47,23.5,47z M23.5,0.4
		C10.6,0.4,0.4,10.6,0.4,23.5s10.4,23.1,23.1,23.1c12.9,0,23.1-10.4,23.1-23.1S36.4,0.4,23.5,0.4z"/>
</g>
<g id="Vortex_Meter_1_">
	<path d="M16.2,33.2H5.5c-0.4,0-0.7-0.3-0.7-0.7l0,0c0-0.4,0.3-0.7,0.7-0.7h10.7c0.4,0,0.7,0.3,0.7,0.7l0,0
		C16.9,32.9,16.6,33.2,16.2,33.2z"/>
	<path d="M30.8,33.2h10.7c0.4,0,0.7-0.3,0.7-0.7l0,0c0-0.4-0.3-0.7-0.7-0.7H30.8c-0.4,0-0.7,0.3-0.7,0.7l0,0
		C30.1,32.9,30.4,33.2,30.8,33.2z"/>
	<path d="M23.6,21.7c-4.7,0-8.4-3.8-8.4-8.4c0-4.7,3.8-8.4,8.4-8.4S32,8.6,32,13.3C32,17.9,28.3,21.7,23.6,21.7z M23.6,6.2
		c-3.9,0-7.1,3.2-7.1,7.1s3.2,7.1,7.1,7.1s7.1-3.2,7.1-7.1S27.5,6.2,23.6,6.2z"/>
	<rect x="22.8" y="21" width="1.4" height="4.5"/>
	<path d="M31.2,40.1H15.9V24.8h15.3V40.1z M17.3,38.8h12.6V26.2H17.3V38.8z"/>
	<path d="M20.2,37.7V27.3l7.1,5.2L20.2,37.7z M21.6,30v5l3.4-2.5L21.6,30z"/>
</g>
</svg>
