<?xml version="1.0" encoding="utf-8"?>
<!-- Generator: Adobe Illustrator 22.1.0, SVG Export Plug-In . SVG Version: 6.00 Build 0)  -->
<svg version="1.1" id="Layer_1" xmlns="http://www.w3.org/2000/svg" xmlns:xlink="http://www.w3.org/1999/xlink" x="0px" y="0px"
	 viewBox="0 0 47 47" style="enable-background:new 0 0 47 47;" xml:space="preserve">
<style type="text/css">
	.st0{fill:#319AF0;}
</style>
<path class="st0" d="M12.6,24.4c0,0.2,0.1,0.4,0.1,0.6c0,0,0,0,0,0c0,0.2,0.1,0.4,0.1,0.6c0,0.1,0.1,0.3,0.1,0.4
	c0,0.1,0,0.2,0.1,0.3c0,0.1,0.1,0.3,0.1,0.4c0.1,0.4,0.3,0.7,0.5,1.1c0,0.1,0.1,0.2,0.1,0.3c0.1,0.1,0.1,0.2,0.2,0.3
	c0.1,0.2,0.3,0.5,0.4,0.7c0.1,0.2,0.3,0.4,0.4,0.6L0,44.5L2.5,47l13.7-13.7l1.1-1.1c0.2,0.1,0.4,0.3,0.6,0.4
	c0.2,0.1,0.4,0.2,0.6,0.4c0,0,0,0,0.1,0c0.2,0.1,0.3,0.2,0.5,0.3c0.2,0.1,0.5,0.2,0.8,0.3c0.2,0.1,0.4,0.2,0.7,0.3c0,0,0,0,0,0
	c0.2,0.1,0.3,0.1,0.5,0.2c0.1,0,0.2,0.1,0.3,0.1c0.2,0,0.4,0.1,0.5,0.1c0.2,0,0.4,0.1,0.7,0.1c0,0,0,0,0.1,0
	c0.6,0.1,1.2,0.1,1.8,0.1c0.6,0,1.2,0,1.8-0.1c0,0,0,0,0.1,0c0.2,0,0.4-0.1,0.7-0.1c0.3,0,0.5-0.1,0.8-0.2c0.2-0.1,0.4-0.1,0.6-0.2
	c0.2-0.1,0.5-0.2,0.7-0.3c0.2-0.1,0.4-0.2,0.7-0.3c0.7-0.3,1.3-0.7,1.8-1.1l0,0c0.9-0.7,1.8-1.5,2.5-2.5l0,0
	c0.6-0.8,1.1-1.6,1.4-2.5c0.2-0.4,0.3-0.9,0.5-1.4c0.1-0.5,0.2-1,0.3-1.5h0c0.1-0.6,0.1-1.2,0.1-1.8c0-0.6,0-1.2-0.1-1.8h0
	c-0.1-0.5-0.2-1-0.3-1.5c0-0.2-0.1-0.4-0.2-0.5c0-0.2-0.1-0.3-0.2-0.5c-0.4-1.1-0.9-2-1.6-2.9l0,0l1.1-1.1l5-5l2.6,2.6l1.5-6.6L47,0
	l-5.3,2.8l-6.7,1.4l2.6,2.6L31.6,13c-0.6-0.4-1.2-0.8-1.8-1.1c-0.2-0.1-0.4-0.2-0.7-0.3c-0.2-0.1-0.5-0.2-0.7-0.3
	c-0.2-0.1-0.5-0.1-0.7-0.2c-0.2-0.1-0.5-0.1-0.7-0.2c-0.2,0-0.4-0.1-0.7-0.1c0,0,0,0-0.1,0c-0.6-0.1-1.2-0.1-1.8-0.1
	c-0.6,0-1.2,0-1.8,0.1c0,0,0,0-0.1,0c-0.2,0-0.5,0.1-0.7,0.1c-0.2,0-0.5,0.1-0.7,0.2c-0.2,0.1-0.5,0.1-0.7,0.2c0,0,0,0,0,0
	c-0.2,0.1-0.4,0.2-0.7,0.3c-0.3,0.1-0.5,0.2-0.8,0.3c-0.2,0.1-0.3,0.2-0.5,0.3c0,0,0,0-0.1,0c-0.2,0.1-0.4,0.2-0.6,0.4
	c-0.2,0.1-0.4,0.3-0.6,0.4c-0.9,0.7-1.8,1.5-2.5,2.5c-0.1,0.2-0.3,0.4-0.4,0.6c-0.1,0.2-0.2,0.4-0.3,0.6c0,0,0,0.1-0.1,0.1
	c-0.1,0.1-0.1,0.3-0.2,0.4c-0.2,0.4-0.4,0.9-0.6,1.4c0,0.1-0.1,0.2-0.1,0.3c0,0.1-0.1,0.3-0.1,0.4c-0.1,0.5-0.3,1-0.3,1.5
	c-0.1,0.6-0.1,1.2-0.1,1.8C12.5,23.1,12.5,23.7,12.6,24.4C12.6,24.3,12.6,24.3,12.6,24.4z M31.7,17.8c2.2,3.4,1.9,8-1.1,10.9
	c-3,3-7.5,3.3-10.9,1.1L31.7,17.8z M18.3,16.4c3-3,7.5-3.3,10.9-1.1l-12,12C15,24,15.3,19.4,18.3,16.4z"/>
</svg>
