<?xml version="1.0" encoding="utf-8"?>
<!-- Generator: Adobe Illustrator 22.1.0, SVG Export Plug-In . SVG Version: 6.00 Build 0)  -->
<svg version="1.1" id="Layer_1" xmlns="http://www.w3.org/2000/svg" xmlns:xlink="http://www.w3.org/1999/xlink" x="0px" y="0px"
	 viewBox="0 0 47 47" style="enable-background:new 0 0 47 47;" xml:space="preserve">
<style type="text/css">
	.st0{fill:#FFFFFF;}
</style>
<g id="Layer_2_1_">
	<ellipse class="st0" cx="23.5" cy="23.5" rx="23.3" ry="23.3"/>
</g>
<g id="Layer_1_1_">
	<path d="M23.5,47C10.5,47,0,36.5,0,23.5C0,10.5,10.5,0,23.5,0S47,10.5,47,23.5C47.1,36.5,36.5,47,23.5,47z M23.5,0.4
		C10.7,0.4,0.4,10.7,0.4,23.5s10.4,23.2,23.1,23.2c12.8,0,23.2-10.4,23.2-23.2S36.3,0.4,23.5,0.4z"/>
</g>
<g id="Layer_3">
	<path d="M41.3,30.3H31.1v-7h-2.5h-4.5v-3.1C28.5,20,32,16.4,32,12c0-4.6-3.7-8.3-8.3-8.3s-8.3,3.7-8.3,8.3c0,4.3,3.3,7.9,7.6,8.3
		v3.1h-4.5h-2.3v6.9H5.8c-0.4,0-0.7,0.3-0.7,0.7c0,0.4,0.3,0.7,0.7,0.7H16v6.8h15.1v-6.8h10.1c0.4,0,0.7-0.3,0.7-0.7
		C41.9,30.6,41.6,30.3,41.3,30.3z M16.6,12c0-3.9,3.1-7,7-7s7,3.1,7,7s-3.2,7-7,7S16.6,15.9,16.6,12z M26,24.7l-2.5,3.4L21,24.7H26z
		 M29.8,37.2H17.3V24.7h2l4.2,5.6l4.2-5.6h2.1V37.2z"/>
</g>
</svg>
