<?xml version="1.0" encoding="utf-8"?>
<!-- Generator: Adobe Illustrator 22.1.0, SVG Export Plug-In . SVG Version: 6.00 Build 0)  -->
<svg version="1.1" id="Layer_1" xmlns="http://www.w3.org/2000/svg" xmlns:xlink="http://www.w3.org/1999/xlink" x="0px" y="0px"
	 viewBox="0 0 47 47" style="enable-background:new 0 0 47 47;" xml:space="preserve">
<style type="text/css">
	.st0{fill:#FFFFFF;}
</style>
<g id="Layer_1_1_">
</g>
<g id="Circled_Ics">
	<path class="st0" d="M38.5,32.6l3.3-3.1l-1.2-1l-3.1,2.9V19.9l9.5-9.6L36.7,0L26.5,10.3l4.4,4.5L26.5,15v1.6l4.1-0.2L17.8,28.5
		h-7.3v-8.6c5-0.4,8.9-4.5,8.9-9.8c0-5.5-4.4-9.8-9.7-9.8S0,4.9,0,10.1c0,5.1,3.9,9.4,8.9,9.8v7.4L6,24.6l-1,1l2.9,2.9H0.6V47H19
		V29.6l13.7-13.3l3.5,3.5v12.5c-3.7,0.4-6.6,3.5-6.6,7.2c0,4.1,3.3,7.2,7.2,7.2c4.1,0,7.2-3.3,7.2-7.2
		C44.1,36.1,41.6,33.3,38.5,32.6z M36.7,2l8.1,8.2l-8.1,8.2l-8.1-8.2L36.7,2z M1.5,10.3c0-4.5,3.7-8.2,8.1-8.2s8.1,3.7,8.1,8.2
		s-3.5,8.2-8.1,8.2S1.5,14.8,1.5,10.3z M17.4,45.4H2.1V30h15.3V45.4z M36.7,45.4c-3.1,0-5.8-2.5-5.8-5.9c0-3.3,2.5-5.9,5.8-5.9
		c3.1,0,5.8,2.5,5.8,5.9C42.6,42.9,40,45.4,36.7,45.4z"/>
</g>
</svg>
